SplineFontDB: 3.2
FontName: D-DIN-PRO-ExtraBold
FullName: D-DIN-PRO-ExtraBold
FamilyName: D-DIN-PRO
Weight: Extrabold
Copyright: Copyright (c) CyberFei. All rights reserved
Version: 1.1.0
ItalicAngle: 0
UnderlinePosition: -150
UnderlineWidth: 50
Ascent: 831
Descent: 169
InvalidEm: 0
sfntRevision: 0x00010000
LayerCount: 2
Layer: 0 0 "Back" 1
Layer: 1 0 "Fore" 0
XUID: [1021 868 -1451673819 31012]
StyleMap: 0x0020
FSType: 4
OS2Version: 3
OS2_WeightWidthSlopeOnly: 0
OS2_UseTypoMetrics: 0
CreationTime: 1462909513
ModificationTime: 1778060076
PfmFamily: 17
TTFWeight: 800
TTFWidth: 5
LineGap: 86
VLineGap: 0
Panose: 2 11 8 4 3 2 2 3 2 4
OS2TypoAscent: 831
OS2TypoAOffset: 0
OS2TypoDescent: -169
OS2TypoDOffset: 0
OS2TypoLinegap: 86
OS2WinAscent: 902
OS2WinAOffset: 0
OS2WinDescent: 184
OS2WinDOffset: 0
HheadAscent: 831
HheadAOffset: 0
HheadDescent: -169
HheadDOffset: 0
OS2SubXSize: 650
OS2SubYSize: 600
OS2SubXOff: 0
OS2SubYOff: 75
OS2SupXSize: 650
OS2SupYSize: 600
OS2SupXOff: 0
OS2SupYOff: 350
OS2StrikeYSize: 50
OS2StrikeYPos: 312
OS2CapHeight: 690
OS2XHeight: 520
OS2Vendor: 'MONO'
OS2CodePages: 20000001.00000000
OS2UnicodeRanges: 8000006f.4000000a.00000000.00000000
Lookup: 1 0 0 "'aalt' Access All Alternates lookup 0" { "'aalt' Access All Alternates lookup 0 subtable"  } ['aalt' ('DFLT' <'dflt' > ) ]
Lookup: 1 0 0 "'sups' Superscript lookup 1" { "'sups' Superscript lookup 1 subtable" ("superior") } ['sups' ('DFLT' <'dflt' > ) ]
Lookup: 4 0 0 "'frac' Diagonal Fractions lookup 2" { "'frac' Diagonal Fractions lookup 2 subtable"  } ['frac' ('DFLT' <'dflt' > ) ]
Lookup: 6 0 0 "'ordn' Ordinals lookup 3" { "'ordn' Ordinals lookup 3 contextual 0"  "'ordn' Ordinals lookup 3 contextual 1"  } ['ordn' ('DFLT' <'dflt' > ) ]
Lookup: 4 0 0 "'dlig' Discretionary Ligatures lookup 4" { "'dlig' Discretionary Ligatures lookup 4 subtable"  } ['dlig' ('DFLT' <'dflt' > ) ]

StartChar: .notdef
Encoding: 65536 -1 0
Width: 601
GlyphClass: 1
Flags: MW
HStem: 0.709961 53.3506<156.712 455.473 156.712 508.822 103.362 455.473> 637.03 53.3496<156.712 455.473 156.712 156.712>
VStem: 103.362 53.3496<54.0605 54.0605 54.0605 637.03> 455.473 53.3496<54.0605 637.03 637.03 637.03>
LayerCount: 2
Fore
SplineSet
103.362304688 690.379882812 m 1
 508.822265625 690.379882812 l 1
 508.822265625 0.7099609375 l 1
 103.362304688 0.7099609375 l 1
 103.362304688 690.379882812 l 1
156.711914062 54.060546875 m 1
 455.47265625 54.060546875 l 1
 455.47265625 637.030273438 l 1
 156.711914062 637.030273438 l 1
 156.711914062 54.060546875 l 1
EndSplineSet
EndChar

StartChar: exclam
Encoding: 33 33 3
Width: 259
GlyphClass: 2
Flags: MW
HStem: 0.709961 146.47<62.6221 210.062 62.6221 210.062> 670.38 20G<57.2266 215.458 215.458 215.458>
VStem: 62.6221 147.44<0.709961 147.18 0.709961 147.18> 81.5693 109.546<223.811 223.811>
LayerCount: 2
Fore
SplineSet
57.2265625 690.379882812 m 1xd0
 215.458007812 690.379882812 l 1
 191.115234375 223.810546875 l 1
 81.5693359375 223.810546875 l 1
 57.2265625 690.379882812 l 1xd0
62.6220703125 147.1796875 m 1xe0
 210.0625 147.1796875 l 1
 210.0625 0.7099609375 l 1
 62.6220703125 0.7099609375 l 1
 62.6220703125 147.1796875 l 1xe0
EndSplineSet
EndChar

StartChar: quotedbl
Encoding: 34 34 4
Width: 388
GlyphClass: 2
Flags: MW
HStem: 380.95 309.43<42.252 176.112 42.252 176.112 42.252 225.582 225.582 358.473>
VStem: 42.252 133.86<380.95 690.38 380.95 690.38> 225.582 132.891<380.95 690.38 380.95 690.38>
LayerCount: 2
Fore
SplineSet
42.251953125 690.379882812 m 1
 176.112304688 690.379882812 l 1
 176.112304688 380.950195312 l 1
 42.251953125 380.950195312 l 1
 42.251953125 690.379882812 l 1
225.58203125 690.379882812 m 1
 358.47265625 690.379882812 l 1
 358.47265625 380.950195312 l 1
 225.58203125 380.950195312 l 1
 225.58203125 690.379882812 l 1
EndSplineSet
EndChar

StartChar: numbersign
Encoding: 35 35 5
Width: 542
GlyphClass: 2
Flags: MW
HStem: 0.709961 21G<67.0039 187.464 67.0039 67.0039 269.734 391.164 269.734 269.734> 198.59 109.61<22.8525 93.1943 22.8525 107.565 228.036 295.925 22.8525 213.654 431.632 506.882> 394.53 109.61<47.1025 119.338 47.1025 133.701 47.1025 239.809 254.155 322.068 456.886 531.132> 670.38 20G<157.951 278.405 278.405 278.405 360.682 481.136 481.136 481.136>
LayerCount: 2
Fore
SplineSet
531.131835938 504.140625 m 1
 531.131835938 394.530273438 l 1
 442.619140625 394.530273438 l 1
 431.631835938 308.200195312 l 1
 506.881835938 308.200195312 l 1
 506.881835938 198.58984375 l 1
 417.354492188 198.58984375 l 1
 391.1640625 0.7099609375 l 1
 269.734375 0.7099609375 l 1
 295.924804688 198.58984375 l 1
 213.654296875 198.58984375 l 1
 187.463867188 0.7099609375 l 1
 67.00390625 0.7099609375 l 1
 93.1943359375 198.58984375 l 1
 22.8525390625 198.58984375 l 1
 22.8525390625 308.200195312 l 1
 107.565429688 308.200195312 l 1
 119.337890625 394.530273438 l 1
 47.1025390625 394.530273438 l 1
 47.1025390625 504.140625 l 1
 133.701171875 504.140625 l 1
 157.951171875 690.379882812 l 1
 278.405273438 690.379882812 l 1
 254.155273438 504.140625 l 1
 336.431640625 504.140625 l 1
 360.681640625 690.379882812 l 1
 481.135742188 690.379882812 l 1
 456.885742188 504.140625 l 1
 531.131835938 504.140625 l 1
310.295898438 308.200195312 m 1
 322.068359375 394.530273438 l 1
 239.80859375 394.530273438 l 1
 228.036132812 308.200195312 l 1
 310.295898438 308.200195312 l 1
EndSplineSet
EndChar

StartChar: dollar
Encoding: 36 36 6
Width: 506
GlyphClass: 2
Flags: MW
HStem: -57.4893 210.49<215.738 282.462 215.738 313.851 193.57 282.462> 544.88 194<229.556 280.319>
VStem: 33.0166 131.274<241.271 241.271> 48.0703 136.771<467.194 498.441> 193.57 120.28<-57.4893 33.2871 33.2871 33.2871> 325.489 138.713<201.444 236.89>
LayerCount: 2
Fore
SplineSet
216.505859375 293.80859375 m 2xec
 104.396484375 313.828125 48.0703125 370.616210938 48.0703125 473.584960938 c 0
 48.0703125 523.297851562 61.6240234375 565.315429688 89.2275390625 598.439453125 c 0
 115.125976562 629.516601562 150.255859375 650.11328125 193.571289062 660.276367188 c 1
 193.571289062 738.879882812 l 1
 313.8515625 738.879882812 l 1
 313.8515625 659.171875 l 1
 340.729492188 652.369140625 445.578125 622.309570312 455.448242188 476.220703125 c 2
 456.182617188 465.33984375 l 1
 321.543945312 465.33984375 l 1
 317.677734375 506.90234375 311.291992188 544.879882812 249.346679688 544.879882812 c 0
 209.764648438 544.879882812 184.840820312 525.963867188 184.840820312 482.315429688 c 0xdc
 184.840820312 452.072265625 197.315429688 429.357421875 255.165039062 418.595703125 c 2
 310.39453125 407.9375 l 2
 439.926757812 383.758789062 464.202148438 298.811523438 464.202148438 228.174804688 c 0
 464.202148438 174.712890625 450.421875 130.6875 421.994140625 97.40625 c 0
 395.377929688 66.2451171875 358.97265625 45.701171875 313.850585938 35.5888671875 c 1
 313.850585938 -57.4892578125 l 1
 193.5703125 -57.4892578125 l 1
 193.5703125 33.287109375 l 1
 103.930664062 49.6142578125 39.162109375 113.770507812 33.53125 230.588867188 c 2
 33.0166015625 241.271484375 l 1
 164.291015625 241.271484375 l 1
 170.237304688 191.720703125 179.221679688 153.000976562 252.25390625 153.000976562 c 0
 312.669921875 153.000976562 325.489257812 184.2109375 325.489257812 218.4765625 c 0
 325.489257812 255.303710938 311.439453125 276.345703125 263.986328125 285.087890625 c 0
 263.981445312 285.088867188 216.505859375 293.80859375 216.505859375 293.80859375 c 2xec
143.615234375 680.196289062 m 1024
EndSplineSet
EndChar

StartChar: percent
Encoding: 37 37 7
Width: 898
GlyphClass: 2
Flags: MW
HStem: 0.709961 21G<201.992 320.332 201.992 201.992> 676.2 21G
VStem: 44.1934 120.28<411.505 416.355 416.355 536.635 404.646 549.245> 205.213 120.28<416.356 536.636 536.636 548.673> 581.574 120.28<149.604 154.454 154.454 274.734> 742.594 120.28<154.453 274.733 274.733 286.771>
LayerCount: 2
Fore
SplineSet
185.328125 256.790039062 m 0
 124.370117188 256.790039062 44.193359375 277.049804688 44.193359375 411.504882812 c 2
 44.193359375 549.245117188 l 2
 44.193359375 576.33203125 44.6689453125 696.200195312 185.328125 696.200195312 c 0
 258.026367188 696.200195312 325.493164062 667.639648438 325.493164062 549.245117188 c 2
 325.493164062 411.504882812 l 2
 325.493164062 314.44140625 283.97265625 256.790039062 185.328125 256.790039062 c 0
706.065429688 695.23046875 m 1
 320.33203125 0.7099609375 l 1
 201.9921875 0.7099609375 l 1
 586.7265625 695.23046875 l 1
 706.065429688 695.23046875 l 1
205.212890625 416.356445312 m 2
 205.212890625 536.635742188 l 2
 205.212890625 560.7109375 203.123046875 576.8828125 200.579101562 583.356445312 c 0
 198.930664062 587.551757812 195.9453125 590.469726562 185.328125 590.469726562 c 0
 174.737304688 590.469726562 171.375976562 587.5078125 169.474609375 583.0703125 c 0
 166.758789062 576.734375 164.473632812 560.6875 164.473632812 536.634765625 c 2
 164.473632812 416.35546875 l 2
 164.473632812 392.936523438 166.544921875 377.125 169.106445312 370.604492188 c 0
 170.663085938 366.643554688 173.829101562 363.490234375 185.328125 363.490234375 c 0
 197.190429688 363.490234375 199.924804688 366.670898438 201.038085938 369.565429688 c 0
 203.224609375 375.250976562 205.212890625 391.59765625 205.212890625 416.356445312 c 2
722.708984375 -5.109375 m 0
 661.762695312 -5.109375 581.57421875 15.142578125 581.57421875 149.604492188 c 2
 581.57421875 287.34375 l 2
 581.57421875 314.458984375 582.065429688 434.299804688 722.708984375 434.299804688 c 0
 795.502929688 434.299804688 862.874023438 405.66015625 862.874023438 287.345703125 c 2
 862.874023438 149.606445312 l 2
 862.874023438 52.5419921875 821.353515625 -5.109375 722.708984375 -5.109375 c 0
742.59375 154.453125 m 2
 742.59375 274.733398438 l 2
 742.59375 298.809570312 740.50390625 314.98046875 737.9609375 321.454101562 c 0
 736.311523438 325.650390625 733.326171875 328.568359375 722.708984375 328.568359375 c 0
 712.118164062 328.568359375 708.756835938 325.60546875 706.85546875 321.16796875 c 0
 704.140625 314.833007812 701.854492188 298.787109375 701.854492188 274.734375 c 2
 701.854492188 154.454101562 l 2
 701.854492188 131.03515625 703.92578125 115.224609375 706.487304688 108.703125 c 0
 708.043945312 104.7421875 711.209960938 101.588867188 722.708984375 101.588867188 c 0
 734.571289062 101.588867188 737.305664062 104.770507812 738.418945312 107.665039062 c 0
 740.60546875 113.349609375 742.59375 129.694335938 742.59375 154.453125 c 2
EndSplineSet
EndChar

StartChar: ampersand
Encoding: 38 38 8
Width: 599
GlyphClass: 2
Flags: MW
HStem: -9.96094 124.16<224.572 260.559 224.572 275.743> 0.708984 124.161<480.847 561.199 529.678 561.199 529.678 561.199> 587.56 113.49<260.086 284.873>
VStem: 49.0391 134.831<165.306 202.238 165.306 219.61> 97.54 132.89<529.502 555.599 529.502 583.588> 313.85 130.952<526.44 554.608>
LayerCount: 2
Fore
SplineSet
444.801757812 536.634765625 m 0xac
 444.801757812 470.823242188 409.904296875 422.497070312 338.87109375 361.426757812 c 1
 409.704101562 266.169921875 l 1
 475.071289062 347.642578125 l 1
 565.984375 267.21875 l 1
 484.2890625 164.853515625 l 1
 498.059570312 146.008789062 l 2
 510.065429688 130.435546875 520.678710938 124.870117188 529.677734375 124.870117188 c 2
 561.19921875 124.870117188 l 1
 561.19921875 0.708984375 l 1
 504.454101562 0.708984375 l 2x6c
 457.239257812 0.708984375 433.338867188 15.71484375 399.080078125 60.1201171875 c 1
 361.749023438 20.783203125 314.751953125 -9.9609375 236.734375 -9.9609375 c 0
 178.528320312 -9.9609375 131.783203125 6.9384765625 98.4375 41.6728515625 c 0
 65.33203125 76.1572265625 49.0390625 121.715820312 49.0390625 176.764648438 c 0xb4
 49.0390625 262.455078125 94.2353515625 322.7734375 164.75 382.243164062 c 1
 113.221679688 454.900390625 97.5400390625 490.151367188 97.5400390625 535.665039062 c 0
 97.5400390625 631.51171875 171.364257812 701.049804688 271.65625 701.049804688 c 0
 375.872070312 701.049804688 444.801757812 627.965820312 444.801757812 536.634765625 c 0xac
272.624023438 587.559570312 m 0
 247.547851562 587.559570312 230.4296875 570.68359375 230.4296875 540.514648438 c 0
 230.4296875 518.490234375 238.751953125 500.986328125 265.748046875 462.387695312 c 1
 300.676757812 492.999023438 313.849609375 512.366210938 313.849609375 540.514648438 c 0
 313.849609375 568.701171875 297.122070312 587.559570312 272.624023438 587.559570312 c 0
239.01171875 279.08203125 m 1
 203.708984375 246.903320312 183.870117188 218.981445312 183.870117188 185.494140625 c 0
 183.870117188 145.118164062 202.709960938 114.19921875 246.434570312 114.19921875 c 0xb4
 274.68359375 114.19921875 295.279296875 126.502929688 325.577148438 160.803710938 c 1
 239.01171875 279.08203125 l 1
EndSplineSet
EndChar

StartChar: quotesingle
Encoding: 39 39 9
Width: 203
GlyphClass: 2
Flags: MW
HStem: 380.95 309.43<42.252 176.112 42.252 176.112>
VStem: 42.252 133.86<380.95 690.38 380.95 690.38>
LayerCount: 2
Fore
SplineSet
42.251953125 690.379882812 m 1
 176.112304688 690.379882812 l 1
 176.112304688 380.950195312 l 1
 42.251953125 380.950195312 l 1
 42.251953125 690.379882812 l 1
EndSplineSet
EndChar

StartChar: parenleft
Encoding: 40 40 10
Width: 318
GlyphClass: 2
Flags: MW
VStem: 49.042 139.681<309.239 432.772>
LayerCount: 2
Fore
SplineSet
49.0419921875 329.0546875 m 0
 49.0419921875 536.490234375 134.049804688 672.77734375 180.004882812 738.880859375 c 1
 289.185546875 738.880859375 l 1
 281.723632812 724.11328125 l 2
 263.692382812 688.424804688 188.72265625 538.758789062 188.72265625 329.055664062 c 0
 188.72265625 289.421875 189.681640625 120.043945312 281.76171875 -66.0771484375 c 2
 289.030273438 -80.7685546875 l 1
 178.946289062 -80.7685546875 l 1
 133.762695312 -13.869140625 49.0419921875 124.86328125 49.0419921875 329.0546875 c 0
EndSplineSet
EndChar

StartChar: parenright
Encoding: 41 41 11
Width: 318
GlyphClass: 2
Flags: MW
VStem: 143.132 139.681<240.554 368.786>
LayerCount: 2
Fore
SplineSet
143.131835938 329.0546875 m 0
 143.131835938 408.517578125 132.032226562 562.015625 50.130859375 724.111328125 c 2
 42.6689453125 738.87890625 l 1
 151.849609375 738.87890625 l 1
 197.540039062 673.155273438 282.8125 536.77734375 282.8125 329.053710938 c 0
 282.8125 124.653320312 197.897460938 -14.1572265625 152.908203125 -80.76953125 c 1
 42.82421875 -80.76953125 l 1
 50.0927734375 -66.078125 l 2
 87.724609375 9.986328125 143.131835938 152.053710938 143.131835938 329.0546875 c 0
EndSplineSet
EndChar

StartChar: asterisk
Encoding: 42 42 12
Width: 384
GlyphClass: 2
Flags: MW
HStem: 378.04 312.34<154.772 242.072 154.772 242.072>
VStem: 154.772 87.2998<378.04 463.794 378.04 464.681 378.04 464.681 607.425 690.38>
LayerCount: 2
Fore
SplineSet
242.072265625 378.040039062 m 1
 154.772460938 378.040039062 l 1
 154.772460938 464.680664062 l 1
 85.5458984375 424.7421875 l 1
 45.3271484375 494.80078125 l 1
 116.39453125 535.665039062 l 1
 45.3271484375 576.529296875 l 1
 85.4970703125 646.502929688 l 1
 154.772460938 607.424804688 l 1
 154.772460938 690.379882812 l 1
 242.072265625 690.379882812 l 1
 242.072265625 606.649414062 l 1
 311.423828125 646.66015625 l 1
 350.424804688 576.458007812 l 1
 279.575195312 535.719726562 l 1
 351.668945312 494.778320312 l 1
 310.228515625 424.84765625 l 1
 242.072265625 463.793945312 l 1
 242.072265625 378.040039062 l 1
EndSplineSet
EndChar

StartChar: plus
Encoding: 43 43 13
Width: 532
GlyphClass: 2
Flags: MW
HStem: 213.141 130.949<51.9521 207.152 51.9521 207.152 338.103 492.332>
VStem: 207.152 130.95<57.9404 213.141 57.9404 213.141 344.09 499.29>
LayerCount: 2
Fore
SplineSet
338.102539062 213.140625 m 1
 338.102539062 57.9404296875 l 1
 207.15234375 57.9404296875 l 1
 207.15234375 213.140625 l 1
 51.9521484375 213.140625 l 1
 51.9521484375 344.08984375 l 1
 207.15234375 344.08984375 l 1
 207.15234375 499.290039062 l 1
 338.102539062 499.290039062 l 1
 338.102539062 344.08984375 l 1
 492.33203125 344.08984375 l 1
 492.33203125 213.140625 l 1
 338.102539062 213.140625 l 1
EndSplineSet
EndChar

StartChar: comma
Encoding: 44 44 14
Width: 203
GlyphClass: 2
Flags: MW
HStem: -168.202 322.172<42.252 176.112>
VStem: 42.252 133.86<-54.9365 153.97 -54.9365 153.97 -54.9365 153.97>
LayerCount: 2
Fore
SplineSet
42.251953125 153.969726562 m 1
 176.112304688 153.969726562 l 1
 176.112304688 -54.9365234375 l 1
 42.251953125 -168.202148438 l 1
 42.251953125 153.969726562 l 1
EndSplineSet
EndChar

StartChar: hyphen
Encoding: 45 45 15
Width: 372
GlyphClass: 2
Flags: MW
HStem: 280.07 131.92<49.042 336.162 49.042 336.162>
VStem: 49.042 287.12<280.07 411.99 280.07 411.99>
LayerCount: 2
Fore
SplineSet
49.0419921875 411.990234375 m 1
 336.162109375 411.990234375 l 1
 336.162109375 280.0703125 l 1
 49.0419921875 280.0703125 l 1
 49.0419921875 411.990234375 l 1
EndSplineSet
EndChar

StartChar: period
Encoding: 46 46 16
Width: 226
GlyphClass: 2
Flags: MW
HStem: 0.709961 158.11<42.252 197.452 42.252 197.452>
VStem: 42.252 155.2<0.709961 158.82 0.709961 158.82>
LayerCount: 2
Fore
SplineSet
42.251953125 158.8203125 m 1
 197.452148438 158.8203125 l 1
 197.452148438 0.7099609375 l 1
 42.251953125 0.7099609375 l 1
 42.251953125 158.8203125 l 1
EndSplineSet
EndChar

StartChar: slash
Encoding: 47 47 17
Width: 411
GlyphClass: 2
Flags: MW
HStem: -8.99023 21G<45.5459 166.712 45.5459 45.5459> 675.23 20G<256.312 378.478 378.478 378.478>
VStem: 45.5459 332.932
LayerCount: 2
Fore
SplineSet
256.3125 695.23046875 m 1
 378.477539062 695.23046875 l 1
 166.711914062 -8.990234375 l 1
 45.5458984375 -8.990234375 l 1
 256.3125 695.23046875 l 1
EndSplineSet
EndChar

StartChar: zero
Encoding: 48 48 18
Width: 516
GlyphClass: 2
Flags: MW
HStem: -9.95996 130.95<251.218 276.949 251.218 340.132> 569.129 131.921<250.808 276.981>
VStem: 53.8926 148.409<231.085 241.754 241.754 449.334> 326.461 147.441<241.754 449.334 449.334 467.766>
LayerCount: 2
Fore
SplineSet
263.897460938 -9.9599609375 m 0
 147.8515625 -9.9599609375 53.892578125 44.58203125 53.892578125 231.084960938 c 2
 53.892578125 467.765625 l 2
 53.892578125 516.498046875 57.38671875 701.049804688 263.897460938 701.049804688 c 0
 389.10546875 701.049804688 473.90234375 638.155273438 473.90234375 467.765625 c 2
 473.90234375 231.084960938 l 2
 473.90234375 86.095703125 416.3671875 -9.9599609375 263.897460938 -9.9599609375 c 0
326.4609375 241.75390625 m 2
 326.4609375 449.333984375 l 2
 326.4609375 496.55078125 321.134765625 528.946289062 312.556640625 545.549804688 c 0
 304.6796875 560.794921875 290.064453125 569.12890625 263.897460938 569.12890625 c 0
 237.717773438 569.12890625 223.352539062 560.807617188 215.783203125 545.668945312 c 0
 207.4609375 529.024414062 202.301757812 496.563476562 202.301757812 449.333984375 c 2
 202.301757812 241.75390625 l 2
 202.301757812 194.543945312 207.609375 161.974609375 216.23828125 144.994140625 c 0
 224.205078125 129.31640625 238.5390625 120.990234375 263.897460938 120.990234375 c 0
 290.000976562 120.990234375 304.607421875 129.411132812 312.526367188 144.994140625 c 0
 321.155273438 161.974609375 326.4609375 194.543945312 326.4609375 241.75390625 c 2
EndSplineSet
EndChar

StartChar: one
Encoding: 49 49 19
Width: 355
GlyphClass: 2
Flags: MW
HStem: 0.709961 21G<152.832 300.272 152.832 152.832> 670.38 20G<159.624 300.272 300.272 300.272>
VStem: 152.832 147.44<0.709961 519.596 519.596 519.596>
LayerCount: 2
Fore
SplineSet
40.3125 438.116210938 m 1
 40.3125 600.896484375 l 1
 159.624023438 690.379882812 l 1
 300.272460938 690.379882812 l 1
 300.272460938 0.7099609375 l 1
 152.83203125 0.7099609375 l 1
 152.83203125 519.595703125 l 1
 40.3125 438.116210938 l 1
EndSplineSet
Substitution2: "'sups' Superscript lookup 1 subtable" uni00B9
Substitution2: "'aalt' Access All Alternates lookup 0 subtable" uni00B9
EndChar

StartChar: two
Encoding: 50 50 20
Width: 496
GlyphClass: 2
Flags: MW
HStem: 0.709961 131.92<242.903 460.322 242.903 460.322> 573.01 128.04<241.992 260.844>
VStem: 49.042 143.561<476.98 502.686 476.98 510.445 476.98 565.578> 310.942 149.38<493.955 494.925 494.925 507.535 507.535 511.415>
LayerCount: 2
Fore
SplineSet
256.13671875 701.049804688 m 0
 381.278320312 701.049804688 460.322265625 615.225585938 460.322265625 511.415039062 c 2
 460.322265625 494.924804688 l 2
 460.322265625 453.978515625 452.143554688 403.57421875 397.096679688 332.54296875 c 2
 242.903320312 132.629882812 l 1
 460.322265625 132.629882812 l 1
 460.322265625 0.7099609375 l 1
 51.9521484375 0.7099609375 l 1
 51.9521484375 115.243164062 l 1
 276.14453125 406.008789062 l 2
 299.840820312 437.83203125 310.942382812 467.133789062 310.942382812 493.955078125 c 2
 310.942382812 507.53515625 l 2
 310.942382812 528.982421875 305.251953125 544.5859375 294.748046875 555.8984375 c 0
 284.258789062 567.194335938 270.401367188 573.009765625 251.287109375 573.009765625 c 0
 232.697265625 573.009765625 192.602539062 565.705078125 192.602539062 502.685546875 c 2
 192.602539062 476.98046875 l 1
 49.0419921875 476.98046875 l 1
 49.0419921875 510.4453125 l 2
 49.0419921875 620.7109375 128.134765625 701.049804688 256.13671875 701.049804688 c 0
EndSplineSet
Substitution2: "'sups' Superscript lookup 1 subtable" uni00B2
Substitution2: "'aalt' Access All Alternates lookup 0 subtable" uni00B2
EndChar

StartChar: three
Encoding: 51 51 21
Width: 508
GlyphClass: 2
Flags: MW
HStem: -9.95996 128.041<224.959 265.99 224.877 313.658> 291.711 128.04<201.33 244.495 244.495 245.465 201.33 244.495> 573.01 128.04<239.567 278.391>
VStem: 49.0391 138.71<172.886 178.706 178.706 203.441 166.752 203.441> 311.91 143.562<490.076 499.775 499.775 504.626 504.626 514.325 483.33 515.609> 322.579 143.562<194.227 211.687 211.687 212.655 127.545 233.51>
LayerCount: 2
Fore
SplineSet
466.141601562 194.225585938 m 2xf4
 466.141601562 60.8642578125 370.208007812 -9.9599609375 257.108398438 -9.9599609375 c 0
 192.810546875 -9.9599609375 141.462890625 5.4677734375 104.446289062 37.640625 c 0
 67.30078125 69.92578125 49.0390625 115.7421875 49.0390625 172.885742188 c 2
 49.0390625 203.44140625 l 1
 187.749023438 203.44140625 l 1
 187.749023438 178.706054688 l 2
 187.749023438 154.797851562 194.58984375 118.081054688 255.1640625 118.081054688 c 0
 276.81640625 118.081054688 292.536132812 124.811523438 304.321289062 137.967773438 c 0
 316.18359375 151.208984375 322.579101562 169.479492188 322.579101562 194.2265625 c 2
 322.579101562 211.686523438 l 2xf4
 322.579101562 255.333984375 304.78515625 291.7109375 245.46484375 291.7109375 c 2
 201.330078125 291.7109375 l 1
 201.330078125 419.750976562 l 1
 244.495117188 419.750976562 l 2
 269.51171875 419.750976562 311.91015625 428.791015625 311.91015625 490.076171875 c 2
 311.91015625 504.625976562 l 2
 311.91015625 526.591796875 305.497070312 573.009765625 251.28515625 573.009765625 c 0
 227.848632812 573.009765625 190.66015625 564.758789062 190.66015625 512.384765625 c 2
 190.66015625 485.709960938 l 1
 53.890625 485.709960938 l 1
 53.890625 512.384765625 l 2
 53.890625 570.715820312 71.7138671875 617.6953125 108.092773438 651.301757812 c 0
 144.385742188 684.829101562 194.25390625 701.049804688 256.135742188 701.049804688 c 0
 316.81640625 701.049804688 365.940429688 684.42578125 401.866210938 650.227539062 c 0
 437.725585938 616.091796875 455.471679688 570.184570312 455.471679688 514.325195312 c 2
 455.471679688 499.775390625 l 2xf8
 455.471679688 466.884765625 446.33203125 407.970703125 387.815429688 367.821289062 c 1
 420.419921875 349.225585938 466.141601562 306.434570312 466.141601562 212.655273438 c 2
 466.141601562 194.225585938 l 2xf4
EndSplineSet
Substitution2: "'sups' Superscript lookup 1 subtable" uni00B3
Substitution2: "'aalt' Access All Alternates lookup 0 subtable" uni00B3
EndChar

StartChar: four
Encoding: 52 52 22
Width: 524
GlyphClass: 2
Flags: MW
HStem: 0.709961 21G<295.422 442.862 295.422 295.422> 107.41 131.92<191.976 295.422 191.976 295.422 442.862 497.183> 670.38 20G<233.869 383.065 383.065 383.065>
VStem: 295.422 147.44<0.709961 107.41 0.709961 107.41 239.33 396.47>
LayerCount: 2
Fore
SplineSet
442.862304688 239.330078125 m 1
 497.182617188 239.330078125 l 1
 497.182617188 107.41015625 l 1
 442.862304688 107.41015625 l 1
 442.862304688 0.7099609375 l 1
 295.421875 0.7099609375 l 1
 295.421875 107.41015625 l 1
 39.341796875 107.41015625 l 1
 39.341796875 231.217773438 l 1
 233.869140625 690.379882812 l 1
 383.065429688 690.379882812 l 1
 191.975585938 239.330078125 l 1
 295.421875 239.330078125 l 1
 295.421875 396.469726562 l 1
 442.862304688 396.469726562 l 1
 442.862304688 239.330078125 l 1
EndSplineSet
EndChar

StartChar: five
Encoding: 53 53 23
Width: 500
GlyphClass: 2
Flags: MW
HStem: -9.95996 128.039<236.343 263.369 236.343 284.886> 334.39 127.069<262.48 268.729> 561.369 129.01<193.571 445.771 193.571 193.571>
VStem: 63.5908 129.98<439.663 561.369 439.663 690.379 439.663 690.379> 315.791 143.562<201.014 251.453 251.453 258.244 163.526 286.828>
LayerCount: 2
Fore
SplineSet
315.791015625 251.453125 m 2
 315.791015625 322.202148438 285.202148438 334.389648438 252.255859375 334.389648438 c 0
 210.362304688 334.389648438 198.387695312 307.587890625 189.9921875 288.798828125 c 1
 63.5908203125 288.798828125 l 1
 63.5908203125 690.37890625 l 1
 445.771484375 690.37890625 l 1
 445.771484375 561.369140625 l 1
 193.571289062 561.369140625 l 1
 193.571289062 439.663085938 l 1
 218.033203125 454.240234375 246.513671875 461.458984375 278.447265625 461.458984375 c 0
 336.697265625 461.458984375 382.575195312 444.005859375 413.7109375 407.97265625 c 0
 444.6328125 372.1875 459.352539062 321.823242188 459.352539062 258.244140625 c 2
 459.352539062 195.194335938 l 2
 459.352539062 131.858398438 441.366210938 80.982421875 404.438476562 44.400390625 c 0
 367.538085938 7.845703125 316.544921875 -9.9599609375 253.227539062 -9.9599609375 c 0
 193.35546875 -9.9599609375 144.630859375 5.06640625 108.379882812 36.1396484375 c 0
 71.939453125 67.3740234375 53.892578125 111.08984375 53.892578125 165.124023438 c 2
 53.892578125 189.859375 l 1
 190.662109375 189.859375 l 1
 190.662109375 173.854492188 l 2
 190.662109375 132.915039062 219.459960938 118.079101562 253.2265625 118.079101562 c 0
 273.510742188 118.079101562 315.791015625 121.668945312 315.791015625 201.013671875 c 2
 315.791015625 251.453125 l 2
EndSplineSet
EndChar

StartChar: six
Encoding: 54 54 24
Width: 520
GlyphClass: 2
Flags: MW
HStem: -9.95996 128.039<235.188 276.8 235.188 297.863> 303.35 126.1<242.724 327.091> 670.379 20G<249.924 406.663 406.663 406.663>
VStem: 49.041 148.411<198.104 227.204 182.999 228.174 182.999 247.193> 335.191 147.441<196.163 201.985 201.985 226.233 226.233 233.025 169.276 239.292>
LayerCount: 2
Fore
SplineSet
49.041015625 198.104492188 m 2
 49.041015625 228.173828125 l 2
 49.041015625 266.212890625 53.9111328125 309.51953125 93.8154296875 387.0546875 c 2
 249.923828125 690.37890625 l 1
 406.663085938 690.37890625 l 1
 271.521484375 426.711914062 l 1
 280.482421875 428.545898438 289.916015625 429.44921875 299.788085938 429.44921875 c 0
 354.39453125 429.44921875 399.348632812 411.828125 432.818359375 376.2890625 c 0
 466.326171875 340.708007812 482.6328125 292.420898438 482.6328125 233.025390625 c 2
 482.6328125 201.985351562 l 2
 482.6328125 136.567382812 462.896484375 83.96875 422.676757812 46.154296875 c 0
 382.680664062 8.55078125 329.888671875 -9.9599609375 265.837890625 -9.9599609375 c 0
 199.357421875 -9.9599609375 145.85546875 8.103515625 106.998046875 45.2421875 c 0
 68.09765625 82.4208984375 49.041015625 134.013671875 49.041015625 198.104492188 c 2
265.8359375 118.079101562 m 0
 287.763671875 118.079101562 335.19140625 126.169921875 335.19140625 196.163085938 c 2
 335.19140625 226.233398438 l 2
 335.19140625 252.3515625 328.573242188 270.9921875 316.600585938 283.78125 c 0
 304.547851562 296.65625 288.264648438 303.349609375 265.8359375 303.349609375 c 0
 219.612304688 303.349609375 197.452148438 273.228515625 197.452148438 227.204101562 c 2
 197.452148438 195.194335938 l 2
 197.452148438 170.803710938 204.541015625 118.079101562 265.8359375 118.079101562 c 0
EndSplineSet
EndChar

StartChar: seven
Encoding: 55 55 25
Width: 461
GlyphClass: 2
Flags: MW
HStem: 0.709961 21G<83.376 233.196 83.376 83.376> 559.43 130.95<34.4922 290.956 34.4922 439.952>
LayerCount: 2
Fore
SplineSet
439.952148438 690.379882812 m 1
 439.952148438 567.810546875 l 1
 233.196289062 0.7099609375 l 1
 83.3759765625 0.7099609375 l 1
 290.956054688 559.4296875 l 1
 34.4921875 559.4296875 l 1
 34.4921875 690.379882812 l 1
 439.952148438 690.379882812 l 1
EndSplineSet
EndChar

StartChar: eight
Encoding: 56 56 26
Width: 528
GlyphClass: 2
Flags: MW
HStem: -9.95996 128.041<258.864 282.17 258.864 332.021> 297.532 125.129<260.827 280.512 260.827 282.17> 573.011 128.039<261.197 280.173>
VStem: 53.8906 143.56<195.196 197.136 197.136 217.506 217.506 220.416 184.844 231.264> 66.501 142.589<491.045 508.505 508.505 508.506 479.387 541.301> 332.28 142.591<490.076 491.045 491.045 508.505 476.031 508.506 476.031 518.083> 343.92 142.592<197.136 218.477 132.705 220.416 132.705 232.332>
LayerCount: 2
Fore
SplineSet
269.716796875 -9.9599609375 m 0xe2
 141.143554688 -9.9599609375 53.890625 74.1591796875 53.890625 195.196289062 c 2
 53.890625 217.505859375 l 2xf2
 53.890625 245.021484375 60.77734375 315.939453125 126.966796875 362.28125 c 1
 105.359375 378.654296875 66.5009765625 418.219726562 66.5009765625 491.044921875 c 2
 66.5009765625 508.504882812 l 2
 66.5009765625 574.09765625 97.78515625 638.125 162.85546875 674.998046875 c 0
 193.702148438 692.477539062 229.803710938 701.049804688 270.686523438 701.049804688 c 0
 401.015625 701.049804688 474.87109375 610.084960938 474.87109375 508.504882812 c 2
 474.87109375 491.044921875 l 2xec
 474.87109375 461.016601562 467.99609375 433.629882812 454.135742188 409.374023438 c 0
 443.290039062 390.393554688 429.88671875 374.59375 414.0078125 362.256835938 c 1
 435.170898438 347.04296875 452.078125 327.98046875 464.422851562 305.299804688 c 0
 479.110351562 278.315429688 486.51171875 249.2421875 486.51171875 218.4765625 c 2
 486.51171875 196.166015625 l 2
 486.51171875 69.2431640625 394.32421875 -9.9599609375 269.716796875 -9.9599609375 c 0xe2
332.280273438 490.076171875 m 2xec
 332.280273438 508.505859375 l 2
 332.280273438 527.661132812 326.541015625 542.668945312 315.12890625 554.916015625 c 0
 303.885742188 566.981445312 289.661132812 573.010742188 270.685546875 573.010742188 c 0
 251.708984375 573.010742188 237.484375 566.981445312 226.2421875 554.916015625 c 0
 214.830078125 542.668945312 209.08984375 527.661132812 209.08984375 508.505859375 c 2
 209.08984375 490.076171875 l 2
 209.08984375 468.698242188 214.889648438 452.711914062 225.842773438 440.663085938 c 0
 236.668945312 428.75390625 250.96875 422.661132812 270.685546875 422.661132812 c 0
 290.337890625 422.661132812 304.599609375 428.854492188 315.451171875 441.0625 c 0
 326.53515625 453.532226562 332.280273438 469.421875 332.280273438 490.076171875 c 2xec
343.919921875 197.135742188 m 2xf2
 343.919921875 220.416015625 l 2
 343.919921875 244.247070312 337.100585938 262.438476562 323.888671875 276.494140625 c 0
 310.782226562 290.4375 293.655273438 297.532226562 270.685546875 297.532226562 c 0
 248.44140625 297.532226562 231.403320312 290.491210938 217.892578125 276.416015625 c 0
 204.38671875 262.346679688 197.450195312 244.196289062 197.450195312 220.416015625 c 2
 197.450195312 197.135742188 l 2
 197.450195312 172.551757812 204.201171875 153.793945312 217.139648438 139.448242188 c 0
 229.864257812 125.340820312 247.04296875 118.081054688 270.685546875 118.081054688 c 0
 293.655273438 118.081054688 310.782226562 125.174804688 323.888671875 139.119140625 c 0
 337.001953125 153.068359375 343.919921875 171.885742188 343.919921875 197.135742188 c 2xf2
EndSplineSet
EndChar

StartChar: nine
Encoding: 57 57 27
Width: 520
GlyphClass: 2
Flags: MW
HStem: 0.709961 21G<125.011 281.751 125.011 125.011> 261.641 126.101<204.583 288.95> 573.012 128.038<254.873 296.485>
VStem: 49.041 147.441<458.065 464.857 464.857 489.105 489.105 494.927 451.797 521.814> 334.222 148.41<463.887 492.985 444.688 495.897 444.688 508.092>
LayerCount: 2
Fore
SplineSet
231.88671875 261.640625 m 0
 177.280273438 261.640625 132.325195312 279.262695312 98.8564453125 314.801757812 c 0
 65.3486328125 350.381835938 49.041015625 398.669921875 49.041015625 458.065429688 c 2
 49.041015625 489.10546875 l 2
 49.041015625 554.5234375 68.77734375 607.12109375 108.998046875 644.935546875 c 0
 148.994140625 682.5390625 201.78515625 701.049804688 265.8359375 701.049804688 c 0
 332.317382812 701.049804688 385.818359375 682.986328125 424.676757812 645.84765625 c 0
 463.577148438 608.668945312 482.631835938 557.075195312 482.631835938 492.985351562 c 2
 482.631835938 462.915039062 l 2
 482.631835938 426.461914062 477.831054688 381.700195312 437.859375 304.034179688 c 2
 281.750976562 0.7099609375 l 1
 125.010742188 0.7099609375 l 1
 260.15234375 264.377929688 l 1
 251.19140625 262.543945312 241.7578125 261.640625 231.88671875 261.640625 c 0
265.836914062 387.741210938 m 0
 312.063476562 387.741210938 334.221679688 417.861328125 334.221679688 463.88671875 c 2
 334.221679688 495.897460938 l 2
 334.221679688 520.287109375 327.1328125 573.01171875 265.836914062 573.01171875 c 0
 243.909179688 573.01171875 196.482421875 564.921875 196.482421875 494.926757812 c 2
 196.482421875 464.857421875 l 2
 196.482421875 438.737304688 203.099609375 420.096679688 215.072265625 407.30859375 c 0
 227.125976562 394.43359375 243.409179688 387.741210938 265.836914062 387.741210938 c 0
EndSplineSet
EndChar

StartChar: colon
Encoding: 58 58 28
Width: 226
GlyphClass: 2
Flags: MW
HStem: 0.709961 158.11<42.252 197.452 42.252 197.452> 328.57 158.109<42.252 197.452 42.252 197.452>
VStem: 42.252 155.2<0.709961 158.82 0.709961 158.82 328.57 486.68>
LayerCount: 2
Fore
SplineSet
42.251953125 158.8203125 m 1
 197.452148438 158.8203125 l 1
 197.452148438 0.7099609375 l 1
 42.251953125 0.7099609375 l 1
 42.251953125 158.8203125 l 1
42.251953125 486.6796875 m 1
 197.452148438 486.6796875 l 1
 197.452148438 328.5703125 l 1
 42.251953125 328.5703125 l 1
 42.251953125 486.6796875 l 1
120.336914062 515.294921875 m 1024
EndSplineSet
EndChar

StartChar: semicolon
Encoding: 59 59 29
Width: 226
GlyphClass: 2
Flags: MW
HStem: 328.57 158.109<42.252 197.452 42.252 197.452>
VStem: 42.252 155.2<328.57 486.68 328.57 486.68> 61.6523 133.859<-54.9365 153.97 -54.9365 153.97 -54.9365 153.97>
LayerCount: 2
Fore
SplineSet
42.251953125 486.6796875 m 1xc0
 197.452148438 486.6796875 l 1
 197.452148438 328.5703125 l 1
 42.251953125 328.5703125 l 1
 42.251953125 486.6796875 l 1xc0
61.65234375 153.969726562 m 1xa0
 195.51171875 153.969726562 l 1
 195.51171875 -54.9365234375 l 1
 61.65234375 -168.202148438 l 1
 61.65234375 153.969726562 l 1xa0
116.45703125 515.294921875 m 1024
EndSplineSet
EndChar

StartChar: less
Encoding: 60 60 30
Width: 532
GlyphClass: 2
Flags: W
LayerCount: 2
Fore
SplineSet
51.9521484375 220.265625 m 1
 51.9521484375 334.069335938 l 1
 491.362304688 505.967773438 l 1
 491.362304688 372.4765625 l 1
 240.228515625 276.720703125 l 1
 491.362304688 181.8671875 l 1
 491.362304688 47.349609375 l 1
 51.9521484375 220.265625 l 1
EndSplineSet
EndChar

StartChar: equal
Encoding: 61 61 31
Width: 532
GlyphClass: 2
Flags: MW
HStem: 112.26 129.98<51.9521 491.362 51.9521 491.362> 314.99 129.979<51.9521 491.362 51.9521 491.362>
LayerCount: 2
Fore
SplineSet
51.9521484375 444.969726562 m 1
 491.362304688 444.969726562 l 1
 491.362304688 314.990234375 l 1
 51.9521484375 314.990234375 l 1
 51.9521484375 444.969726562 l 1
51.9521484375 242.240234375 m 1
 491.362304688 242.240234375 l 1
 491.362304688 112.259765625 l 1
 51.9521484375 112.259765625 l 1
 51.9521484375 242.240234375 l 1
EndSplineSet
EndChar

StartChar: greater
Encoding: 62 62 32
Width: 532
GlyphClass: 2
Flags: W
LayerCount: 2
Fore
SplineSet
51.9521484375 372.4765625 m 1
 51.9521484375 505.967773438 l 1
 491.362304688 334.069335938 l 1
 491.362304688 220.265625 l 1
 51.9521484375 47.349609375 l 1
 51.9521484375 181.8671875 l 1
 303.0859375 276.720703125 l 1
 51.9521484375 372.4765625 l 1
EndSplineSet
EndChar

StartChar: question
Encoding: 63 63 33
Width: 456
GlyphClass: 2
Flags: MW
HStem: 0.710938 142.59<153.803 301.243 153.803 301.243> 570.1 129.979<211.803 248.197>
VStem: 31.3633 137.707<493.469 493.469> 153.803 147.44<0.710938 143.301 0.710938 143.301> 285.723 144.529<502.185 530.587>
LayerCount: 2
Fore
SplineSet
230.916015625 700.079101562 m 0xe8
 351.416992188 700.079101562 430.251953125 622.79296875 430.251953125 517.234375 c 0
 430.251953125 470.829101562 415.65234375 432.71875 378.721679688 383.053710938 c 2
 322.442382812 307.370117188 l 2
 303.044921875 281.915039062 298.33203125 267.763671875 298.33203125 238.844726562 c 2
 298.33203125 187.919921875 l 1
 157.682617188 187.919921875 l 1
 157.682617188 247.575195312 l 2
 157.682617188 302.147460938 166.578125 326.075195312 199.58203125 369.235351562 c 2
 252.911132812 438.078125 l 2
 279.202148438 472.255859375 285.72265625 491.014648438 285.72265625 513.35546875 c 0
 285.72265625 547.818359375 269.357421875 570.099609375 227.037109375 570.099609375 c 0
 196.568359375 570.099609375 170.743164062 560.317382812 169.319335938 503.395507812 c 2
 169.0703125 493.46875 l 1
 31.36328125 493.46875 l 1
 32.103515625 528.255859375 33.6123046875 599.202148438 85.0791015625 649.637695312 c 0
 119.827148438 683.69140625 169.03515625 700.079101562 230.916015625 700.079101562 c 0xe8
153.802734375 143.30078125 m 1xd0
 301.243164062 143.30078125 l 1
 301.243164062 0.7109375 l 1
 153.802734375 0.7109375 l 1
 153.802734375 143.30078125 l 1xd0
EndSplineSet
EndChar

StartChar: at
Encoding: 64 64 34
Width: 868
GlyphClass: 2
Flags: MW
HStem: -131.21 117.372<401.563 485.043 354.3 503.141> 53.0898 109.611<637.392 664.617 637.392 679.647> 399.379 111.551<337.637 446.33> 580.773 117.366<401.563 466.929>
VStem: 49.042 129.01<249.515 250.488 250.488 317.414 317.414 319.358 173.262 354.707> 251.771 129.011<238.845 244.664 244.664 324.204 230.679 324.205 230.679 362.103> 490.393 128.04<241.754 323.234 323.234 358.971> 699.912 129.008<253.396 254.365 254.365 321.296 321.296 322.266 222.512 355.764>
LayerCount: 2
Fore
SplineSet
178.051757812 250.48828125 m 2
 178.051757812 96.0361328125 269.1328125 -13.837890625 439.466796875 -13.837890625 c 0
 530.619140625 -13.837890625 585.346679688 8.8857421875 644.649414062 39.1181640625 c 1
 696.424804688 -60.9033203125 l 1
 639.942382812 -94.013671875 566.814453125 -131.209960938 439.466796875 -131.209960938 c 0
 363.66015625 -131.209960938 295.951171875 -115.357421875 236.762695312 -83.435546875 c 0
 177.6328125 -51.544921875 131.326171875 -6.59375 98.3955078125 50.951171875 c 0
 65.419921875 108.577148438 49.0419921875 174.928710938 49.0419921875 249.514648438 c 2
 49.0419921875 317.4140625 l 2
 49.0419921875 391.999023438 65.419921875 458.3515625 98.3955078125 515.9765625 c 0
 131.326171875 573.521484375 177.6328125 618.474609375 236.762695312 650.365234375 c 0
 295.951171875 682.287109375 363.66015625 698.139648438 439.466796875 698.139648438 c 0
 668.591796875 698.139648438 828.919921875 543.546875 828.919921875 322.265625 c 2
 828.919921875 254.365234375 l 2
 828.919921875 190.659179688 812.958984375 140.38671875 779.557617188 105.24609375 c 0
 746.60546875 70.5771484375 704.48828125 53.08984375 654.805664062 53.08984375 c 0
 616.463867188 53.08984375 565.708007812 62.787109375 532.984375 106.858398438 c 1
 508.099609375 70.6357421875 465.385742188 53.08984375 408.42578125 53.08984375 c 0
 326.801757812 53.08984375 251.771484375 92.8076171875 251.771484375 238.844726562 c 2
 251.771484375 324.205078125 l 2
 251.771484375 400 273.63671875 510.9296875 401.63671875 510.9296875 c 0
 425.48046875 510.9296875 462.850585938 506.01171875 492.33203125 479.737304688 c 1
 492.33203125 500.260742188 l 1
 618.432617188 500.260742188 l 1
 618.432617188 213.625976562 l 2
 618.432617188 202.198242188 619.006835938 162.701171875 655.77734375 162.701171875 c 0
 673.456054688 162.701171875 699.912109375 169.040039062 699.912109375 253.396484375 c 2
 699.912109375 321.295898438 l 2
 699.912109375 390.231445312 681.168945312 493.78515625 579.625976562 549.024414062 c 0
 540.974609375 570.051757812 494.391601562 580.7734375 439.466796875 580.7734375 c 0
 356.702148438 580.7734375 293.265625 557.248046875 247.356445312 511.032226562 c 0
 201.412109375 464.779296875 178.051757812 401.469726562 178.051757812 319.358398438 c 2
 178.051757812 250.48828125 l 2
436.557617188 164.639648438 m 0
 455.751953125 164.639648438 490.392578125 169.081054688 490.392578125 241.75390625 c 2
 490.392578125 323.234375 l 2
 490.392578125 394.708007812 456.102539062 399.37890625 436.557617188 399.37890625 c 0
 416.25 399.37890625 403.40625 392.98046875 394.943359375 380.926757812 c 0
 385.911132812 368.061523438 380.782226562 349.403320312 380.782226562 324.204101562 c 2
 380.782226562 244.6640625 l 2
 380.782226562 216.694335938 385.890625 196.43359375 394.59765625 183.374023438 c 0
 402.708984375 171.20703125 415.5625 164.639648438 436.557617188 164.639648438 c 0
EndSplineSet
EndChar

StartChar: A
Encoding: 65 65 35
Width: 607
GlyphClass: 2
Flags: MW
HStem: 0.709961 21G<5.03125 5.03125 5.03125 160.801 457.204 457.204 457.204 613.963> 130.69 126.1<241.872 376.082 241.872 416.464 201.541 376.082> 670.38 20G<249.914 368.081 368.081 368.081>
AnchorPoint: "Anchor-0" 309 680 basechar 0
LayerCount: 2
Fore
SplineSet
5.03125 0.7099609375 m 1
 249.9140625 690.379882812 l 1
 368.081054688 690.379882812 l 1
 613.962890625 0.7099609375 l 1
 457.204101562 0.7099609375 l 1
 416.463867188 130.690429688 l 1
 201.541015625 130.690429688 l 1
 160.80078125 0.7099609375 l 1
 5.03125 0.7099609375 l 1
241.872070312 256.790039062 m 1
 376.08203125 256.790039062 l 1
 308.575195312 469.7578125 l 1
 241.872070312 256.790039062 l 1
EndSplineSet
Substitution2: "Single Substitution lookup 6 subtable" ordfeminine
Substitution2: "'aalt' Access All Alternates lookup 0 subtable" ordfeminine
EndChar

StartChar: B
Encoding: 66 66 36
Width: 599
GlyphClass: 2
Flags: MW
HStem: 0.709961 130.951<210.062 328.887 328.887 339.382 210.062 341.496> 285.891 130.95<210.062 321.126 321.126 328.887 210.062 321.126> 559.431 130.949<210.062 321.126 210.062 210.062>
VStem: 62.6211 147.44<131.661 285.891 416.841 559.431> 400.182 148.409<482.711 501.837> 409.881 147.44<172.802 231.491>
LayerCount: 2
Fore
SplineSet
475.56640625 355.697265625 m 1xf8
 504.498046875 339.022460938 557.321289062 297.997070312 557.321289062 202.956054688 c 0xf4
 557.321289062 140.133789062 538.397460938 89.7646484375 499.743164062 53.87109375 c 0
 461.171875 18.0546875 407.89453125 0.7099609375 341.49609375 0.7099609375 c 2
 62.62109375 0.7099609375 l 1
 62.62109375 690.379882812 l 1
 330.826171875 690.379882812 l 2
 397.774414062 690.379882812 451.426757812 673.765625 490.346679688 639.32421875 c 0
 529.427734375 604.73828125 548.590820312 555.556640625 548.590820312 493.955078125 c 0
 548.590820312 471.466796875 543.069335938 399.171875 475.56640625 355.697265625 c 1xf8
400.181640625 486.196289062 m 0xf8
 400.181640625 517.478515625 389.736328125 559.430664062 321.125976562 559.430664062 c 2
 210.061523438 559.430664062 l 1
 210.061523438 416.840820312 l 1
 321.125976562 416.840820312 l 2
 359.370117188 416.840820312 400.181640625 430.004882812 400.181640625 486.196289062 c 0xf8
328.88671875 131.661132812 m 2
 349.876953125 131.661132812 409.880859375 133.916015625 409.880859375 211.6875 c 0xf4
 409.880859375 251.293945312 391.859375 285.890625 328.88671875 285.890625 c 2
 210.061523438 285.890625 l 1
 210.061523438 131.661132812 l 1
 328.88671875 131.661132812 l 2
EndSplineSet
EndChar

StartChar: C
Encoding: 67 67 37
Width: 601
GlyphClass: 2
Flags: MW
HStem: -7.0498 133.86<291.088 327.68 291.088 345.596> 568.16 131.92<289.178 346.235>
VStem: 53.8926 148.409<269.885 271.825 271.825 416.355 245.178 423.146> 411.822 145.5<225.266 226.235 226.235 243.21 189.335 243.21>
LayerCount: 2
Fore
SplineSet
53.892578125 423.145507812 m 2
 53.892578125 535.310546875 85.005859375 700.080078125 309.486328125 700.080078125 c 0
 384.35546875 700.080078125 445.298828125 680.099609375 490.875976562 639.284179688 c 0
 536.702148438 598.24609375 559.26171875 540.366210938 559.26171875 467.765625 c 2
 559.26171875 450.790039062 l 1
 411.821289062 450.790039062 l 1
 411.821289062 466.794921875 l 2
 411.821289062 521.13671875 383.952148438 568.16015625 308.517578125 568.16015625 c 0
 269.837890625 568.16015625 244.044921875 556.484375 227.990234375 534.514648438 c 0
 211.69921875 512.221679688 202.301757812 472.989257812 202.301757812 416.35546875 c 2
 202.301757812 271.825195312 l 2
 202.301757812 218.530273438 211.93359375 181.424804688 228.78125 159.72265625 c 0
 245.456054688 138.244140625 271.719726562 126.810546875 310.45703125 126.810546875 c 0
 344.903320312 126.810546875 369.485351562 135.936523438 386.130859375 152.864257812 c 0
 402.990234375 170.008789062 411.822265625 193.569335938 411.822265625 225.265625 c 2
 411.822265625 243.209960938 l 1
 557.322265625 243.209960938 l 1
 557.322265625 226.235351562 l 2
 557.322265625 152.435546875 535.168945312 94.06640625 489.932617188 53.2841796875 c 0
 444.93359375 12.716796875 383.645507812 -7.0498046875 307.546875 -7.0498046875 c 0
 167.811523438 -7.0498046875 53.892578125 57.94140625 53.892578125 269.884765625 c 2
 53.892578125 423.145507812 l 2
EndSplineSet
EndChar

StartChar: D
Encoding: 68 68 38
Width: 601
GlyphClass: 2
Flags: MW
HStem: 0.709961 130.95<210.062 304.637> 559.43 130.95<210.062 307.546 210.062 210.062>
VStem: 62.6221 147.439<131.66 559.43 131.66 690.38 131.66 690.38> 411.821 147.44<278.615 407.625 407.625 414.415 229.746 465.875>
LayerCount: 2
Fore
SplineSet
62.6220703125 690.379882812 m 1
 308.516601562 690.379882812 l 2
 384.771484375 690.379882812 446.36328125 669.020507812 491.631835938 625.453125 c 0
 537.580078125 581.231445312 559.26171875 510.170898438 559.26171875 414.415039062 c 2
 559.26171875 277.645507812 l 2
 559.26171875 181.845703125 537.05078125 110.583007812 490.123046875 66.0703125 c 0
 443.904296875 22.2314453125 381.541015625 0.7099609375 304.63671875 0.7099609375 c 2
 62.6220703125 0.7099609375 l 1
 62.6220703125 690.379882812 l 1
411.821289062 407.625 m 2
 411.821289062 524.125976562 372.470703125 559.4296875 307.545898438 559.4296875 c 2
 210.061523438 559.4296875 l 1
 210.061523438 131.66015625 l 1
 307.545898438 131.66015625 l 2
 371.170898438 131.66015625 411.821289062 167.169921875 411.821289062 278.615234375 c 2
 411.821289062 407.625 l 2
EndSplineSet
EndChar

StartChar: E
Encoding: 69 69 39
Width: 535
GlyphClass: 2
Flags: MW
HStem: 0.709961 130.95<210.062 507.853 210.062 507.853> 282.98 130.949<210.062 464.202 210.062 464.202> 559.43 130.95<210.062 507.853 210.062 210.062>
VStem: 62.6221 147.44<131.66 131.66 131.66 282.98 413.93 559.43>
AnchorPoint: "Anchor-0" 275 680 basechar 0
LayerCount: 2
Fore
SplineSet
210.0625 131.66015625 m 1
 507.852539062 131.66015625 l 1
 507.852539062 0.7099609375 l 1
 62.6220703125 0.7099609375 l 1
 62.6220703125 690.379882812 l 1
 507.852539062 690.379882812 l 1
 507.852539062 559.4296875 l 1
 210.0625 559.4296875 l 1
 210.0625 413.9296875 l 1
 464.202148438 413.9296875 l 1
 464.202148438 282.98046875 l 1
 210.0625 282.98046875 l 1
 210.0625 131.66015625 l 1
EndSplineSet
EndChar

StartChar: F
Encoding: 70 70 40
Width: 530
GlyphClass: 2
Flags: MW
HStem: 0.709961 21G<62.6221 210.062 62.6221 62.6221> 277.16 130.95<210.062 465.172 210.062 465.172> 559.43 130.95<210.062 507.853 210.062 210.062>
VStem: 62.6221 147.44<0.709961 277.16 0.709961 408.11 408.11 559.43>
LayerCount: 2
Fore
SplineSet
210.0625 277.16015625 m 1
 210.0625 0.7099609375 l 1
 62.6220703125 0.7099609375 l 1
 62.6220703125 690.379882812 l 1
 507.852539062 690.379882812 l 1
 507.852539062 559.4296875 l 1
 210.0625 559.4296875 l 1
 210.0625 408.110351562 l 1
 465.171875 408.110351562 l 1
 465.171875 277.16015625 l 1
 210.0625 277.16015625 l 1
EndSplineSet
EndChar

StartChar: G
Encoding: 71 71 41
Width: 601
GlyphClass: 2
Flags: MW
HStem: -7.0498 133.86<293.64 342.201 293.64 417.622> 259.7 125.13<296.393 414.732 296.393 559.262> 568.16 131.92<289.178 325.697>
VStem: 53.8926 148.409<269.885 271.825 271.825 416.355 244.856 423.146> 414.732 144.529<237.875 259.7 259.7 259.7>
LayerCount: 2
Fore
SplineSet
53.892578125 423.145507812 m 2
 53.892578125 535.310546875 85.005859375 700.080078125 309.486328125 700.080078125 c 0
 384.337890625 700.080078125 445.263671875 680.276367188 490.844726562 639.796875 c 0
 536.606445312 599.157226562 559.26171875 542.739257812 559.26171875 472.615234375 c 2
 559.26171875 455.640625 l 1
 411.821289062 455.640625 l 1
 411.821289062 472.615234375 l 2
 411.821289062 500.7109375 402.952148438 523.051757812 385.162109375 541.133789062 c 0
 367.795898438 558.78515625 342.875976562 568.16015625 308.517578125 568.16015625 c 0
 269.837890625 568.16015625 244.044921875 556.484375 227.990234375 534.514648438 c 0
 211.69921875 512.221679688 202.301757812 472.989257812 202.301757812 416.35546875 c 2
 202.301757812 271.825195312 l 2
 202.301757812 217.887695312 212.268554688 180.73828125 229.607421875 159.419921875 c 0
 246.89453125 138.1640625 273.912109375 126.810546875 313.3671875 126.810546875 c 0
 371.034179688 126.810546875 414.732421875 148.091796875 414.732421875 237.875 c 2
 414.732421875 259.700195312 l 1
 296.392578125 259.700195312 l 1
 296.392578125 384.830078125 l 1
 559.26171875 384.830078125 l 1
 559.26171875 260.185546875 l 2
 559.26171875 150.634765625 527.697265625 -7.0498046875 307.546875 -7.0498046875 c 0
 167.811523438 -7.0498046875 53.892578125 57.94140625 53.892578125 269.884765625 c 2
 53.892578125 423.145507812 l 2
EndSplineSet
EndChar

StartChar: H
Encoding: 72 72 42
Width: 610
GlyphClass: 2
Flags: MW
HStem: 0.709961 21G<62.6221 210.062 62.6221 62.6221 411.822 559.262 411.822 411.822> 283.95 130.95<210.062 411.822 210.062 411.822> 670.38 20G<62.6221 210.062 210.062 210.062 411.822 559.262 559.262 559.262>
VStem: 62.6221 147.44<0.709961 283.95 0.709961 414.9 414.9 690.38> 411.822 147.439<0.709961 283.95 283.95 283.95 414.9 690.38 0.709961 690.38>
LayerCount: 2
Fore
SplineSet
559.26171875 690.379882812 m 1
 559.26171875 0.7099609375 l 1
 411.822265625 0.7099609375 l 1
 411.822265625 283.950195312 l 1
 210.0625 283.950195312 l 1
 210.0625 0.7099609375 l 1
 62.6220703125 0.7099609375 l 1
 62.6220703125 690.379882812 l 1
 210.0625 690.379882812 l 1
 210.0625 414.900390625 l 1
 411.822265625 414.900390625 l 1
 411.822265625 690.379882812 l 1
 559.26171875 690.379882812 l 1
EndSplineSet
EndChar

StartChar: I
Encoding: 73 73 43
Width: 270
GlyphClass: 2
Flags: MW
HStem: 0.709961 21G<68.4424 215.882 68.4424 68.4424> 670.38 20G<68.4424 215.882 215.882 215.882>
VStem: 68.4424 147.439<0.709961 690.38 0.709961 690.38>
AnchorPoint: "Anchor-0" 141 680 basechar 0
LayerCount: 2
Fore
SplineSet
68.4423828125 690.379882812 m 1
 215.881835938 690.379882812 l 1
 215.881835938 0.7099609375 l 1
 68.4423828125 0.7099609375 l 1
 68.4423828125 690.379882812 l 1
EndSplineSet
EndChar

StartChar: J
Encoding: 74 74 44
Width: 338
GlyphClass: 2
Flags: MW
HStem: 0.709961 131.92<28.6719 91.2373 91.2373 100.6 28.6719 120.337 28.6719 91.2373> 670.38 20G<135.372 283.782 283.782 283.782>
VStem: 135.372 148.41<185.495 690.38>
LayerCount: 2
Fore
SplineSet
28.671875 132.629882812 m 1
 91.2373046875 132.629882812 l 2
 109.962890625 132.629882812 120.5390625 137.149414062 125.715820312 143.154296875 c 0
 131.095703125 149.395507812 135.372070312 163.138671875 135.372070312 185.495117188 c 2
 135.372070312 690.379882812 l 1
 283.782226562 690.379882812 l 1
 283.782226562 164.155273438 l 2
 283.782226562 113.188476562 269.74609375 72.3154296875 240.498046875 43.4208984375 c 0
 211.317382812 14.591796875 170.669921875 0.7099609375 120.336914062 0.7099609375 c 2
 28.671875 0.7099609375 l 1
 28.671875 132.629882812 l 1
EndSplineSet
EndChar

StartChar: K
Encoding: 75 75 45
Width: 611
GlyphClass: 2
Flags: MW
HStem: 0.709961 21G<62.6221 210.062 62.6221 62.6221 448.031 619.119 448.031 448.031> 670.38 20G<62.6221 210.062 210.062 210.062 426.584 605.15 605.15 605.15>
VStem: 62.6221 147.44<0.709961 194.541 398.664 690.38>
LayerCount: 2
Fore
SplineSet
448.03125 0.7099609375 m 1
 286.635742188 290.467773438 l 1
 210.0625 194.541015625 l 1
 210.0625 0.7099609375 l 1
 62.6220703125 0.7099609375 l 1
 62.6220703125 690.379882812 l 1
 210.0625 690.379882812 l 1
 210.0625 398.6640625 l 1
 426.583984375 690.379882812 l 1
 605.150390625 690.379882812 l 1
 381.924804688 410.58984375 l 1
 619.119140625 0.7099609375 l 1
 448.03125 0.7099609375 l 1
EndSplineSet
EndChar

StartChar: L
Encoding: 76 76 46
Width: 520
GlyphClass: 2
Flags: MW
HStem: 0.709961 130.95<210.062 503.002 210.062 503.002> 670.38 20G<62.6221 210.062 210.062 210.062>
VStem: 62.6221 147.44<131.66 690.38 131.66 690.38 131.66 690.38>
LayerCount: 2
Fore
SplineSet
62.6220703125 690.379882812 m 1
 210.0625 690.379882812 l 1
 210.0625 131.66015625 l 1
 503.001953125 131.66015625 l 1
 503.001953125 0.7099609375 l 1
 62.6220703125 0.7099609375 l 1
 62.6220703125 690.379882812 l 1
EndSplineSet
EndChar

StartChar: M
Encoding: 77 77 47
Width: 730
GlyphClass: 2
Flags: MW
HStem: 0.709961 21G<62.6221 210.062 62.6221 62.6221 531.132 678.572 531.132 531.132> 670.38 20G<62.6221 206.377 206.377 206.377 534.786 678.572 678.572 678.572>
VStem: 62.6221 147.44<0.709961 365.498 0.709961 690.38> 531.132 147.44<0.709961 362.411 362.411 362.411>
LayerCount: 2
Fore
SplineSet
678.572265625 690.379882812 m 1
 678.572265625 0.7099609375 l 1
 531.131835938 0.7099609375 l 1
 531.131835938 362.411132812 l 1
 420.688476562 129.719726562 l 1
 322.458007812 129.719726562 l 1
 210.0625 365.498046875 l 1
 210.0625 0.7099609375 l 1
 62.6220703125 0.7099609375 l 1
 62.6220703125 690.379882812 l 1
 206.376953125 690.379882812 l 1
 371.514648438 334.915039062 l 1
 534.786132812 690.379882812 l 1
 678.572265625 690.379882812 l 1
EndSplineSet
EndChar

StartChar: N
Encoding: 78 78 48
Width: 634
GlyphClass: 2
Flags: MW
HStem: 0.709961 21G<62.6221 210.062 62.6221 62.6221 440.438 583.512 440.438 440.438> 670.38 20G<62.6221 205.704 205.704 205.704 436.072 583.512 583.512 583.512>
VStem: 62.6221 147.44<0.709961 391.622 0.709961 690.38> 436.072 147.439<298.572 690.38 0.709961 690.38>
AnchorPoint: "Anchor-0" 323 680 basechar 0
LayerCount: 2
Fore
SplineSet
583.51171875 690.379882812 m 1
 583.51171875 0.7099609375 l 1
 440.4375 0.7099609375 l 1
 210.0625 391.622070312 l 1
 210.0625 0.7099609375 l 1
 62.6220703125 0.7099609375 l 1
 62.6220703125 690.379882812 l 1
 205.704101562 690.379882812 l 1
 436.072265625 298.572265625 l 1
 436.072265625 690.379882812 l 1
 583.51171875 690.379882812 l 1
EndSplineSet
EndChar

StartChar: O
Encoding: 79 79 49
Width: 601
GlyphClass: 2
Flags: MW
HStem: -7.0498 133.86<288.146 338.275 288.146 342.121> 568.16 131.92<288.184 340.008>
VStem: 53.8926 148.408<269.885 271.825 271.825 416.355 244.815 423.146> 411.821 147.44<271.825 416.355 416.355 423.146>
AnchorPoint: "Anchor-0" 306 680 basechar 0
LayerCount: 2
Fore
SplineSet
53.892578125 423.145507812 m 2
 53.892578125 534.454101562 84.2255859375 700.080078125 307.545898438 700.080078125 c 0
 383.822265625 700.080078125 445.572265625 678.541992188 491.1484375 634.666992188 c 0
 537.401367188 590.140625 559.26171875 518.918945312 559.26171875 423.145507812 c 2
 559.26171875 269.884765625 l 2
 559.26171875 174.072265625 536.876953125 102.790039062 489.611328125 58.28515625 c 0
 443.081054688 14.4716796875 380.57421875 -7.0498046875 303.666992188 -7.0498046875 c 0
 166.137695312 -7.0498046875 53.892578125 57.8876953125 53.892578125 269.884765625 c 2
 53.892578125 423.145507812 l 2
307.545898438 126.810546875 m 0
 369.004882812 126.810546875 411.821289062 157.616210938 411.821289062 271.825195312 c 2
 411.821289062 416.35546875 l 2
 411.821289062 532.85546875 372.470703125 568.16015625 307.545898438 568.16015625 c 0
 268.821289062 568.16015625 243.21875 556.606445312 227.518554688 535.018554688 c 0
 211.578125 513.100585938 202.30078125 473.67578125 202.30078125 416.35546875 c 2
 202.30078125 271.825195312 l 2
 202.30078125 217.805664062 211.514648438 180.416015625 227.442382812 159.084960938 c 0
 243.094726562 138.123046875 268.747070312 126.810546875 307.545898438 126.810546875 c 0
EndSplineSet
Substitution2: "Single Substitution lookup 6 subtable" ordmasculine
Substitution2: "'aalt' Access All Alternates lookup 0 subtable" ordmasculine
EndChar

StartChar: P
Encoding: 80 80 50
Width: 569
GlyphClass: 2
Flags: MW
HStem: 0.709961 21G<62.6221 210.062 62.6221 62.6221> 254.851 131.92<210.062 317.247 317.247 323.067 210.062 317.247> 559.43 130.95<210.062 317.247 210.062 210.062>
VStem: 62.6221 147.44<0.709961 254.851 0.709961 386.771 386.771 559.43> 405.032 147.44<437.564 479.328>
LayerCount: 2
Fore
SplineSet
552.47265625 469.705078125 m 0
 552.47265625 405.422851562 531.963867188 352.724609375 490.616210938 313.427734375 c 0
 449.2109375 274.076171875 392.819335938 254.850585938 323.067382812 254.850585938 c 2
 210.0625 254.850585938 l 1
 210.0625 0.7099609375 l 1
 62.6220703125 0.7099609375 l 1
 62.6220703125 690.379882812 l 1
 323.067382812 690.379882812 l 2
 392.837890625 690.379882812 449.249023438 670.975585938 490.6484375 631.287109375 c 0
 532.08203125 591.564453125 552.47265625 537.079101562 552.47265625 469.705078125 c 0
317.247070312 386.770507812 m 2
 335.4453125 386.770507812 405.032226562 389.203125 405.032226562 469.705078125 c 0
 405.032226562 488.950195312 403.52734375 559.4296875 317.247070312 559.4296875 c 2
 210.0625 559.4296875 l 1
 210.0625 386.770507812 l 1
 317.247070312 386.770507812 l 2
EndSplineSet
EndChar

StartChar: Q
Encoding: 81 81 51
Width: 601
GlyphClass: 2
Flags: MW
HStem: -7.0498 133.86<288.146 311.308> 568.16 131.92<288.184 340.008>
VStem: 53.8916 148.409<269.885 271.825 271.825 416.355 244.815 423.146> 411.821 147.44<271.825 416.355 416.355 423.146>
AnchorPoint: "Anchor-0" 306 680 basechar 0
LayerCount: 2
Fore
SplineSet
303.666015625 -7.0498046875 m 0
 166.13671875 -7.0498046875 53.8916015625 57.8876953125 53.8916015625 269.884765625 c 2
 53.8916015625 423.145507812 l 2
 53.8916015625 534.448242188 84.22265625 700.080078125 307.545898438 700.080078125 c 0
 383.822265625 700.080078125 445.572265625 678.541992188 491.1484375 634.666992188 c 0
 537.401367188 590.140625 559.26171875 518.918945312 559.26171875 423.145507812 c 2
 559.26171875 269.884765625 l 2
 559.26171875 165.02734375 530.58203125 87.9501953125 471.088867188 41.9208984375 c 1
 542.50390625 -89.1708984375 l 1
 427.646484375 -152.341796875 l 1
 347.470703125 -4.859375 l 1
 333.55078125 -6.3232421875 318.950195312 -7.0498046875 303.666015625 -7.0498046875 c 0
411.821289062 416.35546875 m 2
 411.821289062 532.85546875 372.470703125 568.16015625 307.545898438 568.16015625 c 0
 268.821289062 568.16015625 243.21875 556.606445312 227.518554688 535.018554688 c 0
 211.578125 513.100585938 202.30078125 473.67578125 202.30078125 416.35546875 c 2
 202.30078125 271.825195312 l 2
 202.30078125 217.805664062 211.514648438 180.416015625 227.442382812 159.084960938 c 0
 243.094726562 138.123046875 268.747070312 126.810546875 307.545898438 126.810546875 c 0
 369.004882812 126.810546875 411.821289062 157.616210938 411.821289062 271.825195312 c 2
 411.821289062 416.35546875 l 2
EndSplineSet
EndChar

StartChar: R
Encoding: 82 82 52
Width: 601
GlyphClass: 2
Flags: MW
HStem: 0.709961 21G<415.526 584.958 415.526 415.526> 272.31 126.1<210.062 223.128> 559.429 130.95<210.062 320.157 210.062 210.062>
VStem: 62.6221 147.44<0.708984 272.31 0.708984 398.409 398.409 559.429> 404.062 147.439<452.356 492.877>
LayerCount: 2
Fore
SplineSet
551.501953125 480.374023438 m 0
 551.501953125 424.337890625 534.193359375 338.263671875 437.03515625 296.555664062 c 1
 584.958007812 0.7099609375 l 1
 415.526367188 0.7099609375 l 1
 288.456054688 272.310546875 l 1
 262.325195312 272.310546875 236.193359375 272.309570312 210.0625 272.309570312 c 1
 210.0625 0.708984375 l 1
 62.6220703125 0.708984375 l 1
 62.6220703125 690.37890625 l 1
 326.947265625 690.37890625 l 2
 394.129882812 690.37890625 448.999023438 671.790039062 490.029296875 633.836914062 c 0
 531.14453125 595.805664062 551.501953125 544.009765625 551.501953125 480.374023438 c 0
320.157226562 398.409179688 m 2
 352.2265625 398.409179688 404.0625 408.5703125 404.0625 480.374023438 c 0
 404.0625 505.379882812 396.55859375 523.995117188 381.970703125 538.0234375 c 0
 367.424804688 552.008789062 347.373046875 559.428710938 320.157226562 559.428710938 c 2
 210.0625 559.428710938 l 1
 210.0625 398.409179688 l 1
 320.157226562 398.409179688 l 2
EndSplineSet
EndChar

StartChar: S
Encoding: 83 83 53
Width: 551
GlyphClass: 2
Flags: MW
HStem: -5.10938 129.013<233.321 311.916> 573.01 127.071<257.5 313.287 244.559 320.63>
VStem: 44.1904 143.561<482.108 520.342> 377.87 145.501<184.53 222.025>
AnchorPoint: "Anchor-0" 279 680 basechar 0
LayerCount: 2
Fore
SplineSet
342.336914062 410.859375 m 2
 441.966796875 392.948242188 523.37109375 339.501953125 523.37109375 212.655273438 c 0
 523.37109375 143.19140625 500.857421875 88.3642578125 455.166015625 50.5732421875 c 0
 409.872070312 13.1123046875 349.264648438 -5.109375 274.567382812 -5.109375 c 0
 120.119140625 -5.109375 38.7431640625 77.693359375 29.6611328125 213.912109375 c 2
 28.9365234375 224.783203125 l 1
 169.115234375 224.783203125 l 1
 175.583984375 172.111328125 186.256835938 123.903320312 280.385742188 123.903320312 c 0
 365.80078125 123.903320312 377.870117188 167.071289062 377.870117188 201.98828125 c 0
 377.870117188 242.061523438 362.627929688 270.266601562 297.106445312 281.184570312 c 2
 234.08984375 291.848632812 l 2
 162.008789062 303.797851562 44.1904296875 340.498046875 44.1904296875 488.135742188 c 0
 44.1904296875 552.547851562 65.8056640625 604.9140625 109.23828125 643.216796875 c 0
 152.515625 681.3828125 209.703125 700.081054688 279.415039062 700.081054688 c 0
 347.159179688 700.081054688 402.154296875 682.048828125 442.911132812 645.059570312 c 0
 483.638671875 608.096679688 506.370117188 556.158203125 511.696289062 490.9140625 c 2
 512.595703125 479.890625 l 1
 369.732421875 479.890625 l 1
 367.4453125 518.008789062 363.783203125 573.009765625 277.4765625 573.009765625 c 0
 237.522460938 573.009765625 187.750976562 560.4453125 187.750976562 497.834960938 c 0
 187.750976562 466.381835938 200.932617188 436.435546875 271.510742188 423.47265625 c 0
 271.564453125 423.462890625 342.336914062 410.859375 342.336914062 410.859375 c 2
EndSplineSet
EndChar

StartChar: T
Encoding: 84 84 54
Width: 499
GlyphClass: 2
Flags: MW
HStem: 0.709961 21G<181.933 330.342 181.933 181.933> 559.43 130.95<11.2119 181.933 11.2119 501.062 330.342 330.342 330.342 501.062>
VStem: 181.933 148.409<0.709961 559.43 0.709961 559.43>
LayerCount: 2
Fore
SplineSet
181.932617188 559.4296875 m 1
 11.2119140625 559.4296875 l 1
 11.2119140625 690.379882812 l 1
 501.0625 690.379882812 l 1
 501.0625 559.4296875 l 1
 330.341796875 559.4296875 l 1
 330.341796875 0.7099609375 l 1
 181.932617188 0.7099609375 l 1
 181.932617188 559.4296875 l 1
EndSplineSet
EndChar

StartChar: U
Encoding: 85 85 55
Width: 615
GlyphClass: 2
Flags: MW
HStem: -5.10938 130.95<295.975 328.82 295.975 386.146> 670.381 20G<62.623 210.063 210.063 210.063 415.703 564.113 564.113 564.113>
VStem: 62.623 147.44<232.056 235.937 235.937 690.381> 415.703 148.41<235.937 690.381>
AnchorPoint: "Anchor-0" 313 680 basechar 0
LayerCount: 2
Fore
SplineSet
312.3984375 -5.109375 m 0
 169.08984375 -5.109375 62.623046875 91.4853515625 62.623046875 232.055664062 c 2
 62.623046875 690.380859375 l 1
 210.063476562 690.380859375 l 1
 210.063476562 235.936523438 l 2
 210.063476562 199.529296875 219.540039062 172.846679688 237.318359375 154.208007812 c 0
 255.153320312 135.509765625 279.55078125 125.840820312 312.3984375 125.840820312 c 0
 345.241210938 125.840820312 369.840820312 135.510742188 388.020507812 154.267578125 c 0
 406.094726562 172.916015625 415.703125 199.5625 415.703125 235.936523438 c 2
 415.703125 690.380859375 l 1
 564.11328125 690.380859375 l 1
 564.11328125 232.055664062 l 2
 564.11328125 94.8564453125 459.892578125 -5.109375 312.3984375 -5.109375 c 0
EndSplineSet
EndChar

StartChar: V
Encoding: 86 86 56
Width: 556
GlyphClass: 2
Flags: MW
HStem: 0.709961 21G<225.412 342.142 225.412 225.412> 670.38 20G<5.51758 160.036 160.036 160.036 408.498 563.036 563.036 563.036>
LayerCount: 2
Fore
SplineSet
5.517578125 690.379882812 m 1
 160.036132812 690.379882812 l 1
 284.267578125 254.658203125 l 1
 408.498046875 690.379882812 l 1
 563.036132812 690.379882812 l 1
 342.141601562 0.7099609375 l 1
 225.412109375 0.7099609375 l 1
 5.517578125 690.379882812 l 1
EndSplineSet
EndChar

StartChar: W
Encoding: 87 87 57
Width: 829
GlyphClass: 2
Flags: MW
HStem: 0.709961 21G<176.375 307.783 176.375 176.375 535.276 667.695 535.276 535.276> 670.38 20G<6.45605 154.769 154.769 154.769 337.086 511.695 511.695 511.695 693.026 832.617 832.617 832.617>
LayerCount: 2
Fore
SplineSet
535.276367188 0.7099609375 m 1
 421.076171875 463.854492188 l 1
 307.783203125 0.7099609375 l 1
 176.375 0.7099609375 l 1
 6.4560546875 690.379882812 l 1
 154.768554688 690.379882812 l 1
 247.26171875 257.264648438 l 1
 337.0859375 690.379882812 l 1
 511.6953125 690.379882812 l 1
 605.916015625 257.498046875 l 1
 693.026367188 690.379882812 l 1
 832.6171875 690.379882812 l 1
 667.6953125 0.7099609375 l 1
 535.276367188 0.7099609375 l 1
EndSplineSet
EndChar

StartChar: X
Encoding: 88 88 58
Width: 594
GlyphClass: 2
Flags: MW
HStem: 0.709961 21G<1.48535 1.48535 1.48535 169.994 429.539 429.539 429.539 604.879> 670.38 20G<16.9697 191.378 191.378 191.378 413.969 582.558 582.558 582.558>
LayerCount: 2
Fore
SplineSet
1.4853515625 0.7099609375 m 1
 216.12890625 359.115234375 l 1
 16.9697265625 690.379882812 l 1
 191.377929688 690.379882812 l 1
 303.592773438 484.346679688 l 1
 413.96875 690.379882812 l 1
 582.557617188 690.379882812 l 1
 387.317382812 363.978515625 l 1
 604.87890625 0.7099609375 l 1
 429.5390625 0.7099609375 l 1
 300.693359375 237.081054688 l 1
 169.994140625 0.7099609375 l 1
 1.4853515625 0.7099609375 l 1
EndSplineSet
EndChar

StartChar: Y
Encoding: 89 89 59
Width: 544
GlyphClass: 2
Flags: MW
HStem: 0.709961 21G<204.242 351.683 204.242 204.242> 670.38 20G<3.06641 164.819 164.819 164.819 390.136 552.875 552.875 552.875>
VStem: 204.242 147.44<0.709961 283.025 283.025 283.025>
AnchorPoint: "Anchor-0" 277 680 basechar 0
LayerCount: 2
Fore
SplineSet
390.135742188 690.379882812 m 1
 552.875 690.379882812 l 1
 351.682617188 283.990234375 l 1
 351.682617188 0.7099609375 l 1
 204.2421875 0.7099609375 l 1
 204.2421875 283.025390625 l 1
 3.06640625 690.379882812 l 1
 164.819335938 690.379882812 l 1
 277.477539062 433.922851562 l 1
 390.135742188 690.379882812 l 1
EndSplineSet
EndChar

StartChar: Z
Encoding: 90 90 60
Width: 509
GlyphClass: 2
Flags: MW
HStem: 0.709961 131.92<202.03 489.422 202.03 489.422> 559.43 130.95<40.3125 314.091 40.3125 480.692>
AnchorPoint: "Anchor-0" 260 680 basechar 0
LayerCount: 2
Fore
SplineSet
489.421875 132.629882812 m 1
 489.421875 0.7099609375 l 1
 34.4921875 0.7099609375 l 1
 34.4921875 125.44140625 l 1
 314.090820312 559.4296875 l 1
 40.3125 559.4296875 l 1
 40.3125 690.379882812 l 1
 480.692382812 690.379882812 l 1
 480.692382812 566.627929688 l 1
 202.030273438 132.629882812 l 1
 489.421875 132.629882812 l 1
EndSplineSet
EndChar

StartChar: bracketleft
Encoding: 91 91 61
Width: 323
GlyphClass: 2
Flags: MW
HStem: -80.7695 131.92<203.272 287.662 203.272 287.662> 607.93 131.921<203.272 287.662 203.272 203.272>
VStem: 62.6221 140.65<51.1504 607.93 51.1504 739.851 51.1504 739.851> 62.6221 225.04<-80.7695 51.1504 607.93 739.851>
LayerCount: 2
Fore
SplineSet
62.6220703125 739.850585938 m 1xd0
 287.662109375 739.850585938 l 1
 287.662109375 607.9296875 l 1xd0
 203.272460938 607.9296875 l 1
 203.272460938 51.150390625 l 1xe0
 287.662109375 51.150390625 l 1
 287.662109375 -80.76953125 l 1
 62.6220703125 -80.76953125 l 1
 62.6220703125 739.850585938 l 1xd0
EndSplineSet
EndChar

StartChar: backslash
Encoding: 92 92 62
Width: 411
GlyphClass: 2
Flags: MW
HStem: -8.99023 21G<257.292 378.478 257.292 257.292> 675.23 20G<45.5273 166.712 166.712 166.712>
VStem: 45.5273 332.95
LayerCount: 2
Fore
SplineSet
45.52734375 695.23046875 m 1
 166.711914062 695.23046875 l 1
 378.477539062 -8.990234375 l 1
 257.291992188 -8.990234375 l 1
 45.52734375 695.23046875 l 1
EndSplineSet
EndChar

StartChar: bracketright
Encoding: 93 93 63
Width: 324
GlyphClass: 2
Flags: MW
HStem: -80.7695 131.92<49.042 134.402 49.042 275.052 49.042 134.402> 605.021 130.949<49.042 134.402 49.042 275.052>
VStem: 49.042 226.01<-80.7695 51.1504 51.1504 51.1504 605.021 735.97 -80.7695 735.97> 134.402 140.649<51.1504 605.021 605.021 605.021>
LayerCount: 2
Fore
SplineSet
134.40234375 605.020507812 m 1xd0
 49.0419921875 605.020507812 l 1
 49.0419921875 735.969726562 l 1
 275.051757812 735.969726562 l 1
 275.051757812 -80.76953125 l 1
 49.0419921875 -80.76953125 l 1
 49.0419921875 51.150390625 l 1xe0
 134.40234375 51.150390625 l 1
 134.40234375 605.020507812 l 1xd0
EndSplineSet
EndChar

StartChar: asciicircum
Encoding: 94 94 64
Width: 532
GlyphClass: 2
Flags: MW
HStem: 675.23 20G<214.326 328.988 328.988 328.988>
LayerCount: 2
Fore
SplineSet
214.326171875 695.23046875 m 1
 328.98828125 695.23046875 l 1
 502.055664062 263.580078125 l 1
 380.134765625 263.580078125 l 1
 271.657226562 540.69921875 l 1
 163.1796875 263.580078125 l 1
 41.2587890625 263.580078125 l 1
 214.326171875 695.23046875 l 1
EndSplineSet
EndChar

StartChar: underscore
Encoding: 95 95 65
Width: 503
GlyphClass: 2
Flags: MW
HStem: -116.66 98.9404<5.39258 510.762 5.39258 510.762>
LayerCount: 2
Fore
SplineSet
5.392578125 -17.7197265625 m 1
 510.76171875 -17.7197265625 l 1
 510.76171875 -116.66015625 l 1
 5.392578125 -116.66015625 l 1
 5.392578125 -17.7197265625 l 1
EndSplineSet
EndChar

StartChar: grave
Encoding: 96 96 66
Width: 503
GlyphClass: 2
Flags: MW
HStem: 571.07 149.38<268.521 276.505 113.525 397.806 268.521 268.521>
VStem: 113.525 284.28<571.07 720.45>
LayerCount: 2
Fore
SplineSet
113.525390625 720.450195312 m 1
 276.504882812 720.450195312 l 1
 397.805664062 571.0703125 l 1
 268.520507812 571.0703125 l 1
 113.525390625 720.450195312 l 1
EndSplineSet
EndChar

StartChar: a
Encoding: 97 97 67
Width: 505
GlyphClass: 2
Flags: MW
HStem: -5.11035 117.369<212.843 238.313> 216.049 102.821<223.156 242.555 242.555 319.669> 418.78 112.52<238.866 271.728>
VStem: 40.3115 136.768<152.83 175.745 152.83 186.036> 319.669 139.681<190.344 216.049 216.049 216.049>
AnchorPoint: "Anchor-0" 250 515 basechar 0
LayerCount: 2
Fore
SplineSet
250.317382812 531.299804688 m 0
 297.159179688 531.299804688 459.349609375 525.668945312 459.349609375 342.633789062 c 2
 459.349609375 0.708984375 l 1
 322.579101562 0.708984375 l 1
 322.579101562 31.1015625 l 1
 293.3125 6.7060546875 263.170898438 -5.1103515625 213.455078125 -5.1103515625 c 0
 159.928710938 -5.1103515625 116.87890625 9.3818359375 86.0595703125 39.5009765625 c 0
 55.2880859375 69.57421875 40.3115234375 111.095703125 40.3115234375 162.21484375 c 0
 40.3115234375 209.856445312 56.6376953125 248.849609375 89.443359375 277.118164062 c 0
 122.2265625 305.368164062 167.249023438 318.870117188 223.15625 318.870117188 c 2
 319.670898438 318.870117188 l 1
 319.670898438 348.455078125 l 2
 319.670898438 399.580078125 294.108398438 418.780273438 249.346679688 418.780273438 c 0
 228.385742188 418.780273438 213.081054688 413.599609375 202.118164062 404.241210938 c 0
 191.173828125 394.8984375 185.811523438 383.102539062 185.811523438 366.884765625 c 2
 185.811523438 353.790039062 l 1
 53.8916015625 353.790039062 l 1
 53.8916015625 367.85546875 l 2
 53.8916015625 417.619140625 72.0126953125 458.3046875 108.078125 487.779296875 c 0
 143.98828125 517.12890625 191.797851562 531.299804688 250.317382812 531.299804688 c 0
177.079101562 165.124023438 m 0
 177.079101562 140.536132812 185.072265625 112.258789062 240.614257812 112.258789062 c 0
 270.944335938 112.258789062 290.55859375 119.33984375 301.635742188 130.932617188 c 0
 313.010742188 142.836914062 319.668945312 162.05859375 319.668945312 190.34375 c 2
 319.668945312 216.048828125 l 1
 242.5546875 216.048828125 l 2
 183.143554688 216.048828125 177.079101562 186.366210938 177.079101562 165.124023438 c 0
EndSplineSet
Substitution2: "Single Substitution lookup 6 subtable" ordfeminine
Substitution2: "'aalt' Access All Alternates lookup 0 subtable" ordfeminine
EndChar

StartChar: b
Encoding: 98 98 68
Width: 519
GlyphClass: 2
Flags: MW
HStem: -5.10938 127.069<282.795 286.225 237.035 329.868> 404.23 127.069<280.508 281.785> 670.38 20G<57.7715 198.421 198.421 198.421>
VStem: 57.7715 137.74<0.709961 10.8945 10.8945 32.2861 0.709961 690.38> 341.012 140.65<217.505 308.686 308.686 313.535 177.996 326.882>
LayerCount: 2
Fore
SplineSet
300.756835938 531.299804688 m 0
 353.6171875 531.299804688 397.7578125 513.032226562 431.426757812 476.616210938 c 0
 465.569335938 439.686523438 481.662109375 384.7890625 481.662109375 313.53515625 c 2
 481.662109375 213.625 l 2
 481.662109375 142.366210938 465.563476562 87.33203125 431.458984375 50.0947265625 c 0
 397.913085938 13.46875 355.098632812 -5.109375 304.63671875 -5.109375 c 0
 260.953125 -5.109375 224.165039062 7.326171875 195.51171875 32.2861328125 c 1
 195.51171875 10.89453125 l 1
 195.51171875 0.7099609375 l 1
 57.771484375 0.7099609375 l 1
 57.771484375 690.379882812 l 1
 198.420898438 690.379882812 l 1
 198.420898438 491.196289062 l 1
 225.7734375 517.748046875 260.259765625 531.299804688 300.756835938 531.299804688 c 0
273.596679688 121.959960938 m 0
 298.852539062 121.959960938 341.01171875 129.026367188 341.01171875 217.504882812 c 2
 341.01171875 308.685546875 l 2
 341.01171875 345.078125 333.69921875 369.383789062 321.732421875 382.946289062 c 0
 309.240234375 397.104492188 292.883789062 404.23046875 270.686523438 404.23046875 c 0
 242.946289062 404.23046875 197.451171875 391.592773438 197.451171875 308.685546875 c 2
 197.451171875 217.504882812 l 2
 197.451171875 193.895507812 200.473632812 121.959960938 273.596679688 121.959960938 c 0
EndSplineSet
EndChar

StartChar: c
Encoding: 99 99 69
Width: 509
GlyphClass: 2
Flags: MW
HStem: -5.10938 127.069<252.919 272.05 252.919 295.795> 404.23 127.069<248.439 277.539>
VStem: 49.042 139.681<216.535 217.505 217.505 308.686 198.987 310.625 198.987 347.319> 337.132 134.83<185.495 201.5 155.627 201.5 321.78 337.785 337.785 341.665>
LayerCount: 2
Fore
SplineSet
265.836914062 121.959960938 m 0
 278.263671875 121.959960938 337.131835938 122.862304688 337.131835938 185.495117188 c 2
 337.131835938 201.5 l 1
 471.961914062 201.5 l 1
 471.961914062 184.525390625 l 2
 471.961914062 126.728515625 453.556640625 79.755859375 416.275390625 45.5810546875 c 0
 379.000976562 11.4130859375 327.693359375 -5.109375 263.897460938 -5.109375 c 0
 198.69921875 -5.109375 145.892578125 12.63671875 107.067382812 49.056640625 c 0
 67.7236328125 85.9619140625 49.0419921875 142.524414062 49.0419921875 216.53515625 c 2
 49.0419921875 310.625 l 2
 49.0419921875 384.012695312 67.74609375 440.249023438 107.067382812 477.133789062 c 0
 145.892578125 513.552734375 198.69921875 531.299804688 263.897460938 531.299804688 c 0
 327.673828125 531.299804688 378.958007812 514.95703125 416.237304688 481.12890625 c 0
 453.583007812 447.240234375 471.961914062 400.072265625 471.961914062 341.665039062 c 2
 471.961914062 321.780273438 l 1
 337.131835938 321.780273438 l 1
 337.131835938 337.78515625 l 2
 337.131835938 359.616210938 330.72265625 375.233398438 318.545898438 386.598632812 c 0
 306.28515625 398.041992188 289.241210938 404.23046875 265.836914062 404.23046875 c 0
 231.041015625 404.23046875 188.72265625 392.159179688 188.72265625 308.685546875 c 2
 188.72265625 217.504882812 l 2
 188.72265625 180.46875 196.364257812 156.177734375 208.75390625 142.998046875 c 0
 221.643554688 129.28515625 240.001953125 121.959960938 265.836914062 121.959960938 c 0
EndSplineSet
EndChar

StartChar: d
Encoding: 100 100 70
Width: 518
GlyphClass: 2
Flags: MW
HStem: -5.10938 127.069<244.487 247.809> 404.23 127.069<246.051 246.621 199.276 290.825> 670.38 20G<332.283 471.963 471.963 471.963>
VStem: 49.042 140.65<213.625 217.505 217.505 308.686 173.258 313.535 173.258 349.137> 332.283 139.68<491.025 690.38 0.709961 690.38>
LayerCount: 2
Fore
SplineSet
49.0419921875 213.625 m 2
 49.0419921875 313.53515625 l 2
 49.0419921875 384.739257812 64.60546875 439.5546875 97.7158203125 476.498046875 c 0
 130.391601562 512.956054688 173.454101562 531.299804688 225.098632812 531.299804688 c 0
 268.142578125 531.299804688 304.297851562 517.793945312 332.283203125 491.025390625 c 1
 332.283203125 690.379882812 l 1
 471.962890625 690.379882812 l 1
 471.962890625 0.7099609375 l 1
 334.223632812 0.7099609375 l 1
 334.223632812 32.0009765625 l 1
 306.029296875 7.2197265625 269.55078125 -5.109375 226.067382812 -5.109375 c 0
 175 -5.109375 131.986328125 13.443359375 98.7255859375 50.1337890625 c 0
 64.96484375 87.375 49.0419921875 142.3828125 49.0419921875 213.625 c 2
257.107421875 121.959960938 m 0
 273.662109375 121.959960938 332.282226562 123.727539062 332.282226562 217.504882812 c 2
 332.282226562 308.685546875 l 2
 332.282226562 347.7421875 321.631835938 404.23046875 260.017578125 404.23046875 c 0
 232.084960938 404.23046875 189.692382812 395.756835938 189.692382812 308.685546875 c 2
 189.692382812 217.504882812 l 2
 189.692382812 129.01171875 231.8671875 121.959960938 257.107421875 121.959960938 c 0
EndSplineSet
EndChar

StartChar: e
Encoding: 101 101 71
Width: 521
GlyphClass: 2
Flags: MW
HStem: -5.11035 124.159<260.877 292.949 260.877 302.189> 217.021 102.819<188.723 342.952 188.824 342.952 188.824 483.603> 408.11 123.188<253.534 286.484>
VStem: 49.042 139.681<195.523 294.134 195.523 332.739> 342.952 140.65<217.021 322.266 217.021 357.719>
AnchorPoint: "Anchor-0" 265 515 basechar 0
LayerCount: 2
Fore
SplineSet
188.72265625 217.020507812 m 1
 188.72265625 213.625 l 2
 188.72265625 177.420898438 196.989257812 153.749023438 210.814453125 140.455078125 c 0
 225.215820312 126.607421875 246.217773438 119.048828125 275.537109375 119.048828125 c 0
 310.360351562 119.048828125 341.3203125 130.033203125 344.0390625 168.10546875 c 1
 347.734375 179.189453125 l 1
 479.72265625 179.189453125 l 1
 479.72265625 164.154296875 l 2
 479.72265625 113.603515625 460.517578125 71.8359375 422.629882812 40.837890625 c 0
 384.735351562 9.833984375 333.690429688 -5.1103515625 270.6875 -5.1103515625 c 0
 204.05078125 -5.1103515625 149.715820312 14.216796875 109.350585938 53.5556640625 c 0
 68.4892578125 93.37890625 49.0419921875 153.8828125 49.0419921875 233.024414062 c 2
 49.0419921875 294.133789062 l 2
 49.0419921875 371.34375 67.8466796875 431.061523438 107.22265625 471.474609375 c 0
 146.330078125 511.610351562 200.140625 531.298828125 266.807617188 531.298828125 c 0
 332.260742188 531.298828125 385.569335938 511.383789062 424.935546875 470.990234375 c 0
 464.59765625 430.293945312 483.602539062 370.739257812 483.602539062 294.134765625 c 2
 483.602539062 217.020507812 l 1
 188.72265625 217.020507812 l 1
342.952148438 322.265625 m 2
 342.952148438 393.172851562 306.161132812 408.110351562 266.807617188 408.110351562 c 0
 240.260742188 408.110351562 221.591796875 400.73046875 208.75390625 387.072265625 c 0
 197.194335938 374.775390625 189.767578125 352.806640625 188.82421875 319.83984375 c 1
 342.952148438 319.83984375 l 1
 342.952148438 322.265625 l 2
EndSplineSet
EndChar

StartChar: f
Encoding: 102 102 72
Width: 341
GlyphClass: 2
Flags: MW
HStem: 0.709961 21G<93.6621 233.342 93.6621 93.6621> 420.72 104.761<40.3125 93.6621 40.3125 93.6621 233.342 323.552> 588.53 101.85<259.744 273.598 273.598 323.552>
VStem: 93.6621 139.68<0.709961 420.72 0.709961 420.72 525.48 545.365 545.365 550.215 0.709961 567.665>
LayerCount: 2
Fore
SplineSet
273.59765625 588.530273438 m 2
 245.890625 588.530273438 233.341796875 578.124023438 233.341796875 550.21484375 c 2
 233.341796875 525.48046875 l 1
 323.551757812 525.48046875 l 1
 323.551757812 420.719726562 l 1
 233.341796875 420.719726562 l 1
 233.341796875 0.7099609375 l 1
 93.662109375 0.7099609375 l 1
 93.662109375 420.719726562 l 1
 40.3125 420.719726562 l 1
 40.3125 525.48046875 l 1
 93.662109375 525.48046875 l 1
 93.662109375 545.365234375 l 2
 93.662109375 589.96484375 106.494140625 626.171875 133.120117188 652.087890625 c 0
 159.765625 678.022460938 197.15234375 690.379882812 243.52734375 690.379882812 c 2
 323.551757812 690.379882812 l 1
 323.551757812 588.530273438 l 1
 273.59765625 588.530273438 l 2
EndSplineSet
EndChar

StartChar: g
Encoding: 103 103 73
Width: 518
GlyphClass: 2
Flags: MW
HStem: -158.37 115.431<251.332 280.114 251.332 290.046> 39.5098 127.07<244.49 247.809> 404.23 127.069<246.054 246.621 199.276 290.828>
VStem: 49.042 140.653<258.245 262.125 262.125 308.686 217.878 313.535 217.878 349.137> 332.285 139.678<262.125 308.686 308.686 328.214>
LayerCount: 2
Fore
SplineSet
261.958007812 -42.939453125 m 0
 298.26953125 -42.939453125 334.223632812 -29.5234375 334.223632812 39.9951171875 c 2
 334.223632812 76.62109375 l 1
 306.029296875 51.83984375 269.55078125 39.509765625 226.067382812 39.509765625 c 0
 175 39.509765625 131.986328125 58.0634765625 98.7255859375 94.75390625 c 0
 64.96484375 131.995117188 49.0419921875 187.002929688 49.0419921875 258.245117188 c 2
 49.0419921875 313.53515625 l 2
 49.0419921875 384.739257812 64.60546875 439.5546875 97.7158203125 476.498046875 c 0
 130.391601562 512.956054688 173.454101562 531.299804688 225.098632812 531.299804688 c 0
 268.142578125 531.299804688 304.297851562 517.793945312 332.283203125 491.025390625 c 1
 332.283203125 525.48046875 l 1
 471.962890625 525.48046875 l 1
 471.962890625 47.7548828125 l 2
 471.962890625 -14.46484375 453.017578125 -65.1904296875 414.559570312 -102.618164062 c 0
 376.040039062 -140.10546875 322.984375 -158.370117188 257.108398438 -158.370117188 c 0
 196.83203125 -158.370117188 148.61328125 -145.157226562 113.536132812 -117.373046875 c 0
 78.517578125 -89.6357421875 59.2578125 -50.6865234375 55.8603515625 -2.439453125 c 2
 55.091796875 8.4697265625 l 1
 189.733398438 8.4697265625 l 1
 193.01953125 -7.302734375 195.428710938 -18.8671875 212.838867188 -30.6103515625 c 0
 224.565429688 -38.5185546875 240.705078125 -42.939453125 261.958007812 -42.939453125 c 0
257.110351562 166.580078125 m 0
 273.665039062 166.580078125 332.28515625 168.34765625 332.28515625 262.125 c 2
 332.28515625 308.685546875 l 2
 332.28515625 347.7421875 321.634765625 404.23046875 260.020507812 404.23046875 c 0
 232.087890625 404.23046875 189.6953125 395.756835938 189.6953125 308.685546875 c 2
 189.6953125 262.125 l 2
 189.6953125 173.631835938 231.870117188 166.580078125 257.110351562 166.580078125 c 0
EndSplineSet
EndChar

StartChar: h
Encoding: 104 104 74
Width: 523
GlyphClass: 2
Flags: MW
HStem: 0.709961 21G<57.7725 198.422 57.7725 57.7725 337.132 477.782 337.132 337.132> 404.23 127.069<278.281 279.599> 670.38 20G<57.7725 198.422 198.422 198.422>
VStem: 57.7725 140.649<0.709961 325.175 494.712 690.38> 337.132 140.65<0.709961 325.175 325.175 338.935>
LayerCount: 2
Fore
SplineSet
198.421875 494.711914062 m 1
 216.772460938 509.930664062 251.92578125 531.299804688 304.63671875 531.299804688 c 0
 358.502929688 531.299804688 401.84765625 514.381835938 432.53125 479.862304688 c 0
 463.08984375 445.483398438 477.782226562 398.2890625 477.782226562 339.725585938 c 2
 477.782226562 0.7099609375 l 1
 337.131835938 0.7099609375 l 1
 337.131835938 325.174804688 l 2
 337.131835938 352.6953125 330.419921875 371.974609375 318.541992188 384.663085938 c 0
 306.4296875 397.600585938 290.451171875 404.23046875 268.747070312 404.23046875 c 0
 247.836914062 404.23046875 231.549804688 397.534179688 218.30859375 384.01171875 c 0
 205.4453125 370.874023438 198.421875 351.8515625 198.421875 325.174804688 c 2
 198.421875 0.7099609375 l 1
 57.7724609375 0.7099609375 l 1
 57.7724609375 690.379882812 l 1
 198.421875 690.379882812 l 1
 198.421875 494.711914062 l 1
EndSplineSet
EndChar

StartChar: i
Encoding: 105 105 75
Width: 251
GlyphClass: 2
Flags: MW
HStem: 0.709961 21G<62.6221 202.302 62.6221 62.6221> 505.48 20G<62.6221 202.302 202.302 202.302> 573.98 116.399<60.6826 203.272 60.6826 203.272>
VStem: 62.6221 139.68<0.709961 525.48 0.709961 525.48>
AnchorPoint: "Anchor-0" 131 515 basechar 0
LayerCount: 2
Fore
SplineSet
62.6220703125 525.48046875 m 1
 202.301757812 525.48046875 l 1
 202.301757812 0.7099609375 l 1
 62.6220703125 0.7099609375 l 1
 62.6220703125 525.48046875 l 1
60.6826171875 690.379882812 m 1
 203.272460938 690.379882812 l 1
 203.272460938 573.98046875 l 1
 60.6826171875 573.98046875 l 1
 60.6826171875 690.379882812 l 1
EndSplineSet
EndChar

StartChar: j
Encoding: 106 106 76
Width: 251
GlyphClass: 2
Flags: MW
HStem: -150.609 124.159<-26.6182 24.3076 24.3076 35.9268 -26.6182 39.8271 -26.6182 24.3076> 505.48 20G<62.6221 202.302 202.302 202.302> 573.98 116.399<59.7119 202.302 59.7119 202.302>
VStem: 62.6221 139.68<20.5947 525.48>
LayerCount: 2
Fore
SplineSet
59.7119140625 690.379882812 m 1
 202.301757812 690.379882812 l 1
 202.301757812 573.98046875 l 1
 59.7119140625 573.98046875 l 1
 59.7119140625 690.379882812 l 1
24.3076171875 -26.4501953125 m 2
 47.5458984375 -26.4501953125 62.6220703125 -18.4912109375 62.6220703125 20.5947265625 c 2
 62.6220703125 525.48046875 l 1
 202.301757812 525.48046875 l 1
 202.301757812 12.8349609375 l 2
 202.301757812 -38.1044921875 188.452148438 -78.9501953125 159.547851562 -107.85546875 c 0
 130.672851562 -136.73046875 90.1552734375 -150.609375 39.8271484375 -150.609375 c 2
 -26.6181640625 -150.609375 l 1
 -26.6181640625 -26.4501953125 l 1
 24.3076171875 -26.4501953125 l 2
EndSplineSet
EndChar

StartChar: k
Encoding: 107 107 77
Width: 523
GlyphClass: 2
Flags: MW
HStem: 0.709961 21G<57.7725 198.422 57.7725 57.7725 354.949 524.544 354.949 354.949> 505.48 20G<346.218 515.976 515.976 515.976> 670.38 20G<57.7725 198.422 198.422 198.422>
VStem: 57.7725 140.649<0.709961 156.503 335.457 690.38>
LayerCount: 2
Fore
SplineSet
354.94921875 0.7099609375 m 1
 239.848632812 204.708984375 l 1
 198.421875 156.502929688 l 1
 198.421875 0.7099609375 l 1
 57.7724609375 0.7099609375 l 1
 57.7724609375 690.379882812 l 1
 198.421875 690.379882812 l 1
 198.421875 335.45703125 l 1
 346.217773438 525.48046875 l 1
 515.975585938 525.48046875 l 1
 333.680664062 313.485351562 l 1
 524.543945312 0.7099609375 l 1
 354.94921875 0.7099609375 l 1
EndSplineSet
EndChar

StartChar: l
Encoding: 108 108 78
Width: 295
GlyphClass: 2
Flags: MW
HStem: 0.709961 124.16<196.051 286.692 235.768 286.692 235.768 286.692> 670.38 20G<57.7725 198.422 198.422 198.422>
VStem: 57.7725 140.649<164.155 171.915 171.915 690.38>
LayerCount: 2
Fore
SplineSet
57.7724609375 164.155273438 m 2
 57.7724609375 690.379882812 l 1
 198.421875 690.379882812 l 1
 198.421875 171.915039062 l 2
 198.421875 152.217773438 202.29296875 140.078125 207.147460938 134.37890625 c 0
 211.911132812 128.788085938 220.555664062 124.870117188 235.767578125 124.870117188 c 2
 286.692382812 124.870117188 l 1
 286.692382812 0.7099609375 l 1
 221.216796875 0.7099609375 l 2
 170.884765625 0.7099609375 130.237304688 14.591796875 101.055664062 43.4208984375 c 0
 71.8076171875 72.3154296875 57.7724609375 113.188476562 57.7724609375 164.155273438 c 2
EndSplineSet
EndChar

StartChar: m
Encoding: 109 109 79
Width: 805
GlyphClass: 2
Flags: MW
HStem: 0.709961 21G<57.7725 198.422 57.7725 57.7725 337.132 477.782 337.132 337.132 616.492 757.143 616.492 616.492> 404.23 127.069<274.358 279.234 548.758 558.595>
VStem: 57.7725 140.649<0.709961 325.175 0.709961 525.48> 337.132 140.65<0.709961 325.175 325.175 328.085 0.709961 338.914> 616.492 140.65<0.709961 325.175 325.175 338.914>
LayerCount: 2
Fore
SplineSet
195.51171875 493.159179688 m 1
 204.41796875 500.333984375 244.080078125 531.299804688 304.63671875 531.299804688 c 0
 359.1875 531.299804688 403.190429688 512.004882812 434.583007812 473.642578125 c 1
 473.657226562 511.872070312 521.278320312 531.299804688 576.237304688 531.299804688 c 0
 631.977539062 531.299804688 677.000976562 514.290039062 709.310546875 479.547851562 c 0
 741.51953125 444.915039062 757.142578125 397.784179688 757.142578125 339.725585938 c 2
 757.142578125 0.7099609375 l 1
 616.4921875 0.7099609375 l 1
 616.4921875 325.174804688 l 2
 616.4921875 352.653320312 609.65625 371.877929688 597.49609375 384.579101562 c 0
 584.974609375 397.657226562 569.08203125 404.23046875 548.107421875 404.23046875 c 0
 525.794921875 404.23046875 509.369140625 397.31640625 496.924804688 383.764648438 c 0
 484.366210938 370.08984375 477.782226562 352.021484375 477.782226562 328.084960938 c 2
 477.782226562 0.7099609375 l 1
 337.131835938 0.7099609375 l 1
 337.131835938 325.174804688 l 2
 337.131835938 352.653320312 330.295898438 371.877929688 318.135742188 384.579101562 c 0
 305.614257812 397.657226562 289.721679688 404.23046875 268.747070312 404.23046875 c 0
 247.107421875 404.23046875 230.732421875 397.48046875 217.900390625 384.090820312 c 0
 205.325195312 370.96875 198.421875 351.896484375 198.421875 325.174804688 c 2
 198.421875 0.7099609375 l 1
 57.7724609375 0.7099609375 l 1
 57.7724609375 525.48046875 l 1
 195.51171875 525.48046875 l 1
 195.51171875 493.159179688 l 1
EndSplineSet
EndChar

StartChar: n
Encoding: 110 110 80
Width: 523
GlyphClass: 2
Flags: MW
HStem: 0.709961 21G<57.7725 198.422 57.7725 57.7725 337.132 477.782 337.132 337.132> 404.23 127.069<276.438 279.57>
VStem: 57.7725 140.649<0.709961 325.175 0.709961 525.48> 337.132 140.65<0.709961 325.175 325.175 338.58>
AnchorPoint: "Anchor-0" 267 515 basechar 0
LayerCount: 2
Fore
SplineSet
195.51171875 493.654296875 m 1
 210.647460938 506.104492188 248.240234375 531.299804688 304.63671875 531.299804688 c 0
 358.530273438 531.299804688 401.893554688 514.192382812 432.565429688 479.338867188 c 0
 463.064453125 444.680664062 477.782226562 397.672851562 477.782226562 339.725585938 c 2
 477.782226562 0.7099609375 l 1
 337.131835938 0.7099609375 l 1
 337.131835938 325.174804688 l 2
 337.131835938 351.985351562 330.474609375 371.16015625 318.46875 384.256835938 c 0
 306.333984375 397.494140625 290.393554688 404.23046875 268.747070312 404.23046875 c 0
 247.836914062 404.23046875 231.549804688 397.534179688 218.30859375 384.01171875 c 0
 205.4453125 370.874023438 198.421875 351.8515625 198.421875 325.174804688 c 2
 198.421875 0.7099609375 l 1
 57.7724609375 0.7099609375 l 1
 57.7724609375 525.48046875 l 1
 195.51171875 525.48046875 l 1
 195.51171875 493.654296875 l 1
EndSplineSet
EndChar

StartChar: o
Encoding: 111 111 81
Width: 514
GlyphClass: 2
Flags: MW
HStem: -5.10938 127.069<247.519 279.279 247.519 296.185> 404.23 127.069<247.524 279.278>
VStem: 49.042 139.681<216.535 217.505 217.505 308.686 175.236 310.625 175.236 347.319> 337.132 139.681<217.505 308.686 308.686 310.625 179.539 351.479>
AnchorPoint: "Anchor-0" 263 515 basechar 0
LayerCount: 2
Fore
SplineSet
49.0419921875 216.53515625 m 2
 49.0419921875 310.625 l 2
 49.0419921875 384.012695312 67.74609375 440.249023438 107.067382812 477.133789062 c 0
 145.892578125 513.552734375 198.69921875 531.299804688 263.897460938 531.299804688 c 0
 328.471679688 531.299804688 380.8125 513.533203125 419.305664062 477.102539062 c 0
 458.287109375 440.208984375 476.8125 383.995117188 476.8125 310.625 c 2
 476.8125 216.53515625 l 2
 476.8125 142.541992188 458.309570312 86.001953125 419.305664062 49.087890625 c 0
 380.8125 12.6572265625 328.471679688 -5.109375 263.897460938 -5.109375 c 0
 198.69921875 -5.109375 145.892578125 12.63671875 107.067382812 49.056640625 c 0
 67.7236328125 85.9619140625 49.0419921875 142.524414062 49.0419921875 216.53515625 c 2
263.897460938 121.959960938 m 0
 294.661132812 121.959960938 337.131835938 131.918945312 337.131835938 217.504882812 c 2
 337.131835938 308.685546875 l 2
 337.131835938 394.272460938 294.659179688 404.23046875 263.897460938 404.23046875 c 0
 231.150390625 404.23046875 188.72265625 393.231445312 188.72265625 308.685546875 c 2
 188.72265625 217.504882812 l 2
 188.72265625 132.967773438 231.140625 121.959960938 263.897460938 121.959960938 c 0
EndSplineSet
Substitution2: "Single Substitution lookup 6 subtable" ordmasculine
Substitution2: "'aalt' Access All Alternates lookup 0 subtable" ordmasculine
EndChar

StartChar: p
Encoding: 112 112 82
Width: 519
GlyphClass: 2
Flags: MW
HStem: -5.10938 127.069<283.417 286.225 237.035 329.868> 404.23 127.069<280.231 281.785>
VStem: 57.7725 140.649<-150.609 31.3008 -150.609 525.48> 341.012 140.65<217.505 308.686 308.686 313.535 177.996 326.882>
LayerCount: 2
Fore
SplineSet
57.7724609375 525.48046875 m 1
 195.51171875 525.48046875 l 1
 195.51171875 490.251953125 l 1
 224.283203125 517.41015625 259.705078125 531.299804688 300.756835938 531.299804688 c 0
 353.6171875 531.299804688 397.7578125 513.032226562 431.426757812 476.616210938 c 0
 465.569335938 439.686523438 481.662109375 384.7890625 481.662109375 313.53515625 c 2
 481.662109375 213.625 l 2
 481.662109375 142.366210938 465.563476562 87.33203125 431.458984375 50.0947265625 c 0
 397.913085938 13.46875 355.098632812 -5.109375 304.63671875 -5.109375 c 0
 262.198242188 -5.109375 226.38671875 7.005859375 198.421875 31.30078125 c 1
 198.421875 -150.609375 l 1
 57.7724609375 -150.609375 l 1
 57.7724609375 525.48046875 l 1
273.596679688 121.959960938 m 0
 298.852539062 121.959960938 341.01171875 129.026367188 341.01171875 217.504882812 c 2
 341.01171875 308.685546875 l 2
 341.01171875 345.078125 333.69921875 369.383789062 321.732421875 382.946289062 c 0
 309.240234375 397.104492188 292.883789062 404.23046875 270.686523438 404.23046875 c 0
 242.946289062 404.23046875 197.451171875 391.592773438 197.451171875 308.685546875 c 2
 197.451171875 217.504882812 l 2
 197.451171875 193.895507812 200.473632812 121.959960938 273.596679688 121.959960938 c 0
EndSplineSet
EndChar

StartChar: q
Encoding: 113 113 83
Width: 518
GlyphClass: 2
Flags: MW
HStem: -5.10938 127.069<244.487 247.287> 404.23 127.069<246.051 249.831 202.548 290.825>
VStem: 49.042 140.65<213.625 217.505 217.505 308.686 173.258 313.535 173.258 349.154> 332.282 139.68<-150.609 31.3008 31.3008 31.3008 217.505 308.686 308.686 328.214>
LayerCount: 2
Fore
SplineSet
334.22265625 490.807617188 m 1
 334.22265625 525.48046875 l 1
 471.961914062 525.48046875 l 1
 471.961914062 -150.609375 l 1
 332.282226562 -150.609375 l 1
 332.282226562 31.30078125 l 1
 304.317382812 7.005859375 268.505859375 -5.109375 226.067382812 -5.109375 c 0
 175 -5.109375 131.986328125 13.443359375 98.7255859375 50.1337890625 c 0
 64.96484375 87.375 49.0419921875 142.3828125 49.0419921875 213.625 c 2
 49.0419921875 313.53515625 l 2
 49.0419921875 384.772460938 64.958984375 439.642578125 98.7578125 476.577148438 c 0
 132.11328125 513.028320312 176.118164062 531.299804688 228.977539062 531.299804688 c 0
 270.684570312 531.299804688 306.150390625 517.651367188 334.22265625 490.807617188 c 1
257.107421875 121.959960938 m 0
 273.662109375 121.959960938 332.282226562 123.727539062 332.282226562 217.504882812 c 2
 332.282226562 308.685546875 l 2
 332.282226562 347.7421875 321.631835938 404.23046875 260.017578125 404.23046875 c 0
 232.084960938 404.23046875 189.692382812 395.756835938 189.692382812 308.685546875 c 2
 189.692382812 217.504882812 l 2
 189.692382812 129.01171875 231.8671875 121.959960938 257.107421875 121.959960938 c 0
EndSplineSet
EndChar

StartChar: r
Encoding: 114 114 84
Width: 365
GlyphClass: 2
Flags: MW
HStem: 0.709961 21G<57.7725 198.422 57.7725 57.7725> 410.05 126.101<275.084 297.547> 505.48 20G<57.7725 195.512 195.512 195.512>
VStem: 57.7725 140.649<0.709961 313.535 0.709961 525.48>
LayerCount: 2
Fore
SplineSet
195.51171875 493.734375 m 1xb0
 211.6640625 510.853515625 245.53125 536.150390625 304.63671875 536.150390625 c 0
 317.478515625 536.150390625 328.017578125 536.150390625 355.5625 530.350585938 c 1
 355.5625 395.685546875 l 1
 330.935546875 403.42578125 309.856445312 410.049804688 285.237304688 410.049804688 c 0xd0
 258.357421875 410.049804688 237.939453125 401.790039062 222.241210938 385.520507812 c 0
 206.797851562 369.515625 198.421875 346.098632812 198.421875 313.53515625 c 2
 198.421875 0.7099609375 l 1
 57.7724609375 0.7099609375 l 1
 57.7724609375 525.48046875 l 1
 195.51171875 525.48046875 l 1
 195.51171875 493.734375 l 1xb0
EndSplineSet
EndChar

StartChar: s
Encoding: 115 115 85
Width: 478
GlyphClass: 2
Flags: MW
HStem: -5.10938 117.369<230.133 258.15 230.133 272.444> 416.84 114.46<234.326 257.113>
VStem: 40.3115 132.89<160.275 162.215 162.215 174.34 142.438 174.34> 319.671 134.831<150.426 167.234>
AnchorPoint: "Anchor-0" 245 515 basechar 0
LayerCount: 2
Fore
SplineSet
245.467773438 416.83984375 m 0
 223.184570312 416.83984375 179.993164062 411.909179688 179.993164062 373.674804688 c 0
 179.993164062 356.506835938 185.87890625 338.43359375 235.32421875 331.37109375 c 2
 294.4296875 322.650390625 l 2
 373.7890625 311.458984375 454.501953125 275.767578125 454.501953125 167.065429688 c 0
 454.501953125 112.723632812 434.342773438 69.2548828125 394.159179688 39.1171875 c 0
 354.48046875 9.3583984375 303.301757812 -5.109375 241.586914062 -5.109375 c 0
 182.390625 -5.109375 133.64453125 9.4091796875 96.4951171875 39.3349609375 c 0
 59.19140625 69.384765625 40.3115234375 110.38671875 40.3115234375 160.275390625 c 2
 40.3115234375 174.33984375 l 1
 173.201171875 174.33984375 l 1
 173.201171875 162.21484375 l 2
 173.201171875 122.662109375 214.799804688 112.259765625 245.465820312 112.259765625 c 0
 270.834960938 112.259765625 289.577148438 116.8515625 302.125 124.76171875 c 0
 314.05078125 132.28125 319.670898438 142.517578125 319.670898438 158.334960938 c 0
 319.670898438 176.1328125 314.086914062 193.952148438 256.421875 202.604492188 c 2
 203.041992188 211.338867188 l 2
 94.7255859375 229.392578125 47.1015625 278.1640625 47.1015625 364.9453125 c 0
 47.1015625 415.46484375 66.13671875 456.818359375 103.8046875 486.883789062 c 0
 141.163085938 516.702148438 188.752929688 531.299804688 245.465820312 531.299804688 c 0
 369.415039062 531.299804688 445.772460938 461.72265625 445.772460938 374.645507812 c 2
 445.772460938 358.640625 l 1
 313.852539062 358.640625 l 1
 313.852539062 371.735351562 l 2
 313.852539062 386.249023438 308.643554688 396.247070312 297.364257812 404.116210938 c 0
 285.818359375 412.171875 268.7578125 416.83984375 245.467773438 416.83984375 c 0
EndSplineSet
EndChar

StartChar: t
Encoding: 116 116 86
Width: 359
GlyphClass: 2
Flags: MW
HStem: 0.709961 122.22<235.116 326.462 278.447 326.462 278.447 326.462> 420.72 104.761<29.6426 99.4824 29.6426 99.4824 239.162 336.162>
VStem: 99.4824 139.68<156.396 164.155 164.155 420.72 525.48 621.466 621.466 621.466>
LayerCount: 2
Fore
SplineSet
239.162109375 164.155273438 m 2
 239.162109375 131.708984375 255.095703125 122.9296875 278.447265625 122.9296875 c 2
 326.461914062 122.9296875 l 1
 326.461914062 0.7099609375 l 1
 259.046875 0.7099609375 l 2
 211.185546875 0.7099609375 171.879882812 14.5234375 142.810546875 42.8916015625 c 0
 113.736328125 71.265625 99.482421875 109.698242188 99.482421875 156.395507812 c 2
 99.482421875 420.719726562 l 1
 29.642578125 420.719726562 l 1
 29.642578125 525.48046875 l 1
 99.482421875 525.48046875 l 1
 99.482421875 621.465820312 l 1
 239.162109375 670.296875 l 1
 239.162109375 525.48046875 l 1
 336.162109375 525.48046875 l 1
 336.162109375 420.719726562 l 1
 239.162109375 420.719726562 l 1
 239.162109375 164.155273438 l 2
EndSplineSet
EndChar

StartChar: u
Encoding: 117 117 87
Width: 523
GlyphClass: 2
Flags: MW
HStem: -5.10938 127.069<252.788 282.847 252.788 345.442> 505.48 20G<57.7725 198.422 198.422 198.422 337.132 477.782 477.782 477.782>
VStem: 57.7725 140.649<214.595 220.415 220.415 525.48> 337.132 140.65<220.415 525.48>
AnchorPoint: "Anchor-0" 267 515 basechar 0
LayerCount: 2
Fore
SplineSet
267.77734375 -5.109375 m 0
 155.044921875 -5.109375 57.7724609375 44.2451171875 57.7724609375 214.594726562 c 2
 57.7724609375 525.48046875 l 1
 198.421875 525.48046875 l 1
 198.421875 220.415039062 l 2
 198.421875 185.799804688 203.794921875 160.520507812 213.063476562 144.512695312 c 0
 221.200195312 130.458007812 237.797851562 121.959960938 267.77734375 121.959960938 c 0
 297.916992188 121.959960938 314.610351562 130.166015625 322.615234375 143.265625 c 0
 331.642578125 158.038085938 337.131835938 183.771484375 337.131835938 220.415039062 c 2
 337.131835938 525.48046875 l 1
 477.782226562 525.48046875 l 1
 477.782226562 214.594726562 l 2
 477.782226562 86.130859375 423.107421875 -5.109375 267.77734375 -5.109375 c 0
EndSplineSet
EndChar

StartChar: v
Encoding: 118 118 88
Width: 485
GlyphClass: 2
Flags: MW
HStem: 0.709961 21G<191.652 305.089 191.652 191.652> 505.48 20G<10.002 158.913 158.913 158.913 338.789 487.749 487.749 487.749>
LayerCount: 2
Fore
SplineSet
10.001953125 525.48046875 m 1
 158.913085938 525.48046875 l 1
 249.298828125 230.162109375 l 1
 338.7890625 525.48046875 l 1
 487.749023438 525.48046875 l 1
 305.088867188 0.7099609375 l 1
 191.65234375 0.7099609375 l 1
 10.001953125 525.48046875 l 1
EndSplineSet
EndChar

StartChar: w
Encoding: 119 119 89
Width: 734
GlyphClass: 2
Flags: MW
HStem: 0.709961 21G<164.111 281.18 164.111 164.111 462.946 579.979 462.946 462.946> 505.48 20G<10.7168 159.366 159.366 159.366 319.389 424.715 424.715 424.715 584.738 734.383 734.383 734.383>
LayerCount: 2
Fore
SplineSet
10.716796875 525.48046875 m 1
 159.366210938 525.48046875 l 1
 230.978515625 233.7265625 l 1
 319.388671875 525.48046875 l 1
 424.71484375 525.48046875 l 1
 513.125976562 233.7265625 l 1
 584.73828125 525.48046875 l 1
 734.3828125 525.48046875 l 1
 579.979492188 0.7099609375 l 1
 462.946289062 0.7099609375 l 1
 371.615234375 302.461914062 l 1
 281.1796875 0.7099609375 l 1
 164.111328125 0.7099609375 l 1
 10.716796875 525.48046875 l 1
EndSplineSet
EndChar

StartChar: x
Encoding: 120 120 90
Width: 463
GlyphClass: 2
Flags: MW
HStem: 0.709961 21G<6.59375 156.567 6.59375 6.59375 321.107 469.772 321.107 321.107> 505.48 20G<15.3047 164.999 164.999 164.999 311.064 461.349 461.349 461.349>
LayerCount: 2
Fore
SplineSet
321.107421875 0.7099609375 m 1
 234.317382812 148.9765625 l 1
 156.567382812 0.7099609375 l 1
 6.59375 0.7099609375 l 1
 163.838867188 270.849609375 l 1
 15.3046875 525.48046875 l 1
 164.999023438 525.48046875 l 1
 242.064453125 392.856445312 l 1
 311.064453125 525.48046875 l 1
 461.348632812 525.48046875 l 1
 310.646484375 274.6484375 l 1
 469.772460938 0.7099609375 l 1
 321.107421875 0.7099609375 l 1
EndSplineSet
EndChar

StartChar: y
Encoding: 121 121 91
Width: 486
GlyphClass: 2
Flags: MW
HStem: -148.67 128.04<79.1123 127.127 127.127 131.007 79.1123 127.127> 505.48 20G<9.97949 158.871 158.871 158.871 343.747 488.727 488.727 488.727>
AnchorPoint: "Anchor-0" 249 515 basechar 0
LayerCount: 2
Fore
SplineSet
131.006835938 -148.669921875 m 2
 79.1123046875 -148.669921875 l 1
 79.1123046875 -20.6298828125 l 1
 127.126953125 -20.6298828125 l 2
 145.463867188 -20.6298828125 157.657226562 -17.205078125 164.328125 -12.375 c 0
 174.008789062 -5.365234375 180.40234375 10.369140625 184.346679688 24.173828125 c 1
 9.9794921875 525.48046875 l 1
 158.87109375 525.48046875 l 1
 250.411132812 232.012695312 l 1
 343.747070312 525.48046875 l 1
 488.7265625 525.48046875 l 1
 292.911132812 -36.1240234375 l 2
 265.350585938 -114.671875 214.302734375 -148.669921875 131.006835938 -148.669921875 c 2
EndSplineSet
EndChar

StartChar: z
Encoding: 122 122 92
Width: 459
GlyphClass: 2
Flags: MW
HStem: 0.709961 121.25<210.337 423.462 210.337 423.462> 404.23 121.25<49.042 423.462 49.042 262.167>
AnchorPoint: "Anchor-0" 235 515 basechar 0
LayerCount: 2
Fore
SplineSet
49.0419921875 404.23046875 m 1
 49.0419921875 525.48046875 l 1
 423.461914062 525.48046875 l 1
 423.461914062 411.068359375 l 1
 210.336914062 121.959960938 l 1
 423.461914062 121.959960938 l 1
 423.461914062 0.7099609375 l 1
 49.0419921875 0.7099609375 l 1
 49.0419921875 115.12109375 l 1
 262.166992188 404.23046875 l 1
 49.0419921875 404.23046875 l 1
EndSplineSet
EndChar

StartChar: braceleft
Encoding: 123 123 93
Width: 367
GlyphClass: 2
Flags: MW
HStem: -80.7695 117.37<230.417 331.312 287.177 331.312 287.177 331.312> 269.4 123.189<49.042 59.2275 49.042 59.2275> 621.51 117.37<278.191 287.177 287.177 331.312>
VStem: 122.762 133.86<55.9946 69.0947 69.0947 201.985 201.985 207.805 460.005 589.016>
LayerCount: 2
Fore
SplineSet
253.227539062 -80.76953125 m 2
 207.607421875 -80.76953125 122.76171875 -65.42578125 122.76171875 48.7255859375 c 2
 122.76171875 201.985351562 l 2
 122.76171875 227.956054688 117.302734375 244.938476562 108.865234375 254.368164062 c 0
 100.81640625 263.364257812 85.12109375 269.400390625 59.2275390625 269.400390625 c 2
 49.0419921875 269.400390625 l 1
 49.0419921875 392.58984375 l 1
 59.2275390625 392.58984375 l 2
 85.12109375 392.58984375 100.81640625 398.625976562 108.865234375 407.622070312 c 0
 117.302734375 417.051757812 122.76171875 434.034179688 122.76171875 460.004882812 c 2
 122.76171875 610.35546875 l 2
 122.76171875 650.30859375 133.7109375 682.625 156.84375 705.397460938 c 0
 179.966796875 728.159179688 212.697265625 738.879882812 253.227539062 738.879882812 c 2
 331.3125 738.879882812 l 1
 331.3125 621.509765625 l 1
 287.176757812 621.509765625 l 2
 269.205078125 621.509765625 256.622070312 615.211914062 256.622070312 589.015625 c 2
 256.622070312 454.185546875 l 2
 256.622070312 380.243164062 238.083984375 349.52734375 203.182617188 330.776367188 c 1
 239.061523438 310.954101562 256.622070312 280.146484375 256.622070312 207.8046875 c 2
 256.622070312 69.0947265625 l 2
 256.622070312 42.89453125 269.208984375 36.6005859375 287.176757812 36.6005859375 c 2
 331.3125 36.6005859375 l 1
 331.3125 -80.76953125 l 1
 253.227539062 -80.76953125 l 2
EndSplineSet
EndChar

StartChar: bar
Encoding: 124 124 94
Width: 303
GlyphClass: 2
Flags: MW
VStem: 92.6924 131.92<-80.7695 738.88 -80.7695 738.88>
LayerCount: 2
Fore
SplineSet
92.6923828125 738.879882812 m 1
 224.612304688 738.879882812 l 1
 224.612304688 -80.76953125 l 1
 92.6923828125 -80.76953125 l 1
 92.6923828125 738.879882812 l 1
EndSplineSet
EndChar

StartChar: braceright
Encoding: 125 125 95
Width: 367
GlyphClass: 2
Flags: MW
HStem: -80.7695 117.37<49.042 93.1777 93.1777 102.969 49.042 128.098 49.042 93.1777> 269.4 123.189<308.546 331.312 321.127 331.312> 621.51 117.37<49.042 93.1768 49.042 128.098>
VStem: 124.703 132.889<69.0947 201.985>
LayerCount: 2
Fore
SplineSet
257.591796875 48.7255859375 m 2
 257.591796875 1.173828125 241.185546875 -80.76953125 128.09765625 -80.76953125 c 2
 49.0419921875 -80.76953125 l 1
 49.0419921875 36.6005859375 l 1
 93.177734375 36.6005859375 l 2
 112.759765625 36.6005859375 124.703125 43.857421875 124.703125 69.0947265625 c 2
 124.703125 207.8046875 l 2
 124.703125 280.15625 142.270507812 310.958007812 178.142578125 330.776367188 c 1
 143.220703125 349.538085938 124.702148438 380.27734375 124.702148438 454.185546875 c 2
 124.702148438 589.015625 l 2
 124.702148438 614.250976562 112.759765625 621.509765625 93.1767578125 621.509765625 c 2
 49.0419921875 621.509765625 l 1
 49.0419921875 738.879882812 l 1
 128.09765625 738.879882812 l 2
 168.620117188 738.879882812 201.229492188 728.163085938 224.052734375 705.340820312 c 0
 246.837890625 682.555664062 257.591796875 650.274414062 257.591796875 610.35546875 c 2
 257.591796875 460.004882812 l 2
 257.591796875 434.07421875 263.177734375 417.173828125 271.874023438 407.731445312 c 0
 280.338867188 398.541992188 295.965820312 392.58984375 321.126953125 392.58984375 c 2
 331.3125 392.58984375 l 1
 331.3125 269.400390625 l 1
 321.126953125 269.400390625 l 2
 295.965820312 269.400390625 280.338867188 263.448242188 271.874023438 254.258789062 c 0
 263.177734375 244.81640625 257.591796875 227.916015625 257.591796875 201.985351562 c 2
 257.591796875 48.7255859375 l 2
EndSplineSet
EndChar

StartChar: asciitilde
Encoding: 126 126 96
Width: 532
GlyphClass: 2
Flags: MW
HStem: 189.86 120.28<342.178 364.056 342.178 368.135> 245.15 119.31<182.081 203.052>
LayerCount: 2
Fore
SplineSet
348.286132812 310.140625 m 0x80
 379.825195312 310.140625 392.892578125 334.344726562 410.099609375 368.758789062 c 1
 504.713867188 310.807617188 l 1
 494.870117188 288.125976562 477.823242188 248.841796875 439.315429688 219.576171875 c 0
 413.416992188 199.893554688 384.104492188 189.860351562 352.166015625 189.860351562 c 0x80
 326.03125 189.860351562 302.607421875 194.426757812 254.03515625 223.184570312 c 0
 216.938476562 243.270507812 209.137695312 245.150390625 196.965820312 245.150390625 c 0
 167.196289062 245.150390625 153.202148438 220.987304688 134.90625 186.682617188 c 1
 40.41796875 244.556640625 l 1
 50.748046875 267.368164062 68.47265625 306.510742188 106.438476562 335.241210938 c 0
 131.999023438 354.583984375 160.815429688 364.459960938 192.116210938 364.459960938 c 0x40
 220.075195312 364.459960938 242.561523438 359.341796875 290.190429688 332.134765625 c 0
 327.365234375 311.864257812 336.069335938 310.140625 348.286132812 310.140625 c 0x80
EndSplineSet
EndChar

StartChar: exclamdown
Encoding: 161 161 98
Width: 259
GlyphClass: 2
Flags: MW
HStem: 378.04 147.44<61.6523 211.032 61.6523 211.032>
VStem: 61.6523 149.38<378.04 525.48 378.04 525.48> 81.585 109.514<302.38 302.38>
LayerCount: 2
Fore
SplineSet
61.65234375 525.48046875 m 1xc0
 211.032226562 525.48046875 l 1
 211.032226562 378.040039062 l 1
 61.65234375 378.040039062 l 1
 61.65234375 525.48046875 l 1xc0
191.098632812 302.379882812 m 1xa0
 215.475585938 -150.609375 l 1
 57.208984375 -150.609375 l 1
 81.5849609375 302.379882812 l 1
 191.098632812 302.379882812 l 1xa0
EndSplineSet
EndChar

StartChar: cent
Encoding: 162 162 99
Width: 550
GlyphClass: 2
Flags: MW
HStem: -96.2881 218.252<252.919 272.05 252.919 324.522 246.922 272.05> 404.234 232.795<248.439 277.539>
VStem: 49.043 139.68<216.535 217.509 217.509 308.688 198.991 310.625 198.991 346.66> 246.922 77.6006<-96.2881 -4.74902 -4.74902 -4.74902 530.94 637.029> 337.132 134.83<185.499 201.504 159.981 201.504 321.78 337.789 337.789 341.665>
LayerCount: 2
Fore
SplineSet
324.522460938 525.630859375 m 1
 416.2265625 506.293945312 471.961914062 442.1171875 471.961914062 341.665039062 c 2
 471.961914062 321.780273438 l 1
 337.131835938 321.780273438 l 1
 337.131835938 337.7890625 l 2
 337.131835938 359.620117188 330.72265625 375.237304688 318.545898438 386.602539062 c 0
 306.28515625 398.045898438 289.241210938 404.234375 265.836914062 404.234375 c 0
 231.041015625 404.234375 188.72265625 392.163085938 188.72265625 308.688476562 c 2
 188.72265625 217.508789062 l 2
 188.72265625 180.47265625 196.364257812 156.181640625 208.75390625 143.001953125 c 0
 221.643554688 129.288085938 240.001953125 121.963867188 265.836914062 121.963867188 c 0
 278.263671875 121.963867188 337.131835938 122.866210938 337.131835938 185.499023438 c 2
 337.131835938 201.50390625 l 1
 471.961914062 201.50390625 l 1
 471.961914062 184.529296875 l 2
 471.961914062 135.432617188 458.384765625 93.8798828125 430.770507812 61.0888671875 c 0
 404.776367188 30.220703125 368.981445312 10.115234375 324.522460938 0.5849609375 c 1
 324.522460938 -96.2880859375 l 1
 246.921875 -96.2880859375 l 1
 246.921875 -4.7490234375 l 1
 188.2265625 -1.763671875 140.466796875 16.6298828125 104.994140625 51.125 c 0
 67.0517578125 88.0234375 49.04296875 143.842773438 49.04296875 216.53515625 c 2
 49.04296875 310.625 l 2
 49.04296875 382.6953125 67.0732421875 438.188476562 104.994140625 475.06640625 c 0
 140.466796875 509.561523438 188.2265625 527.955078125 246.921875 530.940429688 c 1
 246.921875 637.029296875 l 1
 324.522460938 637.029296875 l 1
 324.522460938 525.630859375 l 1
EndSplineSet
EndChar

StartChar: sterling
Encoding: 163 163 100
Width: 470
GlyphClass: 2
Flags: MW
HStem: 0.710938 129.979<217.108 254.815 217.108 453.532> 268.431 130.95<29.6426 89.7822 29.6426 89.7822 237.223 363.322> 572.041 128.04<268.738 293.308>
VStem: 89.7822 147.44<205.866 218.477 218.477 268.431 200.818 268.431 399.381 507.536 507.536 522.086>
LayerCount: 2
Fore
SplineSet
277.477539062 572.041015625 m 0
 259.998046875 572.041015625 237.22265625 563.999023438 237.22265625 522.0859375 c 2
 237.22265625 399.380859375 l 1
 363.322265625 399.380859375 l 1
 363.322265625 268.430664062 l 1
 237.22265625 268.430664062 l 1
 237.22265625 218.4765625 l 2
 237.22265625 183.159179688 230.805664062 153.642578125 217.108398438 130.690429688 c 1
 292.521484375 130.690429688 367.934570312 130.69140625 443.346679688 130.69140625 c 2
 453.532226562 130.69140625 l 1
 453.532226562 0.7109375 l 1
 47.1025390625 0.7109375 l 1
 47.1025390625 122.193359375 l 1
 69.7197265625 132.559570312 89.7822265625 141.779296875 89.7822265625 205.866210938 c 2
 89.7822265625 268.430664062 l 1
 29.642578125 268.430664062 l 1
 29.642578125 399.380859375 l 1
 89.7822265625 399.380859375 l 1
 89.7822265625 507.536132812 l 2
 89.7822265625 567.46484375 105.510742188 615.325195312 138.20703125 649.4140625 c 0
 170.952148438 683.553710938 217.38671875 700.081054688 275.537109375 700.081054688 c 0
 329.084960938 700.081054688 372.805664062 685.578125 405.153320312 655.6640625 c 0
 437.740234375 625.530273438 453.532226562 582.573242188 453.532226562 528.875976562 c 2
 453.532226562 518.69140625 l 1
 314.822265625 518.69140625 l 1
 314.822265625 528.875976562 l 2
 314.822265625 546.916992188 309.138671875 572.041015625 277.477539062 572.041015625 c 0
EndSplineSet
EndChar

StartChar: currency
Encoding: 164 164 101
Width: 596
GlyphClass: 2
Flags: MW
HStem: 109.351 115.43<290.682 317.01 290.682 321.862> 409.08 115.43<290.658 317.033>
VStem: 96.5723 118.341<304.006 330.825 304.006 334.472> 393.393 118.34<304.006 330.825>
LayerCount: 2
Fore
SplineSet
303.666992188 109.350585938 m 0
 267.27734375 109.350585938 233.755859375 117.560546875 203.525390625 134.002929688 c 1
 138.767578125 69.244140625 l 1
 53.556640625 154.455078125 l 1
 119.319335938 220.217773438 l 1
 104.09375 248.768554688 96.572265625 281.30859375 96.572265625 317.415039062 c 0
 96.572265625 351.529296875 104.555664062 384.008789062 120.379882812 414.521484375 c 1
 53.556640625 481.344726562 l 1
 138.767578125 566.555664062 l 1
 204.624023438 500.69921875 l 1
 235.271484375 516.55078125 268.404296875 524.509765625 303.666992188 524.509765625 c 0
 338.950195312 524.509765625 372.100585938 516.541992188 402.763671875 500.671875 c 1
 469.640625 566.55078125 l 1
 553.67578125 481.349609375 l 1
 487.896484375 414.57421875 l 1
 503.739257812 384.046875 511.732421875 351.548828125 511.732421875 317.415039062 c 0
 511.732421875 281.743164062 504.139648438 248.926757812 488.892578125 219.340820312 c 1
 554.748046875 153.485351562 l 1
 469.537109375 68.2744140625 l 1
 403.80859375 134.002929688 l 1
 373.579101562 117.560546875 340.057617188 109.350585938 303.666992188 109.350585938 c 0
393.392578125 317.415039062 m 0
 393.392578125 344.235351562 384.987304688 365.64453125 368.125 383.088867188 c 0
 351.34375 400.44921875 330.399414062 409.080078125 303.666992188 409.080078125 c 0
 277.6484375 409.080078125 257.009765625 400.499023438 240.180664062 383.088867188 c 0
 223.317382812 365.64453125 214.913085938 344.235351562 214.913085938 317.415039062 c 0
 214.913085938 290.596679688 223.323242188 268.986328125 240.239257812 251.1953125 c 0
 257.084960938 233.478515625 277.696289062 224.780273438 303.666992188 224.780273438 c 0
 330.352539062 224.780273438 351.268554688 233.529296875 368.06640625 251.1953125 c 0
 384.982421875 268.986328125 393.392578125 290.596679688 393.392578125 317.415039062 c 0
EndSplineSet
EndChar

StartChar: yen
Encoding: 165 165 102
Width: 500
GlyphClass: 2
Flags: MW
HStem: 0.709961 21G<182.902 330.342 182.902 182.902> 114.2 105.729<57.7725 182.902 57.7725 182.902 330.342 455.473> 252.91 105.73<57.7725 156.918 57.7725 182.902 57.7725 156.918 356.327 455.473> 670.38 20G<6.56738 160.257 160.257 160.257 353.864 506.677 506.677 506.677>
VStem: 182.902 147.439<0.709961 114.2 0.709961 114.2 219.93 252.91 0.709961 252.91>
LayerCount: 2
Fore
SplineSet
330.341796875 114.200195312 m 1
 330.341796875 0.7099609375 l 1
 182.90234375 0.7099609375 l 1
 182.90234375 114.200195312 l 1
 57.7724609375 114.200195312 l 1
 57.7724609375 219.9296875 l 1
 182.90234375 219.9296875 l 1
 182.90234375 252.91015625 l 1
 57.7724609375 252.91015625 l 1
 57.7724609375 358.640625 l 1
 156.91796875 358.640625 l 1
 6.5673828125 690.379882812 l 1
 160.256835938 690.379882812 l 1
 258.869140625 439.776367188 l 1
 353.864257812 690.379882812 l 1
 506.676757812 690.379882812 l 1
 356.327148438 358.640625 l 1
 455.47265625 358.640625 l 1
 455.47265625 252.91015625 l 1
 330.341796875 252.91015625 l 1
 330.341796875 219.9296875 l 1
 455.47265625 219.9296875 l 1
 455.47265625 114.200195312 l 1
 330.341796875 114.200195312 l 1
EndSplineSet
EndChar

StartChar: brokenbar
Encoding: 166 166 103
Width: 303
GlyphClass: 2
Flags: MW
VStem: 92.6924 131.92<-80.7695 282.98 -80.7695 282.98 377.07 738.88>
LayerCount: 2
Fore
SplineSet
92.6923828125 738.879882812 m 1
 224.612304688 738.879882812 l 1
 224.612304688 377.0703125 l 1
 92.6923828125 377.0703125 l 1
 92.6923828125 738.879882812 l 1
92.6923828125 282.98046875 m 1
 224.612304688 282.98046875 l 1
 224.612304688 -80.76953125 l 1
 92.6923828125 -80.76953125 l 1
 92.6923828125 282.98046875 l 1
EndSplineSet
EndChar

StartChar: section
Encoding: 167 167 104
Width: 515
GlyphClass: 2
Flags: MW
HStem: -162.25 119.31<244.325 269.354 244.325 287.453> 596.288 119.312<251.534 280.544>
VStem: 62.623 135.799<263.42 295.484> 76.2021 129.98<14.7744 24.959 -9.09717 24.959> 83.9619 135.8<539.039 563.136 539.039 595.143> 309.003 135.799<-15.519 14.6636> 317.733 129.01<529.358 539.543 529.358 563.459> 327.434 136.769<266.167 291.293>
LayerCount: 2
Fore
SplineSet
388.510742188 130.493164062 m 1xc9
 419.721679688 108.110351562 444.801757812 75.4921875 444.801757812 1.1953125 c 0
 444.801757812 -45.978515625 427.715820312 -85.7578125 393.930664062 -116.440429688 c 0
 360.016601562 -147.240234375 314.887695312 -162.25 260.017578125 -162.25 c 0
 202.061523438 -162.25 156.086914062 -147.194335938 123.88671875 -115.694335938 c 0
 91.7529296875 -84.259765625 76.2021484375 -40.140625 76.2021484375 14.7744140625 c 2
 76.2021484375 24.958984375 l 1
 206.182617188 24.958984375 l 1
 206.182617188 14.7744140625 l 2xd4
 206.182617188 -32.96875 230.573242188 -42.9404296875 258.077148438 -42.9404296875 c 0
 280.629882812 -42.9404296875 309.002929688 -35.142578125 309.002929688 4.1044921875 c 0
 309.002929688 25.22265625 302.666992188 40.0849609375 290.6015625 50.810546875 c 0
 278.307617188 61.7373046875 252.143554688 73.67578125 212.649414062 84.50390625 c 0
 120.904296875 110.192382812 62.623046875 166.967773438 62.623046875 277.643554688 c 0xe4
 62.623046875 313.325195312 71.873046875 383.229492188 137.956054688 427.350585938 c 1
 123.920898438 437.599609375 83.9619140625 468.180664062 83.9619140625 550.213867188 c 0
 83.9619140625 640.071289062 152.129882812 715.599609375 265.837890625 715.599609375 c 0
 323.823242188 715.599609375 369.452148438 700.1875 400.712890625 667.873046875 c 0
 431.663085938 635.879882812 446.743164062 592.547851562 446.743164062 539.54296875 c 2
 446.743164062 529.358398438 l 1
 317.733398438 529.358398438 l 1
 317.733398438 539.54296875 l 2xca
 317.733398438 587.375976562 293.309570312 596.288085938 267.778320312 596.288085938 c 0
 235.2890625 596.288085938 219.76171875 577.029296875 219.76171875 549.243164062 c 0
 219.76171875 528.833984375 226.010742188 514.963867188 237.864257812 505.219726562 c 0
 250.305664062 494.990234375 275.940429688 483.557617188 314.17578125 472.724609375 c 0
 405.920898438 447.03515625 464.202148438 390.260742188 464.202148438 279.584960938 c 0
 464.202148438 244.358398438 456.01953125 212.404296875 439.533203125 184.241210938 c 0
 426.279296875 161.598632812 409.192382812 143.547851562 388.510742188 130.493164062 c 1xc9
198.421875 278.614257812 m 0xe1
 198.421875 248.225585938 207.91796875 203.439453125 263.897460938 203.439453125 c 0
 284.893554688 203.439453125 299.677734375 209.977539062 310.458007812 222.64453125 c 0
 321.3984375 235.5 327.43359375 253.719726562 327.43359375 278.614257812 c 0
 327.43359375 303.971679688 320.260742188 353.7890625 263.8984375 353.7890625 c 0
 237.428710938 353.7890625 198.421875 342.885742188 198.421875 278.614257812 c 0xe1
168.837890625 696.684570312 m 1024
EndSplineSet
EndChar

StartChar: dieresis
Encoding: 168 168 105
Width: 503
GlyphClass: 2
Flags: MW
HStem: 570.101 132.89<102.393 226.552 102.393 226.552 102.393 288.632 288.632 412.792>
VStem: 102.393 124.159<570.101 702.99 570.101 702.99> 288.632 124.16<570.101 702.99 570.101 702.99>
LayerCount: 2
Fore
SplineSet
102.392578125 702.990234375 m 1
 226.551757812 702.990234375 l 1
 226.551757812 570.100585938 l 1
 102.392578125 570.100585938 l 1
 102.392578125 702.990234375 l 1
288.631835938 702.990234375 m 1
 412.791992188 702.990234375 l 1
 412.791992188 570.100585938 l 1
 288.631835938 570.100585938 l 1
 288.631835938 702.990234375 l 1
EndSplineSet
EndChar

StartChar: copyright
Encoding: 169 169 106
Width: 781
GlyphClass: 2
Flags: MW
HStem: -8.01953 95.0596<357.408 434.229 357.408 499.808> 144.271 97.9688<390.29 412.125 390.29 420.956> 443.029 97.9697<387.964 421.246 373.87 421.831> 599.2 94.0898<357.417 434.22>
VStem: 53.8926 98.9414<302.498 382.771 302.498 448.516> 239.161 106.7<308.685 309.654 309.654 375.614 295.953 376.584 295.953 403.575> 448.682 103.79<286.374 300.439 264.227 300.439 382.89 396.954 396.954 399.864> 638.802 98.9424<302.498 382.771>
LayerCount: 2
Fore
SplineSet
395.818359375 -8.01953125 m 0
 187.840820312 -8.01953125 53.892578125 133.5 53.892578125 342.634765625 c 0
 53.892578125 554.397460938 188.282226562 693.290039062 395.818359375 693.290039062 c 0
 603.794921875 693.290039062 737.744140625 551.76953125 737.744140625 342.634765625 c 0
 737.744140625 133.501953125 603.796875 -8.01953125 395.818359375 -8.01953125 c 0
638.801757812 342.634765625 m 0
 638.801757812 422.908203125 616.96484375 485.046875 574.147460938 530.635742188 c 0
 531.41796875 576.1328125 472.62109375 599.200195312 395.818359375 599.200195312 c 0
 319.015625 599.200195312 260.21875 576.1328125 217.48828125 530.635742188 c 0
 174.671875 485.046875 152.833984375 422.908203125 152.833984375 342.634765625 c 0
 152.833984375 262.360351562 174.672851562 200.400390625 217.46484375 155.14453125 c 0
 260.1875 109.962890625 318.998046875 87.0400390625 395.818359375 87.0400390625 c 0
 472.638671875 87.0400390625 531.448242188 109.962890625 574.171875 155.14453125 c 0
 616.963867188 200.400390625 638.801757812 262.360351562 638.801757812 342.634765625 c 0
399.696289062 242.239257812 m 0
 424.553710938 242.239257812 448.681640625 251.278320312 448.681640625 286.374023438 c 2
 448.681640625 300.439453125 l 1
 552.471679688 300.439453125 l 1
 552.471679688 285.404296875 l 2
 552.471679688 243.048828125 538.526367188 208.047851562 510.34765625 182.3359375 c 0
 482.189453125 156.642578125 444.15625 144.270507812 397.755859375 144.270507812 c 0
 350.01171875 144.270507812 310.9453125 157.333007812 282.1484375 184.375 c 0
 252.811523438 211.923828125 239.161132812 254.095703125 239.161132812 308.684570312 c 2
 239.161132812 376.583984375 l 2
 239.161132812 430.565429688 252.846679688 472.537109375 282.099609375 500.364257812 c 0
 310.889648438 527.749023438 349.984375 540.999023438 397.755859375 540.999023438 c 0
 444.736328125 540.999023438 482.934570312 528.845703125 510.828125 503.422851562 c 0
 538.756835938 477.96875 552.471679688 442.782226562 552.471679688 399.864257812 c 2
 552.471679688 382.889648438 l 1
 448.681640625 382.889648438 l 1
 448.681640625 396.954101562 l 2
 448.681640625 410.72265625 443.96484375 443.029296875 399.696289062 443.029296875 c 0
 376.232421875 443.029296875 345.861328125 435.848632812 345.861328125 375.614257812 c 2
 345.861328125 309.654296875 l 2
 345.861328125 282.250976562 351.473632812 265.078125 359.5703125 256.504882812 c 0
 368.189453125 247.37890625 380.883789062 242.239257812 399.696289062 242.239257812 c 0
EndSplineSet
EndChar

StartChar: ordfeminine
Encoding: 170 170 107
Width: 359
GlyphClass: 2
Flags: MW
HStem: 413.931 91.1807<159.151 167.376> 542.941 78.5693<168.305 173.688 173.688 210.062 160.106 210.062> 660.312 86.3291<174.864 191.121>
VStem: 210.062 106.699<538.576 542.941 542.941 542.941>
LayerCount: 2
Fore
SplineSet
178.536132812 746.640625 m 0
 235.721679688 746.640625 316.76171875 728.53125 316.76171875 625.875976562 c 2
 316.76171875 417.811523438 l 1
 212.97265625 417.811523438 l 1
 212.97265625 430.830078125 l 1
 198.79296875 421.08984375 182.405273438 413.930664062 152.34765625 413.930664062 c 0
 118.756835938 413.930664062 90.9052734375 423.505859375 70.521484375 443.525390625 c 0
 50.2265625 463.45703125 40.3115234375 490.227539062 40.3115234375 522.0859375 c 0
 40.3115234375 576.051757812 78.4892578125 621.510742188 160.106445312 621.510742188 c 2
 210.061523438 621.510742188 l 1
 210.061523438 630.7265625 l 2
 210.061523438 647.153320312 204.674804688 660.311523438 177.56640625 660.311523438 c 0
 172.161132812 660.311523438 149.920898438 659.612304688 149.920898438 640.42578125 c 2
 149.920898438 628.30078125 l 1
 49.041015625 628.30078125 l 1
 49.041015625 640.42578125 l 2
 49.041015625 705.854492188 97.3173828125 746.640625 178.536132812 746.640625 c 0
172.716796875 505.111328125 m 0
 201.224609375 505.111328125 210.0625 515.450195312 210.0625 538.576171875 c 2
 210.0625 542.94140625 l 1
 173.6875 542.94140625 l 2
 162.922851562 542.94140625 155.478515625 541.12109375 151.197265625 538.69921875 c 0
 146.323242188 535.94140625 144.102539062 532.517578125 144.102539062 524.99609375 c 0
 144.102539062 518.91796875 145.5859375 505.111328125 172.716796875 505.111328125 c 0
176.59765625 832.487304688 m 1024
EndSplineSet
EndChar

StartChar: guillemotleft
Encoding: 171 171 108
Width: 528
GlyphClass: 2
Flags: W
LayerCount: 2
Fore
SplineSet
262.442382812 511.828125 m 1
 262.442382812 355.91015625 l 1
 174.43359375 266.975585938 l 1
 262.442382812 178.040039062 l 1
 262.442382812 22.1220703125 l 1
 18.66796875 266.975585938 l 1
 262.442382812 511.828125 l 1
482.631835938 511.750976562 m 1
 482.631835938 355.87890625 l 1
 393.728515625 266.975585938 l 1
 482.631835938 178.071289062 l 1
 482.631835938 22.19921875 l 1
 237.856445312 266.975585938 l 1
 482.631835938 511.750976562 l 1
EndSplineSet
EndChar

StartChar: logicalnot
Encoding: 172 172 109
Width: 532
GlyphClass: 2
Flags: MW
HStem: 247.09 128.04<53.8926 349.742 53.8926 489.422>
VStem: 349.742 139.68<117.11 247.09 247.09 247.09>
LayerCount: 2
Fore
SplineSet
349.7421875 247.08984375 m 1
 53.892578125 247.08984375 l 1
 53.892578125 375.129882812 l 1
 489.421875 375.129882812 l 1
 489.421875 117.110351562 l 1
 349.7421875 117.110351562 l 1
 349.7421875 247.08984375 l 1
EndSplineSet
EndChar

StartChar: uni00AD
Encoding: 173 173 110
Width: 372
GlyphClass: 2
Flags: MW
HStem: 280.07 131.92<49.042 336.162 49.042 336.162>
VStem: 49.042 287.12<280.07 411.99 280.07 411.99>
LayerCount: 2
Fore
SplineSet
49.0419921875 411.990234375 m 1
 336.162109375 411.990234375 l 1
 336.162109375 280.0703125 l 1
 49.0419921875 280.0703125 l 1
 49.0419921875 411.990234375 l 1
EndSplineSet
EndChar

StartChar: registered
Encoding: 174 174 111
Width: 498
GlyphClass: 2
Flags: MW
HStem: 299.47 59.1699<235.651 275.028 235.651 312.117> 546.819 63.0498<241.102 262.926 241.102 241.102> 632.179 59.1709<235.634 274.698>
VStem: 62.6221 61.1094<475.3 516.49 475.3 552.355> 170.291 70.8105<383.859 459.52 383.859 522.569 522.569 546.819> 279.901 70.8096<532.276 537.112> 386.602 62.0811<475.285 516.49>
LayerCount: 2
Fore
SplineSet
255.166992188 299.469726562 m 0
 140.170898438 299.469726562 62.6220703125 387.936523438 62.6220703125 495.89453125 c 0
 62.6220703125 608.815429688 146.346679688 691.349609375 255.166992188 691.349609375 c 0
 370.760742188 691.349609375 448.682617188 602.711914062 448.682617188 495.895507812 c 0
 448.682617188 385.931640625 369.067382812 299.469726562 255.166992188 299.469726562 c 0
386.6015625 495.89453125 m 0
 386.6015625 537.084960938 374.211914062 569.431640625 349.728515625 594.51171875 c 0
 325.208984375 619.629882812 294.229492188 632.178710938 255.166015625 632.178710938 c 0
 216.102539062 632.178710938 185.123046875 619.629882812 160.603515625 594.51171875 c 0
 136.12109375 569.431640625 123.731445312 537.084960938 123.731445312 495.89453125 c 0
 123.731445312 454.706054688 136.123046875 422.168945312 160.645507812 396.748046875 c 0
 185.176757812 371.3203125 216.135742188 358.639648438 255.166015625 358.639648438 c 0
 294.889648438 358.639648438 325.96875 371.350585938 350.127929688 396.703125 c 0
 374.344726562 422.114257812 386.6015625 454.674804688 386.6015625 495.89453125 c 0
265.8359375 609.869140625 m 2
 290.631835938 609.869140625 350.7109375 602.928710938 350.7109375 535.6640625 c 0
 350.7109375 508.62890625 339.419921875 487.073242188 318.004882812 473.30078125 c 1
 361.686523438 383.859375 l 1
 284.61328125 383.859375 l 1
 248.723632812 459.51953125 l 1
 241.1015625 459.51953125 l 1
 241.1015625 383.859375 l 1
 170.291015625 383.859375 l 1
 170.291015625 609.869140625 l 1
 265.8359375 609.869140625 l 2
279.901367188 534.694335938 m 0
 279.901367188 539.530273438 279.901367188 546.819335938 262.92578125 546.819335938 c 2
 241.1015625 546.819335938 l 1
 241.1015625 522.569335938 l 1
 262.92578125 522.569335938 l 2
 279.901367188 522.569335938 279.901367188 529.858398438 279.901367188 534.694335938 c 0
EndSplineSet
EndChar

StartChar: macron
Encoding: 175 175 112
Width: 503
GlyphClass: 2
Flags: MW
HStem: 573.01 127.07<111.122 405.032 111.122 405.032>
VStem: 111.122 293.91<573.01 700.08 573.01 700.08>
LayerCount: 2
Fore
SplineSet
111.122070312 700.080078125 m 1
 405.032226562 700.080078125 l 1
 405.032226562 573.009765625 l 1
 111.122070312 573.009765625 l 1
 111.122070312 700.080078125 l 1
EndSplineSet
EndChar

StartChar: degree
Encoding: 176 176 113
Width: 400
GlyphClass: 2
Flags: MW
HStem: 395.5 93.1211<188.659 215.146 188.659 251.312> 607.93 93.1201<188.646 215.146>
VStem: 53.8916 96.0283<530.887 565.648 530.887 592.927> 263.411 96.0303<539.36 557.192>
LayerCount: 2
Fore
SplineSet
359.44140625 548.276367188 m 0
 359.44140625 463.993164062 295.958007812 395.5 206.666992188 395.5 c 0
 163.555664062 395.5 126.706054688 410.135742188 97.6171875 439.224609375 c 0
 68.52734375 468.313476562 53.8916015625 505.165039062 53.8916015625 548.276367188 c 0
 53.8916015625 637.577148438 122.39453125 701.049804688 206.666992188 701.049804688 c 0
 292.668945312 701.049804688 359.44140625 634.278320312 359.44140625 548.276367188 c 0
149.919921875 548.275390625 m 0
 149.919921875 513.499023438 170.65234375 488.62109375 206.666015625 488.62109375 c 0
 223.626953125 488.62109375 236.629882812 494.118164062 247.301757812 505.337890625 c 0
 258.025390625 516.61328125 263.411132812 530.4453125 263.411132812 548.275390625 c 0
 263.411132812 566.109375 258.024414062 579.942382812 247.302734375 591.212890625 c 0
 236.629882812 602.432617188 223.626953125 607.9296875 206.666015625 607.9296875 c 0
 170.625976562 607.9296875 149.919921875 583.021484375 149.919921875 548.275390625 c 0
EndSplineSet
EndChar

StartChar: plusminus
Encoding: 177 177 114
Width: 532
GlyphClass: 2
Flags: MW
HStem: -34.21 130.95<51.9521 492.332 51.9521 492.332> 273.28 130.95<51.9521 207.152 51.9521 207.152 338.103 492.332>
VStem: 207.152 130.95<118.08 273.28 118.08 273.28 404.23 559.43>
LayerCount: 2
Fore
SplineSet
338.102539062 273.280273438 m 1
 338.102539062 118.080078125 l 1
 207.15234375 118.080078125 l 1
 207.15234375 273.280273438 l 1
 51.9521484375 273.280273438 l 1
 51.9521484375 404.23046875 l 1
 207.15234375 404.23046875 l 1
 207.15234375 559.4296875 l 1
 338.102539062 559.4296875 l 1
 338.102539062 404.23046875 l 1
 492.33203125 404.23046875 l 1
 492.33203125 273.280273438 l 1
 338.102539062 273.280273438 l 1
51.9521484375 96.740234375 m 1
 492.33203125 96.740234375 l 1
 492.33203125 -34.2099609375 l 1
 51.9521484375 -34.2099609375 l 1
 51.9521484375 96.740234375 l 1
EndSplineSet
EndChar

StartChar: uni00B2
Encoding: 178 178 115
Width: 353
GlyphClass: 2
Flags: MW
HStem: 417.811 106.699<205.781 322.582 205.781 322.582>
VStem: 48.0723 274.51<417.811 509.17 509.17 509.17> 200.362 122.22<717.055 718.025 718.025 723.845 723.845 728.695>
LayerCount: 2
Fore
SplineSet
180.477539062 747.610351562 m 0xa0
 173.001953125 747.610351562 161.5625 744 161.5625 721.905273438 c 2
 161.5625 702.990234375 l 1
 45.162109375 702.990234375 l 1
 45.162109375 727.725585938 l 2
 45.162109375 763.827148438 57.9873046875 794.26953125 83.4462890625 817.250976562 c 0
 109.018554688 840.337890625 143.471679688 851.400390625 185.327148438 851.400390625 c 0
 225.46484375 851.400390625 259.02734375 839.666992188 284.467773438 815.639648438 c 0
 309.599609375 791.904296875 322.58203125 762.456054688 322.58203125 728.6953125 c 2
 322.58203125 718.025390625 l 2xc0
 322.58203125 688.997070312 315.842773438 658.725585938 281.499023438 617.51171875 c 0
 281.443359375 617.443359375 230.720703125 555.142578125 205.78125 524.509765625 c 1
 322.58203125 524.509765625 l 1xa0
 322.58203125 417.810546875 l 1
 48.072265625 417.810546875 l 1
 48.072265625 509.169921875 l 1xc0
 183.189453125 677.819335938 l 2
 195.268554688 692.919921875 200.362304688 706.029296875 200.362304688 717.0546875 c 2
 200.362304688 723.844726562 l 2
 200.362304688 737.95703125 195.040039062 747.610351562 180.477539062 747.610351562 c 0xa0
EndSplineSet
EndChar

StartChar: uni00B3
Encoding: 179 179 116
Width: 348
GlyphClass: 2
Flags: MW
HStem: 411.021 102.822<166.05 182.693 166.05 199.947> 584.653 102.819<139.252 168.837 168.837 169.808 139.252 168.837>
VStem: 41.2822 110.58<530.818 535.668 535.668 555.553 530.236 555.553> 201.332 116.4<542.458 551.188 551.188 553.125 522.884 564.636>
LayerCount: 2
Fore
SplineSet
276.033203125 645.483398438 m 1
 304.270507812 626.818359375 317.732421875 592.157226562 317.732421875 553.125 c 2
 317.732421875 542.455078125 l 2
 317.732421875 503.3125 304.744140625 470.759765625 278.544921875 446.684570312 c 0
 252.57421875 422.819335938 219.416992188 411.020507812 180.477539062 411.020507812 c 0
 137.626953125 411.020507812 103.172851562 420.69921875 78.384765625 441.536132812 c 0
 53.3935546875 462.541992188 41.2822265625 493.094726562 41.2822265625 530.818359375 c 2
 41.2822265625 555.552734375 l 1
 151.862304688 555.552734375 l 1
 151.862304688 535.66796875 l 2
 151.862304688 524.803710938 154.533203125 513.842773438 177.567382812 513.842773438 c 0
 187.818359375 513.842773438 201.33203125 518.404296875 201.33203125 542.458007812 c 2
 201.33203125 551.1875 l 2
 201.33203125 578.083984375 188.373046875 584.653320312 169.807617188 584.653320312 c 2
 139.251953125 584.653320312 l 1
 139.251953125 687.47265625 l 1
 168.836914062 687.47265625 l 2
 179.74609375 687.47265625 194.541992188 690.46484375 194.541992188 714.1484375 c 2
 194.541992188 721.908203125 l 2
 194.541992188 746.461914062 182.879882812 747.61328125 174.657226562 747.61328125 c 0
 156.137695312 747.61328125 152.83203125 739.161132812 152.83203125 727.727539062 c 2
 152.83203125 706.873046875 l 1
 43.22265625 706.873046875 l 1
 43.22265625 726.7578125 l 2
 43.22265625 803.258789062 91.8759765625 851.403320312 178.538085938 851.403320312 c 0
 266.126953125 851.403320312 310.942382812 798.708984375 310.942382812 730.63671875 c 2
 310.942382812 721.907226562 l 2
 310.942382812 690.032226562 299.043945312 663.987304688 276.033203125 645.483398438 c 1
EndSplineSet
EndChar

StartChar: acute
Encoding: 180 180 117
Width: 503
GlyphClass: 2
Flags: MW
HStem: 571.07 149.38<238.68 246.663 117.379 401.659>
VStem: 117.379 284.28<571.07 720.45>
LayerCount: 2
Fore
SplineSet
238.6796875 720.450195312 m 1
 401.659179688 720.450195312 l 1
 246.663085938 571.0703125 l 1
 117.37890625 571.0703125 l 1
 238.6796875 720.450195312 l 1
EndSplineSet
EndChar

StartChar: uni00B5
Encoding: 181 181 118
Width: 523
GlyphClass: 2
Flags: MW
HStem: -5.10938 127.069<255.983 267.125> 505.48 20G<57.7725 198.42 198.42 198.42 337.131 477.781 477.781 477.781>
VStem: 57.7725 140.647<187.61 201.016 201.016 525.48> 337.131 140.65<201.016 525.48 0.709961 525.48>
LayerCount: 2
Fore
SplineSet
57.7724609375 525.48046875 m 1
 198.419921875 525.48046875 l 1
 198.419921875 201.015625 l 2
 198.419921875 174.205078125 205.078125 155.030273438 217.083984375 141.93359375 c 0
 229.21875 128.696289062 245.159179688 121.959960938 266.806640625 121.959960938 c 0
 287.716796875 121.959960938 304.00390625 128.65625 317.245117188 142.178710938 c 0
 330.108398438 155.315429688 337.130859375 174.337890625 337.130859375 201.015625 c 2
 337.130859375 525.48046875 l 1
 477.78125 525.48046875 l 1
 477.78125 0.7099609375 l 1
 340.041015625 0.7099609375 l 1
 340.041015625 29.6416015625 l 1
 315.47265625 6.6611328125 284.903320312 -5.109375 249.346679688 -5.109375 c 0
 230.98046875 -5.109375 213.619140625 -1.8984375 197.452148438 4.5341796875 c 1
 197.452148438 -150.609375 l 1
 57.7724609375 -150.609375 l 1
 57.7724609375 525.48046875 l 1
EndSplineSet
EndChar

StartChar: paragraph
Encoding: 182 182 119
Width: 644
GlyphClass: 2
Flags: MW
HStem: 573.01 117.37<380.782 439.952 380.782 380.782>
VStem: 62.6221 318.16<409.302 525.915> 253.712 127.07<-150.609 246.974 246.974 246.974> 439.952 124.16<-150.609 573.01 573.01 573.01>
LayerCount: 2
Fore
SplineSet
62.6220703125 468.735351562 m 0xd0
 62.6220703125 583.09375 139.430664062 690.379882812 292.997070312 690.379882812 c 2
 564.112304688 690.379882812 l 1
 564.112304688 -150.609375 l 1
 439.952148438 -150.609375 l 1
 439.952148438 573.009765625 l 1
 380.782226562 573.009765625 l 1
 380.782226562 -150.609375 l 1
 253.711914062 -150.609375 l 1
 253.711914062 246.973632812 l 1xb0
 139.47265625 259.122070312 62.6220703125 349.868164062 62.6220703125 468.735351562 c 0xd0
EndSplineSet
EndChar

StartChar: periodcentered
Encoding: 183 183 120
Width: 226
GlyphClass: 2
Flags: MW
HStem: 202.47 158.11<42.252 197.452 42.252 197.452>
VStem: 42.252 155.2<202.47 360.58 202.47 360.58>
LayerCount: 2
Fore
SplineSet
42.251953125 360.580078125 m 1
 197.452148438 360.580078125 l 1
 197.452148438 202.469726562 l 1
 42.251953125 202.469726562 l 1
 42.251953125 360.580078125 l 1
EndSplineSet
EndChar

StartChar: cedilla
Encoding: 184 184 121
Width: 503
GlyphClass: 2
Flags: MW
HStem: -150.609 184.3<226.982 284.959 151.736 342.758>
VStem: 151.736 191.021<-150.609 33.6904>
LayerCount: 2
Fore
SplineSet
226.982421875 33.6904296875 m 1
 342.7578125 33.6904296875 l 1
 284.958984375 -150.609375 l 1
 151.736328125 -150.609375 l 1
 226.982421875 33.6904296875 l 1
EndSplineSet
EndChar

StartChar: uni00B9
Encoding: 185 185 122
Width: 262
GlyphClass: 2
Flags: MW
VStem: 99.4824 120.279<417.811 706.13 706.13 706.13>
LayerCount: 2
Fore
SplineSet
33.5224609375 659.5703125 m 1
 33.5224609375 791.12109375 l 1
 107.336914062 844.610351562 l 1
 219.76171875 844.610351562 l 1
 219.76171875 417.810546875 l 1
 99.482421875 417.810546875 l 1
 99.482421875 706.129882812 l 1
 33.5224609375 659.5703125 l 1
EndSplineSet
EndChar

StartChar: ordmasculine
Encoding: 186 186 123
Width: 362
GlyphClass: 2
Flags: MW
HStem: 413.93 97.9727<179.817 194.716 179.817 209.482> 648.672 97.9688<179.819 194.718>
VStem: 47.1025 106.699<553.126 553.127 553.127 607.447 534.462 608.416 534.462 630.946> 220.732 107.67<553.127 607.447 607.447 608.415 530.607 626.112>
LayerCount: 2
Fore
SplineSet
188.237304688 413.9296875 m 0
 138.793945312 413.9296875 47.1025390625 430.465820312 47.1025390625 553.125976562 c 2
 47.1025390625 608.416015625 l 2
 47.1025390625 653.475585938 59.298828125 688.943359375 85.38671875 712.4921875 c 0
 110.994140625 735.610351562 145.7734375 746.640625 188.237304688 746.640625 c 0
 242.002929688 746.640625 328.40234375 728.032226562 328.40234375 608.415039062 c 2
 328.40234375 553.125 l 2
 328.40234375 508.088867188 316.392578125 472.536132812 290.712890625 448.665039062 c 0
 265.412109375 425.146484375 230.7265625 413.9296875 188.237304688 413.9296875 c 0
187.267578125 511.90234375 m 0
 202.165039062 511.90234375 220.732421875 515.794921875 220.732421875 553.126953125 c 2
 220.732421875 607.447265625 l 2
 220.732421875 644.776367188 202.16796875 648.671875 187.267578125 648.671875 c 0
 172.370117188 648.671875 153.801757812 644.779296875 153.801757812 607.447265625 c 2
 153.801757812 553.126953125 l 2
 153.801757812 515.797851562 172.366210938 511.90234375 187.267578125 511.90234375 c 0
176.59765625 832.487304688 m 1024
EndSplineSet
EndChar

StartChar: guillemotright
Encoding: 187 187 124
Width: 528
GlyphClass: 2
Flags: W
LayerCount: 2
Fore
SplineSet
57.7724609375 355.87890625 m 1
 57.7724609375 511.750976562 l 1
 302.547851562 266.975585938 l 1
 57.7724609375 22.19921875 l 1
 57.7724609375 178.071289062 l 1
 146.67578125 266.975585938 l 1
 57.7724609375 355.87890625 l 1
277.961914062 355.91015625 m 1
 277.961914062 511.828125 l 1
 521.736328125 266.975585938 l 1
 277.961914062 22.1220703125 l 1
 277.961914062 178.040039062 l 1
 365.970703125 266.975585938 l 1
 277.961914062 355.91015625 l 1
EndSplineSet
EndChar

StartChar: onequarter
Encoding: 188 188 125
Width: 801
GlyphClass: 3
Flags: MW
HStem: 0.709961 21G<107.901 226.241 107.901 107.901 634.922 755.202 634.922 634.922> 56 106.7<603.221 634.922 603.221 634.922 755.202 781.393> 670.38 21G
VStem: 99.4824 120.279<263.58 551.9 551.9 551.9> 634.922 120.28<0.709961 56 0.709961 56 162.7 237.956 237.956 237.956>
LayerCount: 2
Fore
SplineSet
33.5224609375 505.33984375 m 1
 33.5224609375 636.891601562 l 1
 107.336914062 690.379882812 l 1
 219.76171875 690.379882812 l 1
 219.76171875 263.580078125 l 1
 99.482421875 263.580078125 l 1
 99.482421875 551.900390625 l 1
 33.5224609375 505.33984375 l 1
755.202148438 162.700195312 m 1
 781.392578125 162.700195312 l 1
 781.392578125 56 l 1
 755.202148438 56 l 1
 755.202148438 0.7099609375 l 1
 634.921875 0.7099609375 l 1
 634.921875 56 l 1
 477.782226562 56 l 1
 477.782226562 154.577148438 l 1
 592.75390625 427.509765625 l 1
 714.771484375 427.509765625 l 1
 639.178710938 248.060546875 l 1
 755.202148438 248.060546875 l 1
 755.202148438 162.700195312 l 1
634.921875 162.700195312 m 1
 634.921875 237.956054688 l 1
 603.220703125 162.700195312 l 1
 634.921875 162.700195312 l 1
492.635742188 695.23046875 m 1
 611.974609375 695.23046875 l 1
 226.241210938 0.7099609375 l 1
 107.901367188 0.7099609375 l 1
 492.635742188 695.23046875 l 1
EndSplineSet
Ligature2: "'frac' Diagonal Fractions lookup 2 subtable" one slash four
EndChar

StartChar: onehalf
Encoding: 189 189 126
Width: 800
GlyphClass: 3
Flags: MW
HStem: 0.709961 106.7<649.071 765.872 649.071 765.872> 670.38 21G
VStem: 99.4824 120.279<263.58 551.9 551.9 551.9> 491.362 274.51<0.709961 92.0693 92.0693 92.0693> 643.652 122.22<299.954 300.925 300.925 306.744 306.744 311.595>
LayerCount: 2
Fore
SplineSet
33.5224609375 505.33984375 m 1xe0
 33.5224609375 636.891601562 l 1
 107.336914062 690.379882812 l 1
 219.76171875 690.379882812 l 1
 219.76171875 263.580078125 l 1
 99.482421875 263.580078125 l 1
 99.482421875 551.900390625 l 1
 33.5224609375 505.33984375 l 1xe0
623.767578125 330.508789062 m 0
 616.28515625 330.508789062 604.852539062 326.895507812 604.852539062 304.803710938 c 2
 604.852539062 285.889648438 l 1
 488.452148438 285.889648438 l 1
 488.452148438 310.624023438 l 2
 488.452148438 346.725585938 501.278320312 377.16796875 526.736328125 400.151367188 c 0
 552.30859375 423.23828125 586.76171875 434.299804688 628.6171875 434.299804688 c 0
 668.754882812 434.299804688 702.317382812 422.567382812 727.7578125 398.540039062 c 0
 752.888671875 374.803710938 765.872070312 345.35546875 765.872070312 311.594726562 c 2
 765.872070312 300.924804688 l 2xf0
 765.872070312 271.896484375 759.1328125 241.625 724.7890625 200.411132812 c 0
 724.732421875 200.34375 674.010742188 138.04296875 649.071289062 107.41015625 c 1
 765.872070312 107.41015625 l 1xe8
 765.872070312 0.7099609375 l 1
 491.362304688 0.7099609375 l 1
 491.362304688 92.0693359375 l 1xf0
 626.48046875 260.71875 l 2
 638.55859375 275.81640625 643.65234375 288.924804688 643.65234375 299.954101562 c 2
 643.65234375 306.744140625 l 2xe8
 643.65234375 320.85546875 638.330078125 330.508789062 623.767578125 330.508789062 c 0
492.635742188 695.228515625 m 1
 611.974609375 695.228515625 l 1
 226.241210938 0.7080078125 l 1
 107.901367188 0.7080078125 l 1
 492.635742188 695.228515625 l 1
EndSplineSet
Ligature2: "'frac' Diagonal Fractions lookup 2 subtable" one slash two
EndChar

StartChar: threequarters
Encoding: 190 190 127
Width: 886
GlyphClass: 3
Flags: MW
HStem: 0.710938 21G<193.262 311.602 193.262 193.262 720.282 840.562 720.282 720.282> 56.001 106.7<688.581 720.282 688.581 720.282 840.562 866.752> 256.79 102.821<166.05 182.693 166.05 199.947> 430.421 102.82<139.252 168.837 168.837 169.808 139.252 168.837>
VStem: 41.2822 110.58<376.586 381.437 381.437 401.321 376.004 401.321> 201.332 116.4<388.227 396.956 396.956 398.896 368.654 410.404> 720.282 120.28<0.710938 56.001 0.710938 56.001 162.701 237.957 237.957 237.957>
LayerCount: 2
Fore
SplineSet
276.033203125 491.250976562 m 1
 304.317382812 472.555664062 317.732421875 437.849609375 317.732421875 398.895507812 c 2
 317.732421875 388.225585938 l 2
 317.732421875 349.083007812 304.744140625 316.530273438 278.544921875 292.455078125 c 0
 252.57421875 268.58984375 219.416992188 256.790039062 180.477539062 256.790039062 c 0
 137.626953125 256.790039062 103.172851562 266.469726562 78.384765625 287.305664062 c 0
 53.39453125 308.3125 41.2822265625 338.86328125 41.2822265625 376.5859375 c 2
 41.2822265625 401.321289062 l 1
 151.862304688 401.321289062 l 1
 151.862304688 381.436523438 l 2
 151.862304688 370.572265625 154.533203125 359.611328125 177.567382812 359.611328125 c 0
 187.818359375 359.611328125 201.33203125 364.172851562 201.33203125 388.2265625 c 2
 201.33203125 396.956054688 l 2
 201.33203125 423.8515625 188.373046875 430.420898438 169.807617188 430.420898438 c 2
 139.251953125 430.420898438 l 1
 139.251953125 533.241210938 l 1
 168.836914062 533.241210938 l 2
 179.74609375 533.241210938 194.541992188 536.233398438 194.541992188 559.916015625 c 2
 194.541992188 567.67578125 l 2
 194.541992188 592.23046875 182.879882812 593.380859375 174.657226562 593.380859375 c 0
 156.137695312 593.380859375 152.83203125 584.928710938 152.83203125 573.49609375 c 2
 152.83203125 552.640625 l 1
 43.22265625 552.640625 l 1
 43.22265625 572.526367188 l 2
 43.22265625 649.02734375 91.8759765625 697.170898438 178.538085938 697.170898438 c 0
 266.126953125 697.170898438 310.942382812 644.4765625 310.942382812 576.405273438 c 2
 310.942382812 567.674804688 l 2
 310.942382812 535.80078125 299.043945312 509.754882812 276.033203125 491.250976562 c 1
840.5625 162.701171875 m 1
 866.751953125 162.701171875 l 1
 866.751953125 56.0009765625 l 1
 840.5625 56.0009765625 l 1
 840.5625 0.7109375 l 1
 720.282226562 0.7109375 l 1
 720.282226562 56.0009765625 l 1
 563.142578125 56.0009765625 l 1
 563.142578125 154.578125 l 1
 678.114257812 427.510742188 l 1
 800.130859375 427.510742188 l 1
 724.538085938 248.061523438 l 1
 840.5625 248.061523438 l 1
 840.5625 162.701171875 l 1
720.282226562 162.701171875 m 1
 720.282226562 237.95703125 l 1
 688.581054688 162.701171875 l 1
 720.282226562 162.701171875 l 1
697.334960938 695.231445312 m 1
 311.6015625 0.7109375 l 1
 193.26171875 0.7109375 l 1
 577.995117188 695.231445312 l 1
 697.334960938 695.231445312 l 1
EndSplineSet
Ligature2: "'frac' Diagonal Fractions lookup 2 subtable" three slash four
EndChar

StartChar: questiondown
Encoding: 191 191 128
Width: 456
GlyphClass: 2
Flags: MW
HStem: -160.31 129.011<216.785 255.52 216.785 268.648> 379.01 146.471<167.382 313.853 167.382 313.853>
VStem: 38.373 144.529<14.2178 39.1982 14.2178 48.7637> 167.382 146.471<379.01 525.48 379.01 525.48> 299.306 137.955<36.375 46.3008>
LayerCount: 2
Fore
SplineSet
167.381835938 525.48046875 m 1xd0
 313.852539062 525.48046875 l 1
 313.852539062 379.009765625 l 1
 167.381835938 379.009765625 l 1
 167.381835938 525.48046875 l 1xd0
237.708007812 -160.309570312 m 0
 115.3515625 -160.309570312 38.373046875 -82.822265625 38.373046875 19.6298828125 c 0
 38.373046875 77.8974609375 55.9921875 117.557617188 95.1640625 163.046875 c 2
 137.802734375 212.467773438 l 2
 152.26953125 229.451171875 161.104492188 243.322265625 164.588867188 252.974609375 c 0
 168.192382812 262.952148438 170.291992188 277.413085938 170.291992188 296.079101562 c 2
 170.291992188 334.393554688 l 1
 310.942382812 334.393554688 l 1
 310.942382812 287.348632812 l 2
 310.942382812 258.870117188 308.211914062 235.91796875 302.158203125 218.111328125 c 0
 295.93359375 199.805664062 282.09765625 179.0625 260.97265625 154.635742188 c 0
 260.932617188 154.58984375 215.46484375 101.3828125 215.46484375 101.3828125 c 2
 191.138671875 72.193359375 182.90234375 51.98046875 182.90234375 26.416015625 c 0
 182.90234375 2.01953125 191.982421875 -31.298828125 241.586914062 -31.298828125 c 0
 269.453125 -31.298828125 297.814453125 -23.2529296875 299.305664062 36.375 c 2
 299.553710938 46.30078125 l 1
 437.260742188 46.30078125 l 1xe8
 436.521484375 11.5146484375 435.01171875 -59.4296875 383.544921875 -109.868164062 c 0
 348.796875 -143.921875 299.588867188 -160.309570312 237.708007812 -160.309570312 c 0
EndSplineSet
EndChar

StartChar: Agrave
Encoding: 192 192 129
Width: 607
GlyphClass: 2
Flags: MW
HStem: 0.709961 21G<5.03125 5.03125 5.03125 160.801 457.204 457.204 457.204 613.963> 130.69 126.1<241.872 376.082 241.872 416.464 201.541 376.082> 670.38 20G<249.914 368.081 368.081 368.081>
AnchorPoint: "Anchor-0" 309 680 basechar 0
LayerCount: 2
Fore
SplineSet
5.03125 0.7099609375 m 1
 249.9140625 690.379882812 l 1
 368.081054688 690.379882812 l 1
 613.962890625 0.7099609375 l 1
 457.204101562 0.7099609375 l 1
 416.463867188 130.690429688 l 1
 201.541015625 130.690429688 l 1
 160.80078125 0.7099609375 l 1
 5.03125 0.7099609375 l 1
241.872070312 256.790039062 m 1
 376.08203125 256.790039062 l 1
 308.575195312 469.7578125 l 1
 241.872070312 256.790039062 l 1
130.015625 885.350585938 m 1
 292.995117188 885.350585938 l 1
 414.295898438 735.969726562 l 1
 285.010742188 735.969726562 l 1
 130.015625 885.350585938 l 1
EndSplineSet
EndChar

StartChar: Aacute
Encoding: 193 193 130
Width: 607
GlyphClass: 2
Flags: MW
HStem: 0.709961 21G<5.03125 5.03125 5.03125 160.801 457.204 457.204 457.204 613.963> 130.69 126.1<241.872 376.082 241.872 416.464 201.541 376.082> 670.38 20G<249.914 368.081 368.081 368.081>
AnchorPoint: "Anchor-0" 309 680 basechar 0
LayerCount: 2
Fore
SplineSet
5.03125 0.7099609375 m 1
 249.9140625 690.379882812 l 1
 368.081054688 690.379882812 l 1
 613.962890625 0.7099609375 l 1
 457.204101562 0.7099609375 l 1
 416.463867188 130.690429688 l 1
 201.541015625 130.690429688 l 1
 160.80078125 0.7099609375 l 1
 5.03125 0.7099609375 l 1
241.872070312 256.790039062 m 1
 376.08203125 256.790039062 l 1
 308.575195312 469.7578125 l 1
 241.872070312 256.790039062 l 1
319.189453125 885.350585938 m 1
 482.168945312 885.350585938 l 1
 327.173828125 735.969726562 l 1
 197.888671875 735.969726562 l 1
 319.189453125 885.350585938 l 1
EndSplineSet
EndChar

StartChar: Acircumflex
Encoding: 194 194 131
Width: 607
GlyphClass: 2
Flags: MW
HStem: 0.709961 21G<5.03125 5.03125 5.03125 160.801 457.204 457.204 457.204 613.963> 130.69 126.1<241.872 376.082 241.872 416.464 201.541 376.082> 670.38 20G<249.914 368.081 368.081 368.081>
AnchorPoint: "Anchor-0" 309 680 basechar 0
LayerCount: 2
Fore
SplineSet
5.03125 0.7099609375 m 1
 249.9140625 690.379882812 l 1
 368.081054688 690.379882812 l 1
 613.962890625 0.7099609375 l 1
 457.204101562 0.7099609375 l 1
 416.463867188 130.690429688 l 1
 201.541015625 130.690429688 l 1
 160.80078125 0.7099609375 l 1
 5.03125 0.7099609375 l 1
241.872070312 256.790039062 m 1
 376.08203125 256.790039062 l 1
 308.575195312 469.7578125 l 1
 241.872070312 256.790039062 l 1
358.181640625 892.140625 m 1
 485.245117188 725.299804688 l 1
 365.733398438 725.299804688 l 1
 309.487304688 794.938476562 l 1
 253.241210938 725.299804688 l 1
 132.759765625 725.299804688 l 1
 259.823242188 892.140625 l 1
 358.181640625 892.140625 l 1
EndSplineSet
EndChar

StartChar: Atilde
Encoding: 195 195 132
Width: 607
GlyphClass: 2
Flags: MW
HStem: 0.709961 21G<5.03125 5.03125 5.03125 160.801 457.204 457.204 457.204 613.963> 130.69 126.1<241.872 376.082 241.872 416.464 201.541 376.082> 670.38 20G<249.914 368.081 368.081 368.081> 731.12 111.55<352.361 385.475> 767.979 111.551<233.178 266.37>
AnchorPoint: "Anchor-0" 309 680 basechar 0
LayerCount: 2
Fore
SplineSet
5.03125 0.7099609375 m 1xe0
 249.9140625 690.379882812 l 1
 368.081054688 690.379882812 l 1
 613.962890625 0.7099609375 l 1
 457.204101562 0.7099609375 l 1
 416.463867188 130.690429688 l 1
 201.541015625 130.690429688 l 1
 160.80078125 0.7099609375 l 1
 5.03125 0.7099609375 l 1xe0
241.872070312 256.790039062 m 1
 376.08203125 256.790039062 l 1
 308.575195312 469.7578125 l 1
 241.872070312 256.790039062 l 1
367.686523438 731.120117188 m 0xf0
 311.139648438 731.120117188 286.301757812 767.979492188 246.4375 767.979492188 c 0
 219.918945312 767.979492188 208.658203125 758.390625 161.5625 718.288085938 c 1
 161.5625 831.8515625 l 1
 193.393554688 863.682617188 214.737304688 879.530273438 250.31640625 879.530273438 c 0xe8
 308.865234375 879.530273438 332.186523438 842.669921875 372.536132812 842.669921875 c 0
 400.244140625 842.669921875 411.455078125 853.018554688 456.44140625 894.544921875 c 1
 456.44140625 778.798828125 l 1
 424.608398438 746.966796875 403.262695312 731.120117188 367.686523438 731.120117188 c 0xf0
EndSplineSet
EndChar

StartChar: Adieresis
Encoding: 196 196 133
Width: 607
GlyphClass: 2
Flags: MW
HStem: 0.709961 21G<5.03125 5.03125 5.03125 160.801 457.204 457.204 457.204 613.963> 130.69 126.1<241.872 376.082 241.872 416.464 201.541 376.082> 670.38 20G<249.914 368.081 368.081 368.081> 735 132.891<153.802 277.962 153.802 277.962 153.802 340.042 340.042 464.202>
VStem: 153.802 124.16<735 867.891 735 867.891> 340.042 124.16<735 867.891 735 867.891>
AnchorPoint: "Anchor-0" 309 680 basechar 0
LayerCount: 2
Fore
SplineSet
5.03125 0.7099609375 m 1
 249.9140625 690.379882812 l 1
 368.081054688 690.379882812 l 1
 613.962890625 0.7099609375 l 1
 457.204101562 0.7099609375 l 1
 416.463867188 130.690429688 l 1
 201.541015625 130.690429688 l 1
 160.80078125 0.7099609375 l 1
 5.03125 0.7099609375 l 1
241.872070312 256.790039062 m 1
 376.08203125 256.790039062 l 1
 308.575195312 469.7578125 l 1
 241.872070312 256.790039062 l 1
153.801757812 867.890625 m 1
 277.961914062 867.890625 l 1
 277.961914062 735 l 1
 153.801757812 735 l 1
 153.801757812 867.890625 l 1
340.041992188 867.890625 m 1
 464.202148438 867.890625 l 1
 464.202148438 735 l 1
 340.041992188 735 l 1
 340.041992188 867.890625 l 1
EndSplineSet
EndChar

StartChar: Aring
Encoding: 197 197 134
Width: 607
GlyphClass: 2
Flags: MW
HStem: 0.709961 21G<457.204 613.958 457.204 457.204> 130.691 126.1<201.541 376.083> 802.901 73.7188<299.771 320.706>
VStem: 200.362 75.6611<760.292 775.994 760.292 781.267> 345.863 74.6885<756.148 776.508>
AnchorPoint: "Anchor-0" 309 680 basechar 0
LayerCount: 2
Fore
SplineSet
420.551757812 765.5546875 m 0
 420.551757812 746.741210938 415.608398438 703.758789062 374.139648438 674.158203125 c 1
 613.958007812 0.7099609375 l 1
 457.204101562 0.7099609375 l 1
 416.463867188 130.690429688 l 1
 344.823242188 130.690429688 273.182617188 130.69140625 201.541015625 130.69140625 c 1
 160.801757812 0.7109375 l 1
 5.03125 0.7109375 l 1
 244.895507812 676.24609375 l 1
 226.301757812 690.064453125 200.362304688 719.072265625 200.362304688 765.5546875 c 0
 200.362304688 796.978515625 210.919921875 823.978515625 231.961914062 845.020507812 c 0
 252.956054688 866.014648438 279.6171875 876.620117188 310.45703125 876.620117188 c 0
 341.297851562 876.620117188 367.958007812 866.014648438 388.953125 845.020507812 c 0
 409.994140625 823.978515625 420.551757812 796.978515625 420.551757812 765.5546875 c 0
310.458007812 802.901367188 m 0
 289.083007812 802.901367188 276.0234375 786.431640625 276.0234375 765.555664062 c 0
 276.0234375 755.028320312 279.323242188 746.83984375 286.262695312 739.645507812 c 0
 293.23046875 732.420898438 300.8359375 729.181640625 310.458007812 729.181640625 c 0
 331.681640625 729.181640625 345.86328125 745.681640625 345.86328125 765.555664062 c 0
 345.86328125 787.4609375 330.953125 802.901367188 310.458007812 802.901367188 c 0
241.873046875 256.791015625 m 1
 376.083007812 256.791015625 l 1
 308.576171875 469.758789062 l 1
 241.873046875 256.791015625 l 1
309.48828125 665.646484375 m 1024
EndSplineSet
EndChar

StartChar: AE
Encoding: 198 198 135
Width: 878
GlyphClass: 2
Flags: MW
HStem: 0.709961 130.95<560.232 848.322 560.232 848.322> 137.48 126.1<285.864 411.822 285.864 411.822 224.745 411.822> 282.98 130.949<560.232 804.672 560.232 804.672> 559.43 130.95<560.232 848.322 560.232 560.232>
VStem: 411.822 148.41<131.66 137.48 137.48 137.48 263.58 282.98 413.93 527.531 527.531 527.531>
LayerCount: 2
Fore
SplineSet
3.0830078125 0.7099609375 m 1
 342.920898438 690.379882812 l 1
 848.322265625 690.379882812 l 1
 848.322265625 559.4296875 l 1
 560.232421875 559.4296875 l 1
 560.232421875 413.9296875 l 1
 804.671875 413.9296875 l 1
 804.671875 282.98046875 l 1
 560.232421875 282.98046875 l 1
 560.232421875 131.66015625 l 1
 848.322265625 131.66015625 l 1
 848.322265625 0.7099609375 l 1
 411.822265625 0.7099609375 l 1
 411.822265625 137.48046875 l 1
 224.745117188 137.48046875 l 1
 159.754882812 0.7099609375 l 1
 3.0830078125 0.7099609375 l 1
411.822265625 263.580078125 m 1
 411.822265625 527.53125 l 1
 285.864257812 263.580078125 l 1
 411.822265625 263.580078125 l 1
EndSplineSet
EndChar

StartChar: Ccedilla
Encoding: 199 199 136
Width: 601
GlyphClass: 2
Flags: MW
HStem: 568.16 131.92<289.178 346.25>
VStem: 53.8926 148.409<269.885 271.825 271.825 416.355 245.178 423.146> 411.822 145.5<225.266 226.235 226.235 243.21 194.999 243.21>
LayerCount: 2
Fore
SplineSet
411.82421875 466.794921875 m 2
 411.82421875 521.099609375 383.981445312 568.16015625 308.517578125 568.16015625 c 0
 269.837890625 568.16015625 244.044921875 556.484375 227.990234375 534.514648438 c 0
 211.69921875 512.221679688 202.301757812 472.989257812 202.301757812 416.35546875 c 2
 202.301757812 271.825195312 l 2
 202.301757812 218.530273438 211.93359375 181.424804688 228.78125 159.72265625 c 0
 245.456054688 138.244140625 271.719726562 126.810546875 310.45703125 126.810546875 c 0
 344.903320312 126.810546875 369.485351562 135.936523438 386.130859375 152.864257812 c 0
 402.990234375 170.008789062 411.822265625 193.569335938 411.822265625 225.265625 c 2
 411.822265625 243.209960938 l 1
 557.322265625 243.209960938 l 1
 557.322265625 226.235351562 l 2
 557.322265625 163.762695312 541.638671875 112.379882812 509.408203125 73.2919921875 c 0
 478.448242188 35.744140625 435.37890625 11.4150390625 381.430664062 0.1435546875 c 1
 334.443359375 -150.609375 l 1
 201.190429688 -150.609375 l 1
 260.971679688 -4.5869140625 l 1
 143.859375 10.189453125 53.892578125 82.5185546875 53.892578125 269.884765625 c 2
 53.892578125 423.145507812 l 2
 53.892578125 535.393554688 85.0625 700.080078125 309.487304688 700.080078125 c 0
 384.356445312 700.080078125 445.299804688 680.099609375 490.876953125 639.284179688 c 0
 536.703125 598.24609375 559.26171875 540.366210938 559.26171875 467.765625 c 2
 559.26171875 450.790039062 l 1
 411.82421875 450.790039062 l 1
 411.82421875 466.794921875 l 2
EndSplineSet
EndChar

StartChar: Egrave
Encoding: 200 200 137
Width: 535
GlyphClass: 2
Flags: MW
HStem: 0.709961 130.95<210.062 507.853 210.062 507.853> 282.98 130.949<210.062 464.202 210.062 464.202> 559.43 130.95<210.062 507.853 210.062 210.062>
VStem: 62.6221 147.44<131.66 131.66 131.66 282.98 413.93 559.43>
AnchorPoint: "Anchor-0" 275 680 basechar 0
LayerCount: 2
Fore
SplineSet
210.0625 131.66015625 m 1
 507.852539062 131.66015625 l 1
 507.852539062 0.7099609375 l 1
 62.6220703125 0.7099609375 l 1
 62.6220703125 690.379882812 l 1
 507.852539062 690.379882812 l 1
 507.852539062 559.4296875 l 1
 210.0625 559.4296875 l 1
 210.0625 413.9296875 l 1
 464.202148438 413.9296875 l 1
 464.202148438 282.98046875 l 1
 210.0625 282.98046875 l 1
 210.0625 131.66015625 l 1
259.044921875 885.350585938 m 1
 380.345703125 735.969726562 l 1
 251.060546875 735.969726562 l 1
 96.0654296875 885.350585938 l 1
 259.044921875 885.350585938 l 1
EndSplineSet
EndChar

StartChar: Eacute
Encoding: 201 201 138
Width: 535
GlyphClass: 2
Flags: MW
HStem: 0.709961 130.95<210.062 507.853 210.062 507.853> 282.98 130.949<210.062 464.202 210.062 464.202> 559.43 130.95<210.062 507.853 210.062 210.062>
VStem: 62.6221 147.44<131.66 131.66 131.66 282.98 413.93 559.43>
AnchorPoint: "Anchor-0" 275 680 basechar 0
LayerCount: 2
Fore
SplineSet
210.0625 131.66015625 m 1
 507.852539062 131.66015625 l 1
 507.852539062 0.7099609375 l 1
 62.6220703125 0.7099609375 l 1
 62.6220703125 690.379882812 l 1
 507.852539062 690.379882812 l 1
 507.852539062 559.4296875 l 1
 210.0625 559.4296875 l 1
 210.0625 413.9296875 l 1
 464.202148438 413.9296875 l 1
 464.202148438 282.98046875 l 1
 210.0625 282.98046875 l 1
 210.0625 131.66015625 l 1
285.239257812 885.350585938 m 1
 448.219726562 885.350585938 l 1
 293.223632812 735.969726562 l 1
 163.938476562 735.969726562 l 1
 285.239257812 885.350585938 l 1
EndSplineSet
EndChar

StartChar: Ecircumflex
Encoding: 202 202 139
Width: 535
GlyphClass: 2
Flags: MW
HStem: 0.709961 130.95<210.062 507.853 210.062 507.853> 282.98 130.949<210.062 464.202 210.062 464.202> 559.43 130.95<210.062 507.853 210.062 210.062>
VStem: 62.6221 147.44<131.66 131.66 131.66 282.98 413.93 559.43>
AnchorPoint: "Anchor-0" 275 680 basechar 0
LayerCount: 2
Fore
SplineSet
210.0625 131.66015625 m 1
 507.852539062 131.66015625 l 1
 507.852539062 0.7099609375 l 1
 62.6220703125 0.7099609375 l 1
 62.6220703125 690.379882812 l 1
 507.852539062 690.379882812 l 1
 507.852539062 559.4296875 l 1
 210.0625 559.4296875 l 1
 210.0625 413.9296875 l 1
 464.202148438 413.9296875 l 1
 464.202148438 282.98046875 l 1
 210.0625 282.98046875 l 1
 210.0625 131.66015625 l 1
225.873046875 892.140625 m 1
 324.231445312 892.140625 l 1
 451.294921875 725.299804688 l 1
 331.783203125 725.299804688 l 1
 275.537109375 794.938476562 l 1
 219.291015625 725.299804688 l 1
 98.8095703125 725.299804688 l 1
 225.873046875 892.140625 l 1
EndSplineSet
EndChar

StartChar: Edieresis
Encoding: 203 203 140
Width: 535
GlyphClass: 2
Flags: MW
HStem: 0.709961 130.95<210.062 507.853 210.062 507.853> 282.98 130.949<210.062 464.202 210.062 464.202> 559.43 130.95<210.062 507.853 210.062 210.062> 735 132.891<119.853 244.012 119.853 244.012 119.853 306.092 306.092 430.252>
VStem: 62.6221 147.44<131.66 131.66 131.66 282.98 413.93 559.43> 119.853 124.159<735 867.891 735 867.891> 306.092 124.16<735 867.891 735 867.891>
AnchorPoint: "Anchor-0" 275 680 basechar 0
LayerCount: 2
Fore
SplineSet
210.0625 131.66015625 m 1xfa
 507.852539062 131.66015625 l 1
 507.852539062 0.7099609375 l 1
 62.6220703125 0.7099609375 l 1
 62.6220703125 690.379882812 l 1
 507.852539062 690.379882812 l 1
 507.852539062 559.4296875 l 1
 210.0625 559.4296875 l 1
 210.0625 413.9296875 l 1
 464.202148438 413.9296875 l 1
 464.202148438 282.98046875 l 1
 210.0625 282.98046875 l 1
 210.0625 131.66015625 l 1xfa
119.852539062 867.890625 m 1xf6
 244.01171875 867.890625 l 1
 244.01171875 735 l 1
 119.852539062 735 l 1
 119.852539062 867.890625 l 1xf6
306.091796875 867.890625 m 1
 430.251953125 867.890625 l 1
 430.251953125 735 l 1
 306.091796875 735 l 1
 306.091796875 867.890625 l 1
EndSplineSet
EndChar

StartChar: Igrave
Encoding: 204 204 141
Width: 270
GlyphClass: 2
Flags: MW
HStem: 0.709961 21G<68.4424 215.882 68.4424 68.4424> 670.38 20G<68.4424 215.882 215.882 215.882>
VStem: 68.4424 147.439<0.709961 690.38 0.709961 690.38>
AnchorPoint: "Anchor-0" 141 680 basechar 0
LayerCount: 2
Fore
SplineSet
68.4423828125 690.379882812 m 1
 215.881835938 690.379882812 l 1
 215.881835938 0.7099609375 l 1
 68.4423828125 0.7099609375 l 1
 68.4423828125 690.379882812 l 1
-37.794921875 885.350585938 m 1
 125.184570312 885.350585938 l 1
 246.485351562 735.969726562 l 1
 117.201171875 735.969726562 l 1
 -37.794921875 885.350585938 l 1
EndSplineSet
EndChar

StartChar: Iacute
Encoding: 205 205 142
Width: 270
GlyphClass: 2
Flags: MW
HStem: 0.709961 21G<68.4424 215.882 68.4424 68.4424> 670.38 20G<68.4424 215.882 215.882 215.882>
VStem: 68.4424 147.439<0.709961 690.38 0.709961 690.38>
AnchorPoint: "Anchor-0" 141 680 basechar 0
LayerCount: 2
Fore
SplineSet
68.4423828125 690.379882812 m 1
 215.881835938 690.379882812 l 1
 215.881835938 0.7099609375 l 1
 68.4423828125 0.7099609375 l 1
 68.4423828125 690.379882812 l 1
314.359375 885.350585938 m 1
 159.36328125 735.969726562 l 1
 30.0791015625 735.969726562 l 1
 151.379882812 885.350585938 l 1
 314.359375 885.350585938 l 1
EndSplineSet
EndChar

StartChar: Icircumflex
Encoding: 206 206 143
Width: 270
GlyphClass: 2
Flags: MW
HStem: 0.709961 21G<68.4424 215.882 68.4424 68.4424> 670.38 20G<68.4424 215.882 215.882 215.882>
VStem: 68.4424 147.439<0.709961 690.38 0.709961 690.38>
AnchorPoint: "Anchor-0" 141 680 basechar 0
LayerCount: 2
Fore
SplineSet
68.4423828125 690.379882812 m 1
 215.881835938 690.379882812 l 1
 215.881835938 0.7099609375 l 1
 68.4423828125 0.7099609375 l 1
 68.4423828125 690.379882812 l 1
92.013671875 892.140625 m 1
 190.37109375 892.140625 l 1
 317.434570312 725.299804688 l 1
 197.922851562 725.299804688 l 1
 141.676757812 794.938476562 l 1
 85.4306640625 725.299804688 l 1
 -35.05078125 725.299804688 l 1
 92.013671875 892.140625 l 1
EndSplineSet
EndChar

StartChar: Idieresis
Encoding: 207 207 144
Width: 270
GlyphClass: 2
Flags: MW
HStem: 0.709961 21G<68.4424 215.882 68.4424 68.4424> 670.38 20G<68.4424 215.882 215.882 215.882> 735 132.891<-14.0078 110.152 -14.0078 110.152 -14.0078 172.232 172.232 296.393>
VStem: -14.0078 124.16<735 867.891 735 867.891> 68.4424 147.439<0.709961 690.38 0.709961 690.38> 172.232 124.16<735 867.891 735 867.891>
AnchorPoint: "Anchor-0" 141 680 basechar 0
LayerCount: 2
Fore
SplineSet
68.4423828125 690.379882812 m 1xe8
 215.881835938 690.379882812 l 1
 215.881835938 0.7099609375 l 1
 68.4423828125 0.7099609375 l 1
 68.4423828125 690.379882812 l 1xe8
-14.0078125 867.890625 m 1xf0
 110.15234375 867.890625 l 1
 110.15234375 735 l 1
 -14.0078125 735 l 1
 -14.0078125 867.890625 l 1xf0
172.232421875 867.890625 m 1xe4
 296.392578125 867.890625 l 1
 296.392578125 735 l 1
 172.232421875 735 l 1
 172.232421875 867.890625 l 1xe4
EndSplineSet
EndChar

StartChar: Eth
Encoding: 208 208 145
Width: 632
GlyphClass: 2
Flags: MW
HStem: 0.709961 130.95<241.102 335.677> 285.891 131.92<31.582 93.6621 31.582 93.6621 241.102 355.562> 559.43 130.95<241.102 338.586 241.102 241.102>
VStem: 93.6621 147.439<131.66 285.891 131.66 285.891 131.66 285.891 417.811 559.43> 442.861 147.439<278.615 407.625 407.625 414.415 229.746 465.875>
LayerCount: 2
Fore
SplineSet
590.30078125 414.415039062 m 2
 590.30078125 277.645507812 l 2
 590.30078125 181.845703125 568.090820312 110.583007812 521.163085938 66.0703125 c 0
 474.944335938 22.2314453125 412.581054688 0.7099609375 335.676757812 0.7099609375 c 2
 93.662109375 0.7099609375 l 1
 93.662109375 285.890625 l 1
 31.58203125 285.890625 l 1
 31.58203125 417.810546875 l 1
 93.662109375 417.810546875 l 1
 93.662109375 690.379882812 l 1
 339.557617188 690.379882812 l 2
 415.8125 690.379882812 477.404296875 669.020507812 522.672851562 625.453125 c 0
 568.62109375 581.231445312 590.30078125 510.170898438 590.30078125 414.415039062 c 2
338.5859375 131.66015625 m 2
 402.2109375 131.66015625 442.861328125 167.169921875 442.861328125 278.615234375 c 2
 442.861328125 407.625 l 2
 442.861328125 524.125976562 403.510742188 559.4296875 338.5859375 559.4296875 c 2
 241.1015625 559.4296875 l 1
 241.1015625 417.810546875 l 1
 355.561523438 417.810546875 l 1
 355.561523438 285.890625 l 1
 241.1015625 285.890625 l 1
 241.1015625 131.66015625 l 1
 338.5859375 131.66015625 l 2
EndSplineSet
EndChar

StartChar: Ntilde
Encoding: 209 209 146
Width: 634
GlyphClass: 2
Flags: MW
HStem: 0.709961 21G<62.6221 210.062 62.6221 62.6221 440.438 583.512 440.438 440.438> 670.38 20G<62.6221 205.704 205.704 205.704 436.072 583.512 583.512 583.512> 731.12 111.55<365.941 399.055> 767.979 111.551<246.758 279.95>
VStem: 62.6221 147.44<0.709961 391.622 0.709961 690.38> 436.072 147.439<298.572 690.38 0.709961 690.38>
AnchorPoint: "Anchor-0" 323 680 basechar 0
LayerCount: 2
Fore
SplineSet
583.51171875 690.379882812 m 1xcc
 583.51171875 0.7099609375 l 1
 440.4375 0.7099609375 l 1
 210.0625 391.622070312 l 1
 210.0625 0.7099609375 l 1
 62.6220703125 0.7099609375 l 1
 62.6220703125 690.379882812 l 1
 205.704101562 690.379882812 l 1
 436.072265625 298.572265625 l 1
 436.072265625 690.379882812 l 1
 583.51171875 690.379882812 l 1xcc
381.266601562 731.120117188 m 0xec
 324.719726562 731.120117188 299.881835938 767.979492188 260.017578125 767.979492188 c 0
 233.499023438 767.979492188 222.23828125 758.390625 175.142578125 718.288085938 c 1
 175.142578125 831.8515625 l 1
 206.973632812 863.682617188 228.317382812 879.530273438 263.896484375 879.530273438 c 0xdc
 322.4453125 879.530273438 345.766601562 842.669921875 386.116210938 842.669921875 c 0
 413.82421875 842.669921875 425.03515625 853.018554688 470.021484375 894.544921875 c 1
 470.021484375 778.798828125 l 1
 438.188476562 746.966796875 416.842773438 731.120117188 381.266601562 731.120117188 c 0xec
EndSplineSet
EndChar

StartChar: Ograve
Encoding: 210 210 147
Width: 601
GlyphClass: 2
Flags: MW
HStem: -7.0498 133.86<288.146 338.275 288.146 342.121> 568.16 131.92<288.184 340.008>
VStem: 53.8926 148.408<269.885 271.825 271.825 416.355 244.815 423.146> 411.821 147.44<271.825 416.355 416.355 423.146>
AnchorPoint: "Anchor-0" 306 680 basechar 0
LayerCount: 2
Fore
SplineSet
53.892578125 423.145507812 m 2
 53.892578125 534.454101562 84.2255859375 700.080078125 307.545898438 700.080078125 c 0
 383.822265625 700.080078125 445.572265625 678.541992188 491.1484375 634.666992188 c 0
 537.401367188 590.140625 559.26171875 518.918945312 559.26171875 423.145507812 c 2
 559.26171875 269.884765625 l 2
 559.26171875 174.072265625 536.876953125 102.790039062 489.611328125 58.28515625 c 0
 443.081054688 14.4716796875 380.57421875 -7.0498046875 303.666992188 -7.0498046875 c 0
 166.137695312 -7.0498046875 53.892578125 57.8876953125 53.892578125 269.884765625 c 2
 53.892578125 423.145507812 l 2
307.545898438 126.810546875 m 0
 369.004882812 126.810546875 411.821289062 157.616210938 411.821289062 271.825195312 c 2
 411.821289062 416.35546875 l 2
 411.821289062 532.85546875 372.470703125 568.16015625 307.545898438 568.16015625 c 0
 268.821289062 568.16015625 243.21875 556.606445312 227.518554688 535.018554688 c 0
 211.578125 513.100585938 202.30078125 473.67578125 202.30078125 416.35546875 c 2
 202.30078125 271.825195312 l 2
 202.30078125 217.805664062 211.514648438 180.416015625 227.442382812 159.084960938 c 0
 243.094726562 138.123046875 268.747070312 126.810546875 307.545898438 126.810546875 c 0
127.104492188 885.350585938 m 1
 290.083984375 885.350585938 l 1
 411.384765625 735.969726562 l 1
 282.099609375 735.969726562 l 1
 127.104492188 885.350585938 l 1
EndSplineSet
EndChar

StartChar: Oacute
Encoding: 211 211 148
Width: 601
GlyphClass: 2
Flags: MW
HStem: -7.0498 133.86<288.146 338.275 288.146 342.121> 568.16 131.92<288.184 340.008>
VStem: 53.8926 148.408<269.885 271.825 271.825 416.355 244.815 423.146> 411.821 147.44<271.825 416.355 416.355 423.146>
AnchorPoint: "Anchor-0" 306 680 basechar 0
LayerCount: 2
Fore
SplineSet
53.892578125 423.145507812 m 2
 53.892578125 534.454101562 84.2255859375 700.080078125 307.545898438 700.080078125 c 0
 383.822265625 700.080078125 445.572265625 678.541992188 491.1484375 634.666992188 c 0
 537.401367188 590.140625 559.26171875 518.918945312 559.26171875 423.145507812 c 2
 559.26171875 269.884765625 l 2
 559.26171875 174.072265625 536.876953125 102.790039062 489.611328125 58.28515625 c 0
 443.081054688 14.4716796875 380.57421875 -7.0498046875 303.666992188 -7.0498046875 c 0
 166.137695312 -7.0498046875 53.892578125 57.8876953125 53.892578125 269.884765625 c 2
 53.892578125 423.145507812 l 2
307.545898438 126.810546875 m 0
 369.004882812 126.810546875 411.821289062 157.616210938 411.821289062 271.825195312 c 2
 411.821289062 416.35546875 l 2
 411.821289062 532.85546875 372.470703125 568.16015625 307.545898438 568.16015625 c 0
 268.821289062 568.16015625 243.21875 556.606445312 227.518554688 535.018554688 c 0
 211.578125 513.100585938 202.30078125 473.67578125 202.30078125 416.35546875 c 2
 202.30078125 271.825195312 l 2
 202.30078125 217.805664062 211.514648438 180.416015625 227.442382812 159.084960938 c 0
 243.094726562 138.123046875 268.747070312 126.810546875 307.545898438 126.810546875 c 0
316.278320312 885.350585938 m 1
 479.258789062 885.350585938 l 1
 324.262695312 735.969726562 l 1
 194.977539062 735.969726562 l 1
 316.278320312 885.350585938 l 1
EndSplineSet
EndChar

StartChar: Ocircumflex
Encoding: 212 212 149
Width: 601
GlyphClass: 2
Flags: MW
HStem: -7.0498 133.86<288.146 338.275 288.146 342.121> 568.16 131.92<288.184 340.008>
VStem: 53.8926 148.408<269.885 271.825 271.825 416.355 244.815 423.146> 411.821 147.44<271.825 416.355 416.355 423.146>
AnchorPoint: "Anchor-0" 306 680 basechar 0
LayerCount: 2
Fore
SplineSet
53.892578125 423.145507812 m 2
 53.892578125 534.454101562 84.2255859375 700.080078125 307.545898438 700.080078125 c 0
 383.822265625 700.080078125 445.572265625 678.541992188 491.1484375 634.666992188 c 0
 537.401367188 590.140625 559.26171875 518.918945312 559.26171875 423.145507812 c 2
 559.26171875 269.884765625 l 2
 559.26171875 174.072265625 536.876953125 102.790039062 489.611328125 58.28515625 c 0
 443.081054688 14.4716796875 380.57421875 -7.0498046875 303.666992188 -7.0498046875 c 0
 166.137695312 -7.0498046875 53.892578125 57.8876953125 53.892578125 269.884765625 c 2
 53.892578125 423.145507812 l 2
307.545898438 126.810546875 m 0
 369.004882812 126.810546875 411.821289062 157.616210938 411.821289062 271.825195312 c 2
 411.821289062 416.35546875 l 2
 411.821289062 532.85546875 372.470703125 568.16015625 307.545898438 568.16015625 c 0
 268.821289062 568.16015625 243.21875 556.606445312 227.518554688 535.018554688 c 0
 211.578125 513.100585938 202.30078125 473.67578125 202.30078125 416.35546875 c 2
 202.30078125 271.825195312 l 2
 202.30078125 217.805664062 211.514648438 180.416015625 227.442382812 159.084960938 c 0
 243.094726562 138.123046875 268.747070312 126.810546875 307.545898438 126.810546875 c 0
256.912109375 892.140625 m 1
 355.270507812 892.140625 l 1
 482.333984375 725.299804688 l 1
 362.822265625 725.299804688 l 1
 306.576171875 794.938476562 l 1
 250.330078125 725.299804688 l 1
 129.848632812 725.299804688 l 1
 256.912109375 892.140625 l 1
EndSplineSet
EndChar

StartChar: Otilde
Encoding: 213 213 150
Width: 601
GlyphClass: 2
Flags: MW
HStem: -7.0498 133.86<288.146 338.275 288.146 342.121> 568.16 131.92<288.184 340.008> 731.12 111.55<349.45 382.564> 767.979 111.551<230.268 263.458>
VStem: 53.8926 148.408<269.885 271.825 271.825 416.355 244.815 423.146> 411.821 147.44<271.825 416.355 416.355 423.146>
AnchorPoint: "Anchor-0" 306 680 basechar 0
LayerCount: 2
Fore
SplineSet
53.892578125 423.145507812 m 2xcc
 53.892578125 534.454101562 84.2255859375 700.080078125 307.545898438 700.080078125 c 0
 383.822265625 700.080078125 445.572265625 678.541992188 491.1484375 634.666992188 c 0
 537.401367188 590.140625 559.26171875 518.918945312 559.26171875 423.145507812 c 2
 559.26171875 269.884765625 l 2
 559.26171875 174.072265625 536.876953125 102.790039062 489.611328125 58.28515625 c 0
 443.081054688 14.4716796875 380.57421875 -7.0498046875 303.666992188 -7.0498046875 c 0
 166.137695312 -7.0498046875 53.892578125 57.8876953125 53.892578125 269.884765625 c 2
 53.892578125 423.145507812 l 2xcc
307.545898438 126.810546875 m 0
 369.004882812 126.810546875 411.821289062 157.616210938 411.821289062 271.825195312 c 2
 411.821289062 416.35546875 l 2
 411.821289062 532.85546875 372.470703125 568.16015625 307.545898438 568.16015625 c 0
 268.821289062 568.16015625 243.21875 556.606445312 227.518554688 535.018554688 c 0
 211.578125 513.100585938 202.30078125 473.67578125 202.30078125 416.35546875 c 2
 202.30078125 271.825195312 l 2
 202.30078125 217.805664062 211.514648438 180.416015625 227.442382812 159.084960938 c 0
 243.094726562 138.123046875 268.747070312 126.810546875 307.545898438 126.810546875 c 0
364.775390625 731.120117188 m 0xec
 308.228515625 731.120117188 283.390625 767.979492188 243.526367188 767.979492188 c 0
 217.008789062 767.979492188 205.748046875 758.390625 158.651367188 718.288085938 c 1
 158.651367188 831.8515625 l 1
 190.482421875 863.682617188 211.826171875 879.530273438 247.405273438 879.530273438 c 0xdc
 305.954101562 879.530273438 329.275390625 842.669921875 369.625 842.669921875 c 0
 397.333007812 842.669921875 408.543945312 853.018554688 453.530273438 894.544921875 c 1
 453.530273438 778.798828125 l 1
 421.697265625 746.966796875 400.352539062 731.120117188 364.775390625 731.120117188 c 0xec
EndSplineSet
EndChar

StartChar: Odieresis
Encoding: 214 214 151
Width: 601
GlyphClass: 2
Flags: MW
HStem: -7.0498 133.86<288.146 338.275 288.146 342.121> 568.16 131.92<288.184 340.008> 735 132.891<150.892 275.051 150.892 275.051 150.892 337.131 337.131 461.291>
VStem: 53.8926 148.408<269.885 271.825 271.825 416.355 244.815 423.146> 150.892 124.159<735 867.891 735 867.891> 337.131 124.16<735 867.891 735 867.891> 411.821 147.44<271.825 416.355 416.355 423.146>
AnchorPoint: "Anchor-0" 306 680 basechar 0
LayerCount: 2
Fore
SplineSet
53.892578125 423.145507812 m 2xf2
 53.892578125 534.454101562 84.2255859375 700.080078125 307.545898438 700.080078125 c 0
 383.822265625 700.080078125 445.572265625 678.541992188 491.1484375 634.666992188 c 0
 537.401367188 590.140625 559.26171875 518.918945312 559.26171875 423.145507812 c 2
 559.26171875 269.884765625 l 2
 559.26171875 174.072265625 536.876953125 102.790039062 489.611328125 58.28515625 c 0
 443.081054688 14.4716796875 380.57421875 -7.0498046875 303.666992188 -7.0498046875 c 0
 166.137695312 -7.0498046875 53.892578125 57.8876953125 53.892578125 269.884765625 c 2
 53.892578125 423.145507812 l 2xf2
307.545898438 126.810546875 m 0
 369.004882812 126.810546875 411.821289062 157.616210938 411.821289062 271.825195312 c 2
 411.821289062 416.35546875 l 2
 411.821289062 532.85546875 372.470703125 568.16015625 307.545898438 568.16015625 c 0
 268.821289062 568.16015625 243.21875 556.606445312 227.518554688 535.018554688 c 0
 211.578125 513.100585938 202.30078125 473.67578125 202.30078125 416.35546875 c 2
 202.30078125 271.825195312 l 2
 202.30078125 217.805664062 211.514648438 180.416015625 227.442382812 159.084960938 c 0
 243.094726562 138.123046875 268.747070312 126.810546875 307.545898438 126.810546875 c 0
150.891601562 867.890625 m 1xe8
 275.05078125 867.890625 l 1
 275.05078125 735 l 1
 150.891601562 735 l 1
 150.891601562 867.890625 l 1xe8
337.130859375 867.890625 m 1xe4
 461.291015625 867.890625 l 1
 461.291015625 735 l 1
 337.130859375 735 l 1
 337.130859375 867.890625 l 1xe4
EndSplineSet
EndChar

StartChar: multiply
Encoding: 215 215 152
Width: 532
GlyphClass: 2
Flags: W
LayerCount: 2
Fore
SplineSet
272.596679688 190.463867188 m 1
 156.1796875 74.046875 l 1
 68.1533203125 163.232421875 l 1
 183.56640625 278.645507812 l 1
 68.13671875 395.044921875 l 1
 156.197265625 483.106445312 l 1
 272.596679688 367.67578125 l 1
 388.104492188 483.18359375 l 1
 476.130859375 393.998046875 l 1
 360.748046875 278.615234375 l 1
 476.130859375 163.232421875 l 1
 388.07421875 74.0166015625 l 1
 272.596679688 190.463867188 l 1
EndSplineSet
EndChar

StartChar: Oslash
Encoding: 216 216 153
Width: 601
GlyphClass: 2
Flags: MW
HStem: -7.0498 133.86<292.148 338.276 292.148 342.121> 568.159 131.921<288.185 322.661>
VStem: 53.8926 148.409<269.885 271.824 271.824 416.354 267.784 423.146> 411.822 147.439<271.825 416.355 416.355 421.451>
AnchorPoint: "Anchor-0" 306 680 basechar 0
LayerCount: 2
Fore
SplineSet
53.892578125 423.145507812 m 2
 53.892578125 534.448242188 84.2236328125 700.080078125 307.546875 700.080078125 c 0
 362.646484375 700.080078125 409.446289062 689.611328125 447.466796875 668.076171875 c 1
 474.32421875 714.629882812 l 1
 566.836914062 714.629882812 l 1
 508.002929688 614.078125 l 1
 542.642578125 567.955078125 559.26171875 503.975585938 559.26171875 423.145507812 c 2
 559.26171875 269.884765625 l 2
 559.26171875 174.072265625 536.876953125 102.790039062 489.611328125 58.28515625 c 0
 443.081054688 14.4716796875 380.57421875 -7.0498046875 303.666992188 -7.0498046875 c 0
 249.1484375 -7.0498046875 202.689453125 3.1484375 164.735351562 24.111328125 c 1
 139.767578125 -18.689453125 l 1
 46.3583984375 -18.689453125 l 1
 103.262695312 79.0126953125 l 1
 69.8466796875 124.600585938 53.892578125 188.53125 53.892578125 269.884765625 c 2
 53.892578125 423.145507812 l 2
307.546875 568.159179688 m 0
 268.822265625 568.159179688 243.219726562 556.60546875 227.51953125 535.017578125 c 0
 211.579101562 513.099609375 202.301757812 473.674804688 202.301757812 416.354492188 c 2
 202.301757812 271.82421875 l 2
 202.301757812 263.743164062 202.474609375 256.276367188 202.80859375 249.439453125 c 1
 375.387695312 545.787109375 l 1
 359.8203125 560.408203125 337.774414062 568.159179688 307.546875 568.159179688 c 0
307.546875 126.810546875 m 0
 369.005859375 126.810546875 411.822265625 157.616210938 411.822265625 271.825195312 c 2
 411.822265625 416.35546875 l 2
 411.822265625 426.545898438 411.419921875 436.739257812 410.614257812 446.9375 c 1
 236.998046875 148.563476562 l 1
 253.702148438 134.341796875 276.75 126.810546875 307.546875 126.810546875 c 0
EndSplineSet
EndChar

StartChar: Ugrave
Encoding: 217 217 154
Width: 615
GlyphClass: 2
Flags: MW
HStem: -5.10938 130.95<295.975 328.82 295.975 386.146> 670.381 20G<62.623 210.063 210.063 210.063 415.703 564.113 564.113 564.113>
VStem: 62.623 147.44<232.056 235.937 235.937 690.381> 415.703 148.41<235.937 690.381>
AnchorPoint: "Anchor-0" 313 680 basechar 0
LayerCount: 2
Fore
SplineSet
312.3984375 -5.109375 m 0
 169.08984375 -5.109375 62.623046875 91.4853515625 62.623046875 232.055664062 c 2
 62.623046875 690.380859375 l 1
 210.063476562 690.380859375 l 1
 210.063476562 235.936523438 l 2
 210.063476562 199.529296875 219.540039062 172.846679688 237.318359375 154.208007812 c 0
 255.153320312 135.509765625 279.55078125 125.840820312 312.3984375 125.840820312 c 0
 345.241210938 125.840820312 369.840820312 135.510742188 388.020507812 154.267578125 c 0
 406.094726562 172.916015625 415.703125 199.5625 415.703125 235.936523438 c 2
 415.703125 690.380859375 l 1
 564.11328125 690.380859375 l 1
 564.11328125 232.055664062 l 2
 564.11328125 94.8564453125 459.892578125 -5.109375 312.3984375 -5.109375 c 0
133.896484375 885.350585938 m 1
 296.875976562 885.350585938 l 1
 418.176757812 735.969726562 l 1
 288.891601562 735.969726562 l 1
 133.896484375 885.350585938 l 1
EndSplineSet
EndChar

StartChar: Uacute
Encoding: 218 218 155
Width: 615
GlyphClass: 2
Flags: MW
HStem: -5.10938 130.95<295.975 328.82 295.975 386.146> 670.381 20G<62.623 210.063 210.063 210.063 415.703 564.113 564.113 564.113>
VStem: 62.623 147.44<232.056 235.937 235.937 690.381> 415.703 148.41<235.937 690.381>
AnchorPoint: "Anchor-0" 313 680 basechar 0
LayerCount: 2
Fore
SplineSet
312.3984375 -5.109375 m 0
 169.08984375 -5.109375 62.623046875 91.4853515625 62.623046875 232.055664062 c 2
 62.623046875 690.380859375 l 1
 210.063476562 690.380859375 l 1
 210.063476562 235.936523438 l 2
 210.063476562 199.529296875 219.540039062 172.846679688 237.318359375 154.208007812 c 0
 255.153320312 135.509765625 279.55078125 125.840820312 312.3984375 125.840820312 c 0
 345.241210938 125.840820312 369.840820312 135.510742188 388.020507812 154.267578125 c 0
 406.094726562 172.916015625 415.703125 199.5625 415.703125 235.936523438 c 2
 415.703125 690.380859375 l 1
 564.11328125 690.380859375 l 1
 564.11328125 232.055664062 l 2
 564.11328125 94.8564453125 459.892578125 -5.109375 312.3984375 -5.109375 c 0
323.0703125 885.350585938 m 1
 486.049804688 885.350585938 l 1
 331.0546875 735.969726562 l 1
 201.76953125 735.969726562 l 1
 323.0703125 885.350585938 l 1
EndSplineSet
EndChar

StartChar: Ucircumflex
Encoding: 219 219 156
Width: 615
GlyphClass: 2
Flags: MW
HStem: -5.10938 130.95<295.975 328.82 295.975 386.146> 670.381 20G<62.623 210.063 210.063 210.063 415.703 564.113 564.113 564.113>
VStem: 62.623 147.44<232.056 235.937 235.937 690.381> 415.703 148.41<235.937 690.381>
AnchorPoint: "Anchor-0" 313 680 basechar 0
LayerCount: 2
Fore
SplineSet
312.3984375 -5.109375 m 0
 169.08984375 -5.109375 62.623046875 91.4853515625 62.623046875 232.055664062 c 2
 62.623046875 690.380859375 l 1
 210.063476562 690.380859375 l 1
 210.063476562 235.936523438 l 2
 210.063476562 199.529296875 219.540039062 172.846679688 237.318359375 154.208007812 c 0
 255.153320312 135.509765625 279.55078125 125.840820312 312.3984375 125.840820312 c 0
 345.241210938 125.840820312 369.840820312 135.510742188 388.020507812 154.267578125 c 0
 406.094726562 172.916015625 415.703125 199.5625 415.703125 235.936523438 c 2
 415.703125 690.380859375 l 1
 564.11328125 690.380859375 l 1
 564.11328125 232.055664062 l 2
 564.11328125 94.8564453125 459.892578125 -5.109375 312.3984375 -5.109375 c 0
263.704101562 892.140625 m 1
 362.0625 892.140625 l 1
 489.125976562 725.299804688 l 1
 369.614257812 725.299804688 l 1
 313.368164062 794.938476562 l 1
 257.122070312 725.299804688 l 1
 136.640625 725.299804688 l 1
 263.704101562 892.140625 l 1
EndSplineSet
EndChar

StartChar: Udieresis
Encoding: 220 220 157
Width: 615
GlyphClass: 2
Flags: MW
HStem: -5.10938 130.95<295.975 328.82 295.975 386.146> 670.381 20G<62.623 210.063 210.063 210.063 415.703 564.113 564.113 564.113> 735 132.891<157.684 281.843 157.684 281.843 157.684 343.923 343.923 468.083>
VStem: 62.623 147.44<232.056 235.937 235.937 690.381> 157.684 124.159<735 867.891 735 867.891> 343.923 124.16<735 867.891 735 867.891> 415.703 148.41<235.937 690.381>
AnchorPoint: "Anchor-0" 313 680 basechar 0
LayerCount: 2
Fore
SplineSet
312.3984375 -5.109375 m 0xf2
 169.08984375 -5.109375 62.623046875 91.4853515625 62.623046875 232.055664062 c 2
 62.623046875 690.380859375 l 1
 210.063476562 690.380859375 l 1
 210.063476562 235.936523438 l 2
 210.063476562 199.529296875 219.540039062 172.846679688 237.318359375 154.208007812 c 0
 255.153320312 135.509765625 279.55078125 125.840820312 312.3984375 125.840820312 c 0
 345.241210938 125.840820312 369.840820312 135.510742188 388.020507812 154.267578125 c 0
 406.094726562 172.916015625 415.703125 199.5625 415.703125 235.936523438 c 2
 415.703125 690.380859375 l 1
 564.11328125 690.380859375 l 1
 564.11328125 232.055664062 l 2
 564.11328125 94.8564453125 459.892578125 -5.109375 312.3984375 -5.109375 c 0xf2
157.68359375 867.890625 m 1xe8
 281.842773438 867.890625 l 1
 281.842773438 735 l 1
 157.68359375 735 l 1
 157.68359375 867.890625 l 1xe8
343.922851562 867.890625 m 1xe4
 468.083007812 867.890625 l 1
 468.083007812 735 l 1
 343.922851562 735 l 1
 343.922851562 867.890625 l 1xe4
EndSplineSet
EndChar

StartChar: Yacute
Encoding: 221 221 158
Width: 544
GlyphClass: 2
Flags: MW
HStem: 0.709961 21G<204.242 351.683 204.242 204.242> 670.38 20G<3.06641 164.819 164.819 164.819 390.136 552.875 552.875 552.875>
VStem: 204.242 147.44<0.709961 283.025 283.025 283.025>
AnchorPoint: "Anchor-0" 277 680 basechar 0
LayerCount: 2
Fore
SplineSet
390.135742188 690.379882812 m 1
 552.875 690.379882812 l 1
 351.682617188 283.990234375 l 1
 351.682617188 0.7099609375 l 1
 204.2421875 0.7099609375 l 1
 204.2421875 283.025390625 l 1
 3.06640625 690.379882812 l 1
 164.819335938 690.379882812 l 1
 277.477539062 433.922851562 l 1
 390.135742188 690.379882812 l 1
287.1796875 885.350585938 m 1
 450.159179688 885.350585938 l 1
 295.163085938 735.969726562 l 1
 165.87890625 735.969726562 l 1
 287.1796875 885.350585938 l 1
EndSplineSet
EndChar

StartChar: Thorn
Encoding: 222 222 159
Width: 569
GlyphClass: 2
Flags: MW
HStem: 0.709961 21G<62.6221 210.062 62.6221 62.6221> 145.24 130.95<210.062 317.247 317.247 323.067 210.062 317.247> 448.851 130.949<210.062 317.247 210.062 323.067> 670.38 20G<62.6221 210.062 210.062 210.062>
VStem: 62.6221 147.44<0.709961 145.24 0.709961 276.19 276.19 448.851 579.8 690.38> 405.032 147.44<326.985 368.748>
LayerCount: 2
Fore
SplineSet
552.47265625 359.125 m 0
 552.47265625 294.844726562 531.961914062 242.286132812 490.583007812 203.301757812 c 0
 449.173828125 164.287109375 392.799804688 145.240234375 323.067382812 145.240234375 c 2
 210.0625 145.240234375 l 1
 210.0625 0.7099609375 l 1
 62.6220703125 0.7099609375 l 1
 62.6220703125 690.379882812 l 1
 210.0625 690.379882812 l 1
 210.0625 579.799804688 l 1
 323.067382812 579.799804688 l 2
 392.837890625 579.799804688 449.249023438 560.395507812 490.6484375 520.70703125 c 0
 532.08203125 480.984375 552.47265625 426.499023438 552.47265625 359.125 c 0
317.247070312 276.190429688 m 2
 335.4453125 276.190429688 405.032226562 278.624023438 405.032226562 359.125 c 0
 405.032226562 378.370117188 403.52734375 448.850585938 317.247070312 448.850585938 c 2
 210.0625 448.850585938 l 1
 210.0625 276.190429688 l 1
 317.247070312 276.190429688 l 2
EndSplineSet
EndChar

StartChar: germandbls
Encoding: 223 223 160
Width: 527
GlyphClass: 2
Flags: MW
HStem: -3.16992 121.25<251.772 292.999 292.999 301.728 251.772 292.999> 351.852 120.279<251.774 284.27 251.774 292.029> 576.891 123.19<245.88 302.867>
VStem: 57.7744 140.649<0.710938 493.956 493.956 504.626 0.710938 526.786> 341.984 139.679<502.835 537.748> 350.714 139.679<216.66 275.064>
LayerCount: 2
Fore
SplineSet
434.327148438 417.135742188 m 1xf8
 481.5390625 384.665039062 490.392578125 340.64453125 490.392578125 232.0546875 c 0
 490.392578125 173.299804688 485.754882812 127.74609375 475.90234375 94.7919921875 c 0
 451.442382812 12.9814453125 381.465820312 -3.169921875 301.727539062 -3.169921875 c 2
 251.772460938 -3.169921875 l 1
 251.772460938 118.080078125 l 1
 292.999023438 118.080078125 l 2
 328.53125 118.080078125 343.415039062 129.133789062 347.4140625 158.276367188 c 0
 349.552734375 173.861328125 350.713867188 199.323242188 350.713867188 233.99609375 c 0xf4
 350.713867188 316.1328125 343.102539062 330.041992188 329.352539062 340.9609375 c 0
 321.13671875 347.486328125 306.424804688 351.8515625 284.26953125 351.8515625 c 2
 251.774414062 351.8515625 l 1
 251.774414062 472.130859375 l 1
 292.029296875 472.130859375 l 2
 321.809570312 472.130859375 341.984375 481.64453125 341.984375 524.026367188 c 0
 341.984375 551.469726562 333.104492188 576.890625 272.62890625 576.890625 c 0
 219.130859375 576.890625 198.423828125 554.46484375 198.423828125 504.625976562 c 2
 198.423828125 0.7109375 l 1
 57.7744140625 0.7109375 l 1
 57.7744140625 493.956054688 l 2
 57.7744140625 559.615234375 74.396484375 611.235351562 109.15234375 647.033203125 c 0
 144.243164062 683.177734375 199.108398438 700.081054688 271.658203125 700.081054688 c 0
 336.454101562 700.081054688 388.079101562 685.904296875 425.435546875 656.157226562 c 0
 462.99609375 626.248046875 481.663085938 583.349609375 481.663085938 529.844726562 c 0
 481.663085938 468.41015625 458.3125 436.91015625 434.327148438 417.135742188 c 1xf8
EndSplineSet
EndChar

StartChar: agrave
Encoding: 224 224 161
Width: 505
GlyphClass: 2
Flags: MW
HStem: -5.11035 117.369<212.843 238.313> 216.049 102.821<223.156 242.555 242.555 319.669> 418.78 112.52<238.866 271.728>
VStem: 40.3115 136.768<152.83 175.745 152.83 186.036> 319.669 139.681<190.344 216.049 216.049 216.049>
AnchorPoint: "Anchor-0" 250 515 basechar 0
LayerCount: 2
Fore
SplineSet
250.317382812 531.299804688 m 0
 297.159179688 531.299804688 459.349609375 525.668945312 459.349609375 342.633789062 c 2
 459.349609375 0.708984375 l 1
 322.579101562 0.708984375 l 1
 322.579101562 31.1015625 l 1
 293.3125 6.7060546875 263.170898438 -5.1103515625 213.455078125 -5.1103515625 c 0
 159.928710938 -5.1103515625 116.87890625 9.3818359375 86.0595703125 39.5009765625 c 0
 55.2880859375 69.57421875 40.3115234375 111.095703125 40.3115234375 162.21484375 c 0
 40.3115234375 209.856445312 56.6376953125 248.849609375 89.443359375 277.118164062 c 0
 122.2265625 305.368164062 167.249023438 318.870117188 223.15625 318.870117188 c 2
 319.670898438 318.870117188 l 1
 319.670898438 348.455078125 l 2
 319.670898438 399.580078125 294.108398438 418.780273438 249.346679688 418.780273438 c 0
 228.385742188 418.780273438 213.081054688 413.599609375 202.118164062 404.241210938 c 0
 191.173828125 394.8984375 185.811523438 383.102539062 185.811523438 366.884765625 c 2
 185.811523438 353.790039062 l 1
 53.8916015625 353.790039062 l 1
 53.8916015625 367.85546875 l 2
 53.8916015625 417.619140625 72.0126953125 458.3046875 108.078125 487.779296875 c 0
 143.98828125 517.12890625 191.797851562 531.299804688 250.317382812 531.299804688 c 0
177.079101562 165.124023438 m 0
 177.079101562 140.536132812 185.072265625 112.258789062 240.614257812 112.258789062 c 0
 270.944335938 112.258789062 290.55859375 119.33984375 301.635742188 130.932617188 c 0
 313.010742188 142.836914062 319.668945312 162.05859375 319.668945312 190.34375 c 2
 319.668945312 216.048828125 l 1
 242.5546875 216.048828125 l 2
 183.143554688 216.048828125 177.079101562 186.366210938 177.079101562 165.124023438 c 0
70.8427734375 720.44921875 m 1
 233.822265625 720.44921875 l 1
 355.123046875 571.069335938 l 1
 225.837890625 571.069335938 l 1
 70.8427734375 720.44921875 l 1
EndSplineSet
EndChar

StartChar: aacute
Encoding: 225 225 162
Width: 505
GlyphClass: 2
Flags: MW
HStem: -5.11035 117.369<212.843 238.313> 216.049 102.821<223.156 242.555 242.555 319.669> 418.78 112.52<238.866 271.728>
VStem: 40.3115 136.768<152.83 175.745 152.83 186.036> 319.669 139.681<190.344 216.049 216.049 216.049>
AnchorPoint: "Anchor-0" 250 515 basechar 0
LayerCount: 2
Fore
SplineSet
250.317382812 531.299804688 m 0
 297.159179688 531.299804688 459.349609375 525.668945312 459.349609375 342.633789062 c 2
 459.349609375 0.708984375 l 1
 322.579101562 0.708984375 l 1
 322.579101562 31.1015625 l 1
 293.3125 6.7060546875 263.170898438 -5.1103515625 213.455078125 -5.1103515625 c 0
 159.928710938 -5.1103515625 116.87890625 9.3818359375 86.0595703125 39.5009765625 c 0
 55.2880859375 69.57421875 40.3115234375 111.095703125 40.3115234375 162.21484375 c 0
 40.3115234375 209.856445312 56.6376953125 248.849609375 89.443359375 277.118164062 c 0
 122.2265625 305.368164062 167.249023438 318.870117188 223.15625 318.870117188 c 2
 319.670898438 318.870117188 l 1
 319.670898438 348.455078125 l 2
 319.670898438 399.580078125 294.108398438 418.780273438 249.346679688 418.780273438 c 0
 228.385742188 418.780273438 213.081054688 413.599609375 202.118164062 404.241210938 c 0
 191.173828125 394.8984375 185.811523438 383.102539062 185.811523438 366.884765625 c 2
 185.811523438 353.790039062 l 1
 53.8916015625 353.790039062 l 1
 53.8916015625 367.85546875 l 2
 53.8916015625 417.619140625 72.0126953125 458.3046875 108.078125 487.779296875 c 0
 143.98828125 517.12890625 191.797851562 531.299804688 250.317382812 531.299804688 c 0
177.079101562 165.124023438 m 0
 177.079101562 140.536132812 185.072265625 112.258789062 240.614257812 112.258789062 c 0
 270.944335938 112.258789062 290.55859375 119.33984375 301.635742188 130.932617188 c 0
 313.010742188 142.836914062 319.668945312 162.05859375 319.668945312 190.34375 c 2
 319.668945312 216.048828125 l 1
 242.5546875 216.048828125 l 2
 183.143554688 216.048828125 177.079101562 186.366210938 177.079101562 165.124023438 c 0
260.016601562 720.44921875 m 1
 422.99609375 720.44921875 l 1
 268.000976562 571.069335938 l 1
 138.715820312 571.069335938 l 1
 260.016601562 720.44921875 l 1
EndSplineSet
EndChar

StartChar: acircumflex
Encoding: 226 226 163
Width: 505
GlyphClass: 2
Flags: MW
HStem: -5.11035 117.369<212.843 238.313> 216.049 102.821<223.156 242.555 242.555 319.669> 418.78 112.52<238.866 271.728>
VStem: 40.3115 136.768<152.83 175.745 152.83 186.036> 319.669 139.681<190.344 216.049 216.049 216.049>
AnchorPoint: "Anchor-0" 250 515 basechar 0
LayerCount: 2
Fore
SplineSet
250.317382812 531.299804688 m 0
 297.159179688 531.299804688 459.349609375 525.668945312 459.349609375 342.633789062 c 2
 459.349609375 0.708984375 l 1
 322.579101562 0.708984375 l 1
 322.579101562 31.1015625 l 1
 293.3125 6.7060546875 263.170898438 -5.1103515625 213.455078125 -5.1103515625 c 0
 159.928710938 -5.1103515625 116.87890625 9.3818359375 86.0595703125 39.5009765625 c 0
 55.2880859375 69.57421875 40.3115234375 111.095703125 40.3115234375 162.21484375 c 0
 40.3115234375 209.856445312 56.6376953125 248.849609375 89.443359375 277.118164062 c 0
 122.2265625 305.368164062 167.249023438 318.870117188 223.15625 318.870117188 c 2
 319.670898438 318.870117188 l 1
 319.670898438 348.455078125 l 2
 319.670898438 399.580078125 294.108398438 418.780273438 249.346679688 418.780273438 c 0
 228.385742188 418.780273438 213.081054688 413.599609375 202.118164062 404.241210938 c 0
 191.173828125 394.8984375 185.811523438 383.102539062 185.811523438 366.884765625 c 2
 185.811523438 353.790039062 l 1
 53.8916015625 353.790039062 l 1
 53.8916015625 367.85546875 l 2
 53.8916015625 417.619140625 72.0126953125 458.3046875 108.078125 487.779296875 c 0
 143.98828125 517.12890625 191.797851562 531.299804688 250.317382812 531.299804688 c 0
177.079101562 165.124023438 m 0
 177.079101562 140.536132812 185.072265625 112.258789062 240.614257812 112.258789062 c 0
 270.944335938 112.258789062 290.55859375 119.33984375 301.635742188 130.932617188 c 0
 313.010742188 142.836914062 319.668945312 162.05859375 319.668945312 190.34375 c 2
 319.668945312 216.048828125 l 1
 242.5546875 216.048828125 l 2
 183.143554688 216.048828125 177.079101562 186.366210938 177.079101562 165.124023438 c 0
200.650390625 727.239257812 m 1
 299.008789062 727.239257812 l 1
 426.072265625 560.399414062 l 1
 306.560546875 560.399414062 l 1
 250.314453125 630.037109375 l 1
 194.068359375 560.399414062 l 1
 73.5869140625 560.399414062 l 1
 200.650390625 727.239257812 l 1
EndSplineSet
EndChar

